<?xml version="1.0" encoding="UTF-8"?>
<svg width="60px" height="60px" viewBox="0 0 60 60" version="1.1" xmlns="http://www.w3.org/2000/svg" xmlns:xlink="http://www.w3.org/1999/xlink">
    <!-- Generator: Sketch 60.1 (88133) - https://sketch.com -->
    <title>소아과 60*60</title>
    <desc>Created with Sketch.</desc>
    <g id="소아과-60*60" stroke="none" stroke-width="1" fill="none" fill-rule="evenodd">
        <g id="Group-23">
            <polygon id="Fill-1" points="0 60 60 60 60 0.001875 0 0.001875"></polygon>
            <g id="Group-22" transform="translate(7.500000, 3.750000)">
                <path d="M22.5,0.1100625 C10.074375,0.1100625 0,10.1844375 0,22.6100625 L0,29.8906875 C0,42.3163125 10.074375,52.3906875 22.5,52.3906875 C34.925625,52.3906875 45,42.3163125 45,29.8906875 L45,22.6100625 C45,10.1844375 34.925625,0.1100625 22.5,0.1100625 M22.5,1.9850625 C33.871875,1.9850625 43.125,11.2381875 43.125,22.6100625 L43.125,29.8906875 C43.125,41.2625625 33.871875,50.5156875 22.5,50.5156875 C11.128125,50.5156875 1.875,41.2625625 1.875,29.8906875 L1.875,22.6100625 C1.875,11.2381875 11.128125,1.9850625 22.5,1.9850625" id="Fill-2" fill="#494949"></path>
                <path d="M15,22.5001875 C15,23.5351875 14.161875,24.3751875 13.125,24.3751875 C12.088125,24.3751875 11.25,23.5351875 11.25,22.5001875 C11.25,21.4633125 12.088125,20.6251875 13.125,20.6251875 C14.161875,20.6251875 15,21.4633125 15,22.5001875" id="Fill-4" fill="#494949"></path>
                <path d="M33.75,22.5001875 C33.75,23.5351875 32.911875,24.3751875 31.875,24.3751875 C30.838125,24.3751875 30,23.5351875 30,22.5001875 C30,21.4633125 30.838125,20.6251875 31.875,20.6251875 C32.911875,20.6251875 33.75,21.4633125 33.75,22.5001875" id="Fill-6" fill="#494949"></path>
                <path d="M26.25,26.2501875 C25.981875,28.0820625 24.406875,29.4883125 22.5,29.4883125 C20.596875,29.4883125 19.021875,28.0858125 18.751875,26.2558125 L26.25,26.2501875 Z" id="Fill-8" fill="#FFFFFF"></path>
                <path d="M20.0720625,27.19125 C20.5801875,28.010625 21.4914375,28.550625 22.5001875,28.550625 C23.5108125,28.550625 24.4220625,28.00875 24.9301875,27.189375 L20.0720625,27.19125 Z M22.5001875,30.425625 C20.1733125,30.425625 18.1614375,28.69125 17.8239375,26.3925 C17.7845625,26.1225 17.8633125,25.84875 18.0414375,25.6425 C18.2214375,25.43625 18.4783125,25.318125 18.7520625,25.318125 L26.2501875,25.3125 C26.5220625,25.3125 26.7808125,25.4325 26.9589375,25.636875 C27.1389375,25.84125 27.2176875,26.116875 27.1783125,26.385 C26.8408125,28.689375 24.8308125,30.425625 22.5001875,30.425625 L22.5001875,30.425625 Z" id="Fill-10" fill="#494949"></path>
                <path d="M22.2748125,5.84475 C21.5604375,6.28725 20.8310625,6.83475 20.3079375,7.461 C18.6823125,9.4035 18.7385625,13.042875 19.5710625,14.546625 C19.9048125,15.154125 21.1048125,15.82725 22.3198125,16.342875 C22.1341875,15.675375 21.9298125,14.9235 21.7723125,14.27475 C21.2698125,12.18975 21.1966875,9.817875 21.5810625,7.935375 C21.7179375,7.26975 21.9823125,6.532875 22.2748125,5.84475 M23.7298125,18.784125 C23.6416875,18.784125 23.5535625,18.772875 23.4654375,18.746625 C22.7210625,18.52725 18.9691875,17.33475 17.9304375,15.454125 C16.6873125,13.206 16.8279375,8.6985 18.8698125,6.25725 C20.6135625,4.17225 23.9060625,2.9235 24.0466875,2.871 C24.4179375,2.741625 24.8379375,2.84475 25.0929375,3.1485 C25.3498125,3.45225 25.3835625,3.8835 25.1829375,4.226625 C25.1679375,4.249125 23.7579375,6.656625 23.4185625,8.310375 C23.0923125,9.9135 23.1598125,12.030375 23.5966875,13.83225 L23.5966875,13.834125 C23.9735625,15.396 24.6279375,17.5785 24.6279375,17.5785 C24.7273125,17.9085 24.6373125,18.26475 24.3954375,18.5085 C24.2154375,18.6885 23.9754375,18.784125 23.7298125,18.784125" id="Fill-12" fill="#494949"></path>
                <path d="M5.625,29.7290625 C5.50125,29.7290625 5.37375,29.7046875 5.25375,29.6521875 C4.7775,29.4459375 4.56,28.8946875 4.764375,28.4203125 L5.865,25.8778125 C6.069375,25.3996875 6.620625,25.1784375 7.096875,25.3903125 C7.573125,25.5965625 7.790625,26.1478125 7.58625,26.6221875 L6.485625,29.1628125 C6.331875,29.5190625 5.986875,29.7290625 5.625,29.7290625" id="Fill-14" fill="#494949"></path>
                <path d="M8.825625,29.7290625 C8.701875,29.7290625 8.574375,29.7046875 8.454375,29.6521875 C7.978125,29.4478125 7.760625,28.8946875 7.965,28.4203125 L9.06375,25.8778125 C9.27,25.3996875 9.82125,25.1784375 10.295625,25.3903125 C10.771875,25.5946875 10.989375,26.1478125 10.785,26.6221875 L9.68625,29.1628125 C9.5325,29.5190625 9.1875,29.7290625 8.825625,29.7290625" id="Fill-16" fill="#494949"></path>
                <path d="M35.075625,29.7290625 C34.951875,29.7290625 34.824375,29.7046875 34.704375,29.6521875 C34.228125,29.4478125 34.010625,28.8946875 34.215,28.4203125 L35.31375,25.8778125 C35.518125,25.3996875 36.069375,25.1784375 36.545625,25.3903125 C37.021875,25.5946875 37.239375,26.1478125 37.035,26.6221875 L35.93625,29.1628125 C35.7825,29.5190625 35.4375,29.7290625 35.075625,29.7290625" id="Fill-18" fill="#494949"></path>
                <path d="M38.2745625,29.7290625 C38.1508125,29.7290625 38.0233125,29.7046875 37.9033125,29.6521875 C37.4270625,29.4459375 37.2095625,28.8946875 37.4139375,28.4203125 L38.5145625,25.8778125 C38.7208125,25.3996875 39.2720625,25.1784375 39.7464375,25.3903125 C40.2226875,25.5965625 40.4401875,26.1478125 40.2358125,26.6221875 L39.1351875,29.1628125 C38.9814375,29.5190625 38.6364375,29.7290625 38.2745625,29.7290625" id="Fill-20" fill="#494949"></path>
            </g>
        </g>
    </g>
</svg>