<svg width="63" height="62" viewBox="0 0 63 62" fill="none" xmlns="http://www.w3.org/2000/svg">
<g clip-path="url(#clip0)">
<rect width="61.8605" height="61.8605" transform="translate(0.186523)" fill="white"/>
<path fill-rule="evenodd" clip-rule="evenodd" d="M0.186523 61.8598H62.047V0.0012207H0.186523V61.8598Z" fill="white"/>
<path fill-rule="evenodd" clip-rule="evenodd" d="M53.744 16.203L45.4315 24.5155L37.5308 16.6147L45.8433 8.30225L53.744 16.203Z" fill="white"/>
<path fill-rule="evenodd" clip-rule="evenodd" d="M38.8979 16.6155L45.4319 23.1495L52.3777 16.2037L45.8437 9.66969L38.8979 16.6155ZM45.4318 25.4823C45.1843 25.4823 44.9369 25.3876 44.7474 25.1982L36.8467 17.2993C36.4697 16.9204 36.4697 16.3096 36.8467 15.9307L45.1592 7.62011C45.5381 7.24121 46.149 7.24121 46.5259 7.62011L54.4267 15.5209C54.8055 15.8978 54.8055 16.5087 54.4267 16.8876L46.1142 25.1982C45.9266 25.3876 45.6792 25.4823 45.4318 25.4823Z" fill="#494949"/>
<path fill-rule="evenodd" clip-rule="evenodd" d="M56.4474 17.0892C55.9138 17.6208 55.0478 17.6208 54.5143 17.0892L44.9588 7.53372C44.4252 6.99824 44.4252 6.13413 44.9588 5.60058C45.4923 5.0651 46.3583 5.0651 46.8919 5.60058L56.4474 15.1561C56.9809 15.6877 56.9809 16.5557 56.4474 17.0892Z" fill="white"/>
<path fill-rule="evenodd" clip-rule="evenodd" d="M45.9239 6.16588C45.862 6.16588 45.7422 6.18134 45.6416 6.2838C45.4851 6.43845 45.4851 6.69363 45.6416 6.85021L55.1971 16.4057C55.3518 16.5584 55.6089 16.5623 55.7636 16.4057C55.866 16.3013 55.8795 16.1834 55.8795 16.1196C55.8795 16.0597 55.866 15.9418 55.7655 15.8412L46.2061 6.2838C46.1056 6.18134 45.9857 6.16588 45.9258 6.16588H45.9239ZM55.4797 18.4526C54.8842 18.4526 54.285 18.2264 53.8326 17.7741L44.2732 8.21662C43.3666 7.30611 43.3666 5.82533 44.2732 4.91675C44.7159 4.47406 45.3017 4.23242 45.9241 4.23242H45.9261C46.5505 4.23242 47.1362 4.476 47.575 4.91675L57.1306 14.4723C57.5694 14.9092 57.813 15.4949 57.813 16.1193C57.8149 16.7437 57.5713 17.3294 57.1306 17.7721L57.1286 17.7741C56.6763 18.2264 56.077 18.4526 55.4797 18.4526Z" fill="#494949"/>
<path fill-rule="evenodd" clip-rule="evenodd" d="M14.2011 46.4215L5.32997 55.2907C4.93754 55.6832 4.93754 56.3211 5.32997 56.7155C5.72433 57.1079 6.36226 57.1079 6.75469 56.7155L15.6239 47.8443C16.0183 47.4519 16.0183 46.8139 15.6239 46.4215C15.2315 46.0271 14.5936 46.0271 14.2011 46.4215Z" fill="#494949"/>
<path fill-rule="evenodd" clip-rule="evenodd" d="M20.9691 46.786L19.6236 48.1314C18.8677 48.8873 17.6421 48.8873 16.8901 48.1314L13.915 45.1563C13.1592 44.4024 13.1592 43.1787 13.915 42.4229L15.2605 41.0774C16.0144 40.3215 17.2381 40.3215 17.994 41.0774L20.9691 44.0525C21.7249 44.8084 21.7249 46.0301 20.9691 46.786Z" fill="white"/>
<path fill-rule="evenodd" clip-rule="evenodd" d="M16.6271 41.4789C16.3796 41.4789 16.1322 41.5736 15.9428 41.7611L14.5973 43.1085C14.2203 43.4855 14.2203 44.0964 14.5973 44.4753L17.5724 47.4504C17.756 47.634 17.9977 47.7326 18.2548 47.7326H18.2567C18.5158 47.7326 18.7574 47.634 18.9391 47.4504L20.2865 46.1049C20.6635 45.726 20.6635 45.1151 20.2865 44.7382L17.3114 41.7611C17.122 41.5736 16.8745 41.4789 16.6271 41.4789ZM18.2567 49.6649H18.2547C17.4776 49.6649 16.7507 49.3634 16.2056 48.8163L13.2305 45.8412C12.0996 44.7103 12.0996 42.8719 13.2305 41.741L14.576 40.3936C15.7049 39.2646 17.5491 39.2646 18.6781 40.3936L21.6532 43.3706C22.7841 44.4996 22.7841 46.3399 21.6532 47.4708L20.3058 48.8163C19.7587 49.3634 19.0299 49.6649 18.2567 49.6649Z" fill="#494949"/>
<path fill-rule="evenodd" clip-rule="evenodd" d="M47.6215 25.6191L25.0849 48.1557C24.3291 48.9115 23.1054 48.9115 22.3515 48.1557L13.8901 39.6943C13.1343 38.9404 13.1343 37.7167 13.8901 36.9609L36.4267 14.4243C37.1825 13.6685 38.4043 13.6685 39.1601 14.4243L47.6215 22.8857C48.3773 23.6415 48.3773 24.8633 47.6215 25.6191Z" fill="#EBE3F7"/>
<path fill-rule="evenodd" clip-rule="evenodd" d="M37.7932 14.825C37.5458 14.825 37.2984 14.9197 37.1089 15.1072L14.5724 37.6457C14.1954 38.0227 14.1954 38.6336 14.5724 39.0125L23.0337 47.4738C23.4126 47.8508 24.0235 47.8508 24.4005 47.4738L46.937 24.9353C47.3159 24.5584 47.3159 23.9475 46.937 23.5686L38.4776 15.1072C38.2881 14.9197 38.0407 14.825 37.7932 14.825ZM23.718 49.6872C22.9757 49.6872 22.2314 49.405 21.6669 48.8405L13.2056 40.3792C12.0747 39.2483 12.0747 37.4099 13.2056 36.279L35.7421 13.7405C36.8711 12.6116 38.7153 12.6116 39.8442 13.7405L48.3037 22.2019C49.4346 23.3328 49.4346 25.1731 48.3037 26.3021L25.7671 48.8405C25.2027 49.405 24.4603 49.6872 23.718 49.6872Z" fill="#494949"/>
<path fill-rule="evenodd" clip-rule="evenodd" d="M52.092 27.1738C51.5256 27.7402 50.6093 27.7402 50.0448 27.1738L34.8735 12.0006C34.3071 11.4361 34.3071 10.5217 34.8735 9.95534C35.438 9.39086 36.3524 9.39086 36.9169 9.95534L52.092 25.1286C52.6565 25.693 52.6565 26.6093 52.092 27.1738Z" fill="white"/>
<path fill-rule="evenodd" clip-rule="evenodd" d="M35.8939 10.4973C35.774 10.4973 35.6503 10.5437 35.5556 10.6365C35.4647 10.7274 35.4145 10.8511 35.4145 10.9787C35.4145 11.0521 35.4338 11.1933 35.5537 11.315L50.7288 26.4883C50.8506 26.612 50.9937 26.6313 51.0671 26.6313H51.069C51.1966 26.6313 51.3184 26.5791 51.4073 26.4883C51.5949 26.3027 51.5949 25.9992 51.4073 25.8117L36.2341 10.6365C36.1394 10.5437 36.0157 10.4973 35.8939 10.4973ZM51.0692 28.5647H51.0672C50.4215 28.5647 49.8145 28.3115 49.3603 27.8553L34.189 12.684C33.7347 12.2297 33.4814 11.6246 33.4814 10.979C33.4814 10.3352 33.7328 9.72821 34.189 9.27006C35.1285 8.33249 36.6595 8.32862 37.601 9.27006L52.7742 24.4452C53.7156 25.3847 53.7156 26.9158 52.7742 27.8553C52.318 28.3134 51.7129 28.5647 51.0692 28.5647Z" fill="#494949"/>
<path fill-rule="evenodd" clip-rule="evenodd" d="M31.3971 42.8102C31.1497 42.8102 30.9023 42.7155 30.7128 42.528L27.4922 39.3074C27.1152 38.9285 27.1152 38.3176 27.4922 37.9387C27.8711 37.5618 28.482 37.5618 28.8609 37.9387L32.0815 41.1593C32.4584 41.5382 32.4584 42.1491 32.0815 42.528C31.892 42.7155 31.6446 42.8102 31.3971 42.8102Z" fill="#494949"/>
<path fill-rule="evenodd" clip-rule="evenodd" d="M36.7364 37.472C36.489 37.472 36.2415 37.3773 36.0521 37.1898L31.4551 32.5908C31.0762 32.2119 31.0762 31.6011 31.4551 31.2241C31.832 30.8452 32.4429 30.8452 32.8218 31.2241L37.4207 35.8211C37.7977 36.2 37.7977 36.8109 37.4207 37.1898C37.2313 37.3773 36.9839 37.472 36.7364 37.472Z" fill="#494949"/>
<path fill-rule="evenodd" clip-rule="evenodd" d="M41.9728 32.2355C41.7254 32.2355 41.4779 32.1408 41.2885 31.9533L38.0679 28.7327C37.6909 28.3538 37.6909 27.7429 38.0679 27.364C38.4468 26.9871 39.0576 26.9871 39.4365 27.364L42.6572 30.5846C43.0341 30.9635 43.0341 31.5744 42.6572 31.9533C42.4677 32.1408 42.2203 32.2355 41.9728 32.2355Z" fill="#494949"/>
</g>
<defs>
<clipPath id="clip0">
<rect width="61.8605" height="61.8605" fill="white" transform="translate(0.186523)"/>
</clipPath>
</defs>
</svg>
