<?xml version="1.0" encoding="UTF-8"?>
<svg width="60px" height="60px" viewBox="0 0 60 60" version="1.1" xmlns="http://www.w3.org/2000/svg" xmlns:xlink="http://www.w3.org/1999/xlink">
    <!-- Generator: Sketch 60.1 (88133) - https://sketch.com -->
    <title>치과 60*60</title>
    <desc>Created with Sketch.</desc>
    <g id="치과-60*60" stroke="none" stroke-width="1" fill="none" fill-rule="evenodd">
        <g id="Group-13">
            <polygon id="Fill-1" points="0 60 60 60 60 0.001875 0 0.001875"></polygon>
            <g id="Group-12" transform="translate(5.625000, 3.750000)">
                <path d="M31.981125,50.3889375 C31.068,50.3889375 30.7455,49.5264375 30.402375,47.7151875 C30.3255,47.3064375 30.252375,46.9408125 30.166125,46.6614375 C29.779875,45.4201875 25.988625,35.3176875 25.827375,34.8864375 C25.6905,34.5226875 25.34175,34.2808125 24.95175,34.2789375 L23.79675,34.2789375 C23.40675,34.2808125 23.059875,34.5226875 22.921125,34.8864375 C22.76175,35.3176875 18.9705,45.4201875 18.582375,46.6633125 C18.496125,46.9408125 18.424875,47.3064375 18.348,47.7133125 C18.004875,49.5264375 17.682375,50.3889375 16.76925,50.3889375 C15.638625,50.3889375 12.964875,48.7183125 11.93175,46.7383125 C11.326125,45.5776875 10.293,41.6064375 9.462375,38.4170625 C8.809875,35.9026875 8.191125,33.5308125 7.771125,32.4095625 C7.1655,30.7951875 5.7555,28.5151875 4.51425,26.5033125 C3.758625,25.2789375 3.04425,24.1239375 2.8005,23.5614375 C2.198625,22.1814375 1.8405,19.8133125 1.8405,17.2276875 C1.8405,8.4695625 6.342375,2.1114375 12.544875,2.1114375 C14.824875,2.1114375 19.2555,2.9945625 24.016125,4.9633125 C24.1305,5.0120625 24.252375,5.0364375 24.37425,5.0364375 C24.496125,5.0364375 24.618,5.0120625 24.73425,4.9633125 C29.494875,2.9945625 33.9255,2.1114375 36.203625,2.1114375 C42.408,2.1114375 46.909875,8.4695625 46.909875,17.2276875 C46.909875,19.8151875 46.55175,22.1833125 45.95175,23.5614375 C45.706125,24.1239375 44.993625,25.2770625 44.239875,26.4995625 C42.994875,28.5114375 41.584875,30.7933125 40.97925,32.4095625 C40.557375,33.5308125 39.9405,35.9026875 39.286125,38.4133125 C38.457375,41.6045625 37.42425,45.5776875 36.818625,46.7383125 C35.783625,48.7164375 33.11175,50.3889375 31.981125,50.3889375" id="Fill-2" fill="#FFFFFF"></path>
                <path d="M36.203625,1.17375 C33.5805,1.17375 28.9455,2.206875 24.37425,4.09875 C19.804875,2.206875 15.169875,1.17375 12.544875,1.17375 C6.1155,1.17375 0.903,7.3725 0.903,17.229375 C0.903,19.846875 1.26675,22.3875 1.939875,23.93625 C2.613,25.485 5.93175,30.178125 6.893625,32.739375 C7.8555,35.300625 9.972375,45.0075 11.101125,47.17125 C12.228,49.335 15.181125,51.32625 16.76925,51.32625 C19.092375,51.32625 19.09425,48.1725 19.478625,46.940625 C19.861125,45.70875 23.8005,35.21625 23.8005,35.21625 L24.37425,35.214375 L24.949875,35.21625 C24.949875,35.21625 28.88925,45.70875 29.27175,46.940625 C29.656125,48.1725 29.658,51.32625 31.981125,51.32625 C33.56925,51.32625 36.5205,49.335 37.64925,47.17125 C38.778,45.0075 40.894875,35.300625 41.85675,32.739375 C42.818625,30.178125 46.1355,25.485 46.8105,23.93625 C47.4855,22.3875 47.847375,19.846875 47.847375,17.229375 C47.847375,7.3725 42.634875,1.17375 36.203625,1.17375 M36.203625,3.04875 C41.95425,3.04875 45.972375,8.878125 45.972375,17.229375 C45.972375,19.655625 45.633,21.939375 45.091125,23.188125 C44.873625,23.68875 44.14425,24.868125 43.43925,26.008125 C42.1755,28.0575 40.73925,30.37875 40.10175,32.079375 C39.664875,33.245625 39.068625,35.53125 38.3805,38.176875 C37.60425,41.15625 36.544875,45.23625 35.988,46.303125 C35.12175,47.9625 32.738625,49.45125 31.924875,49.456875 C31.643625,49.2375 31.418625,48.04875 31.323,47.540625 C31.24425,47.128125 31.171125,46.738125 31.062375,46.38375 C30.67425,45.136875 27.109875,35.63625 26.70675,34.558125 C26.431125,33.826875 25.733625,33.343125 24.953625,33.34125 L24.3705,33.339375 L23.79675,33.34125 C23.01675,33.343125 22.31925,33.826875 22.043625,34.558125 C21.638625,35.63625 18.076125,45.136875 17.688,46.38375 C17.577375,46.738125 17.50425,47.128125 17.4255,47.540625 C17.33175,48.04875 17.10675,49.2375 16.76925,49.45125 C16.009875,49.45125 13.62675,47.9625 12.76425,46.303125 C12.207375,45.23625 11.14425,41.158125 10.369875,38.17875 C9.68175,35.53125 9.087375,33.245625 8.648625,32.079375 C8.00925,30.37875 6.574875,28.0575 5.30925,26.008125 C4.606125,24.868125 3.87675,23.68875 3.65925,23.188125 C3.1155,21.939375 2.778,19.655625 2.778,17.229375 C2.778,8.878125 6.79425,3.04875 12.544875,3.04875 C14.66175,3.04875 19.039875,3.91875 23.658,5.829375 C23.888625,5.925 24.132375,5.97375 24.37425,5.97375 C24.618,5.97375 24.86175,5.925 25.092375,5.829375 C29.708625,3.91875 34.088625,3.04875 36.203625,3.04875" id="Fill-4" fill="#494949"></path>
                <path d="M9.5589375,24.53625 C9.2101875,24.53625 8.8764375,24.34125 8.7151875,24.0075 C8.4133125,23.38875 8.0945625,22.554375 7.8170625,21.66375 C7.6633125,21.16875 7.9408125,20.64375 8.4339375,20.49 C8.9308125,20.334375 9.4539375,20.61375 9.6076875,21.106875 C9.8551875,21.9 10.1439375,22.659375 10.4008125,23.19 C10.6276875,23.655 10.4326875,24.215625 9.9676875,24.4425 C9.8345625,24.50625 9.6958125,24.53625 9.5589375,24.53625" id="Fill-6" fill="#494949"></path>
                <path d="M7.933125,18.03975 C7.415625,18.03975 6.995625,17.61975 6.995625,17.10225 C6.995625,13.54725 7.8225,11.56725 8.821875,9.525375 C9.8025,7.52475 11.158125,6.739125 11.308125,6.656625 C11.761875,6.405375 12.33375,6.574125 12.58125,7.027875 C12.82875,7.47975 12.665625,8.046 12.2175,8.29725 C12.1875,8.314125 11.22,8.8935 10.5075,10.3485 C9.73875,11.916 8.870625,13.6935 8.870625,17.10225 C8.870625,17.61975 8.450625,18.03975 7.933125,18.03975" id="Fill-8" fill="#494949"></path>
                <path d="M29.34075,9.1681875 C29.125125,9.1681875 28.907625,9.0931875 28.7295,8.9413125 C28.707,8.9225625 26.472,7.0194375 23.67075,5.7744375 C23.19825,5.5644375 22.9845,5.0113125 23.1945,4.5369375 C23.4045,4.0644375 23.957625,3.8525625 24.430125,4.0606875 C27.492,5.4200625 29.852625,7.4338125 29.952,7.5200625 C30.343875,7.8575625 30.388875,8.4481875 30.051375,8.8400625 C29.86575,9.0556875 29.605125,9.1681875 29.34075,9.1681875" id="Fill-10" fill="#494949"></path>
            </g>
        </g>
    </g>
</svg>