<?xml version="1.0" encoding="UTF-8"?>
<svg width="60px" height="60px" viewBox="0 0 60 60" version="1.1" xmlns="http://www.w3.org/2000/svg" xmlns:xlink="http://www.w3.org/1999/xlink">
    <!-- Generator: Sketch 60.1 (88133) - https://sketch.com -->
    <title>피부과 60*60</title>
    <desc>Created with Sketch.</desc>
    <defs>
        <polygon id="path-1" points="1.8305625 0.976125 20.625 0.976125 20.625 23.753625 1.8305625 23.753625"></polygon>
    </defs>
    <g id="피부과-60*60" stroke="none" stroke-width="1" fill="none" fill-rule="evenodd">
        <g id="Group-26">
            <polygon id="Fill-1" points="0 60 60 60 60 0.001875 0 0.001875"></polygon>
            <g id="Group-25" transform="translate(0.000000, 3.750000)">
                <path d="M22.5,22.5001875 C22.5,23.5351875 21.661875,24.3751875 20.625,24.3751875 C19.588125,24.3751875 18.75,23.5351875 18.75,22.5001875 C18.75,21.4633125 19.588125,20.6251875 20.625,20.6251875 C21.661875,20.6251875 22.5,21.4633125 22.5,22.5001875" id="Fill-2" fill="#494949"></path>
                <path d="M41.455125,22.5001875 C41.455125,23.5351875 40.617,24.3751875 39.580125,24.3751875 C38.545125,24.3751875 37.705125,23.5351875 37.705125,22.5001875 C37.705125,21.4633125 38.545125,20.6251875 39.580125,20.6251875 C40.617,20.6251875 41.455125,21.4633125 41.455125,22.5001875" id="Fill-4" fill="#494949"></path>
                <path d="M30,0.1100625 C17.574375,0.1100625 7.5,10.1844375 7.5,22.6100625 L7.5,29.8906875 C7.5,42.3163125 17.574375,52.3906875 30,52.3906875 C42.425625,52.3906875 52.5,42.3163125 52.5,29.8906875 L52.5,22.6100625 C52.5,10.1844375 42.425625,0.1100625 30,0.1100625 M30,1.9850625 C41.371875,1.9850625 50.625,11.2381875 50.625,22.6100625 L50.625,29.8906875 C50.625,41.2625625 41.371875,50.5156875 30,50.5156875 C18.628125,50.5156875 9.375,41.2625625 9.375,29.8906875 L9.375,22.6100625 C9.375,11.2381875 18.628125,1.9850625 30,1.9850625" id="Fill-6" fill="#494949"></path>
                <polygon id="Fill-8" fill="#FFFFFF" points="50.625 19.6711875 52.62 24.6286875 56.2725 27.3380625 52.62 30.0474375 50.625 35.0049375 48.63 30.0474375 44.9775 27.3380625 48.63 24.6286875"></polygon>
                <path d="M50.0041875,28.1653125 C50.2441875,28.3434375 50.4466875,28.5646875 50.6023125,28.8178125 C50.7579375,28.5646875 50.9641875,28.3434375 51.2060625,28.1634375 L52.3179375,27.3384375 L51.2023125,26.5096875 C50.9623125,26.3315625 50.7579375,26.1103125 50.6023125,25.8590625 C50.4466875,26.1103125 50.2423125,26.3315625 50.0004375,26.5115625 L48.8866875,27.3384375 L50.0041875,28.1653125 Z M50.6023125,37.3471875 C49.6423125,37.3471875 48.7873125,36.7715625 48.4273125,35.8771875 L46.6798125,31.5365625 L43.5579375,29.2190625 C42.9673125,28.7821875 42.6129375,28.0771875 42.6129375,27.3384375 C42.6129375,26.5978125 42.9673125,25.8928125 43.5616875,25.4540625 L46.6798125,23.1384375 L48.4291875,18.7959375 C48.7741875,17.9371875 49.6273125,17.3821875 50.6023125,17.3821875 C51.5791875,17.3821875 52.4323125,17.9371875 52.7773125,18.7959375 L54.5266875,23.1384375 L57.6466875,25.4559375 C58.2391875,25.8928125 58.5935625,26.5978125 58.5935625,27.3384375 C58.5935625,28.0771875 58.2391875,28.7821875 57.6429375,29.2209375 L54.5266875,31.5365625 L52.7773125,35.8790625 C52.4191875,36.7715625 51.5641875,37.3471875 50.6023125,37.3471875 L50.6023125,37.3471875 Z" id="Fill-10" fill="#494949"></path>
                <g id="Group-14" transform="translate(39.375000, 15.000000)">
                    <mask id="mask-2" fill="white">
                        <use xlink:href="#path-1"></use>
                    </mask>
                    <g id="Clip-13"></g>
                    <path d="M11.2280625,0.976125 C9.6755625,0.976125 8.3086875,1.876125 7.7499375,3.273 L6.1486875,7.248 L3.3455625,9.327375 C2.3986875,10.024875 1.8305625,11.153625 1.8305625,12.338625 C1.8305625,13.52175 2.3986875,14.6505 3.3511875,15.353625 L6.1486875,17.427375 L7.7499375,21.406125 C8.3218125,22.831125 9.6886875,23.753625 11.2280625,23.753625 C12.7655625,23.753625 14.1324375,22.831125 14.7061875,21.40425 L16.3074375,17.427375 L19.1086875,15.348 C20.0555625,14.6505 20.6255625,13.52175 20.6255625,12.338625 C20.6255625,11.153625 20.0555625,10.024875 19.1030625,9.32175 L16.3074375,7.248 L14.7061875,3.271125 C14.1474375,1.876125 12.7805625,0.976125 11.2280625,0.976125 M11.2280625,17.494875 L12.3549375,14.697375 C12.4186875,14.536125 12.5255625,14.397375 12.6661875,14.296125 L15.3024375,12.338625 L12.6661875,10.381125 C12.5255625,10.278 12.4186875,10.13925 12.3549375,9.978 L11.2280625,7.182375 L10.1011875,9.978 C10.0374375,10.13925 9.9305625,10.278 9.7899375,10.381125 L7.1536875,12.338625 L9.7899375,14.296125 C9.9305625,14.397375 10.0374375,14.536125 10.1011875,14.697375 L11.2280625,17.494875 M11.2280625,3.788625 C11.5899375,3.788625 11.9555625,3.96675 12.0980625,4.321125 L13.9955625,9.033 L17.4343125,11.584875 C17.6724375,11.761125 17.8130625,12.0405 17.8130625,12.338625 C17.8130625,12.634875 17.6724375,12.91425 17.4343125,13.0905 L13.9955625,15.642375 L12.0980625,20.35425 C11.9555625,20.708625 11.6105625,20.941125 11.2280625,20.941125 C10.8455625,20.941125 10.5005625,20.708625 10.3580625,20.35425 L8.4605625,15.642375 L5.0218125,13.0905 C4.7836875,12.91425 4.6430625,12.634875 4.6430625,12.338625 C4.6430625,12.0405 4.7836875,11.761125 5.0218125,11.584875 L8.4605625,9.033 L10.3580625,4.321125 C10.5005625,3.96675 10.8643125,3.788625 11.2280625,3.788625" id="Fill-12" fill="#FFFFFF" mask="url(#mask-2)"></path>
                </g>
                <polygon id="Fill-15" fill="#FFFFFF" points="11.25 27.724125 13.90125 34.30725 18.75 37.90725 13.90125 41.50725 11.25 48.086625 8.59875 41.50725 3.75 37.90725 8.59875 34.30725"></polygon>
                <path d="M9.9958125,39.6241875 C10.3445625,39.8810625 10.6145625,40.2316875 10.7758125,40.6366875 L11.2501875,41.8160625 L11.7283125,40.6310625 C11.8858125,40.2316875 12.1558125,39.8810625 12.5083125,39.6223125 L14.8183125,37.9066875 L12.5045625,36.1891875 C12.1558125,35.9323125 11.8858125,35.5816875 11.7245625,35.1766875 L11.2501875,33.9973125 L10.7720625,35.1823125 C10.6145625,35.5816875 10.3445625,35.9323125 9.9920625,36.1910625 L7.6820625,37.9066875 L9.9958125,39.6241875 Z M11.2501875,50.4316875 C10.2883125,50.4316875 9.4333125,49.8541875 9.0751875,48.9598125 L6.6714375,42.9954375 L2.3533125,39.7891875 C1.7608125,39.3504375 1.4064375,38.6473125 1.4064375,37.9066875 C1.4064375,37.1660625 1.7608125,36.4610625 2.3570625,36.0223125 L6.6714375,32.8179375 L9.0770625,26.8498125 C9.4201875,25.9910625 10.2733125,25.4360625 11.2501875,25.4360625 C12.2251875,25.4360625 13.0801875,25.9910625 13.4251875,26.8498125 L15.8289375,32.8179375 L20.1470625,36.0241875 C20.7376875,36.4610625 21.0939375,37.1660625 21.0939375,37.9066875 C21.0939375,38.6473125 20.7376875,39.3504375 20.1433125,39.7910625 L15.8289375,42.9954375 L13.4233125,48.9616875 C13.0670625,49.8541875 12.2120625,50.4316875 11.2501875,50.4316875 L11.2501875,50.4316875 Z" id="Fill-17" fill="#494949"></path>
                <path d="M10.0396875,37.9066875 L10.8346875,37.3179375 C10.9809375,37.2091875 11.1196875,37.0873125 11.2509375,36.9598125 C11.3821875,37.0891875 11.5228125,37.2129375 11.6746875,37.3235625 L12.4603125,37.9066875 L11.6653125,38.4954375 C11.5190625,38.6041875 11.3803125,38.7260625 11.2509375,38.8535625 C11.1178125,38.7241875 10.9771875,38.6004375 10.8253125,38.4898125 L10.0396875,37.9066875 Z M11.2509375,24.0298125 C9.6965625,24.0298125 8.3315625,24.9298125 7.7709375,26.3248125 L5.5153125,31.9273125 L1.5140625,34.8973125 C0.5671875,35.5948125 0.0009375,36.7216875 0.0009375,37.9066875 C0.0009375,39.0916875 0.5671875,40.2185625 1.5215625,40.9216875 L5.5153125,43.8860625 L7.7709375,49.4885625 C8.3446875,50.9135625 9.7096875,51.8379375 11.2509375,51.8379375 C12.7903125,51.8379375 14.1553125,50.9135625 14.7290625,49.4866875 L16.9846875,43.8860625 L20.9859375,40.9160625 C21.9328125,40.2185625 22.5009375,39.0916875 22.5009375,37.9066875 C22.5009375,36.7216875 21.9328125,35.5948125 20.9784375,34.8916875 L16.9846875,31.9273125 L14.7290625,26.3229375 C14.1684375,24.9298125 12.8034375,24.0298125 11.2509375,24.0298125 L11.2509375,24.0298125 Z M11.2509375,45.5791875 L13.0321875,41.1560625 C13.0959375,40.9948125 13.2028125,40.8560625 13.3434375,40.7548125 L17.1778125,37.9066875 L13.3434375,35.0585625 C13.2028125,34.9573125 13.0959375,34.8185625 13.0321875,34.6573125 L11.2509375,30.2323125 L9.4678125,34.6573125 C9.4040625,34.8185625 9.2971875,34.9573125 9.1565625,35.0585625 L5.3221875,37.9066875 L9.1565625,40.7548125 C9.2971875,40.8560625 9.4040625,40.9948125 9.4678125,41.1560625 L11.2509375,45.5791875 L11.2509375,45.5791875 Z M11.2509375,26.8423125 C11.6128125,26.8423125 11.9765625,27.0185625 12.1190625,27.3748125 L14.6728125,33.7123125 L19.3078125,37.1548125 C19.5459375,37.3291875 19.6884375,37.6104375 19.6884375,37.9066875 C19.6884375,38.2029375 19.5459375,38.4841875 19.3078125,38.6585625 L14.6728125,42.1010625 L12.1190625,48.4366875 C11.9765625,48.7929375 11.6334375,49.0254375 11.2509375,49.0254375 C10.8665625,49.0254375 10.5234375,48.7929375 10.3809375,48.4366875 L7.8271875,42.1010625 L3.1921875,38.6585625 C2.9540625,38.4841875 2.8134375,38.2029375 2.8134375,37.9066875 C2.8134375,37.6104375 2.9540625,37.3291875 3.1921875,37.1548125 L7.8271875,33.7123125 L10.3809375,27.3748125 C10.5234375,27.0185625 10.8871875,26.8423125 11.2509375,26.8423125 L11.2509375,26.8423125 Z" id="Fill-19" fill="#FFFFFF"></path>
                <path d="M30,32.8126875 C26.7675,32.8126875 23.9775,30.4070625 23.50875,27.2158125 L36.49875,27.1876875 C36.028125,30.4033125 33.23625,32.8126875 30,32.8126875" id="Fill-21" fill="#FFFFFF"></path>
                <path d="M36.498375,26.2501875 L23.512125,26.2501875 C22.930875,26.2501875 22.495875,26.7751875 22.58025,27.3526875 C23.11275,30.9733125 26.230875,33.7501875 29.999625,33.7501875 C33.772125,33.7501875 36.892125,30.9676875 37.420875,27.3414375 C37.503375,26.7695625 37.075875,26.2501875 36.498375,26.2501875 M35.304,28.1251875 C34.522125,30.3226875 32.403375,31.8751875 29.999625,31.8751875 C27.595875,31.8751875 25.477125,30.3226875 24.69525,28.1251875 L35.304,28.1251875" id="Fill-23" fill="#494949"></path>
            </g>
        </g>
    </g>
</svg>