<?xml version="1.0" encoding="UTF-8"?>
<svg width="60px" height="60px" viewBox="0 0 60 60" version="1.1" xmlns="http://www.w3.org/2000/svg" xmlns:xlink="http://www.w3.org/1999/xlink">
    <!-- Generator: Sketch 60.1 (88133) - https://sketch.com -->
    <title>이비인후과 60*60</title>
    <desc>Created with Sketch.</desc>
    <g id="이비인후과-60*60" stroke="none" stroke-width="1" fill="none" fill-rule="evenodd">
        <g id="Group-11">
            <polygon id="Fill-1" points="0 60 60 60 60 0.001875 0 0.001875"></polygon>
            <g id="Group-10" transform="translate(11.250000, 3.750000)" fill="#494949">
                <path d="M10.4023125,51.3703147 C7.5541875,51.3721875 5.0923125,50.1909375 3.5229375,48.0384375 C1.5710625,45.3590625 1.3366875,41.6878125 2.8948125,38.2171875 C3.1066875,37.7446875 3.6635625,37.5309375 4.1341875,37.7465625 C4.6066875,37.9603125 4.8166875,38.5153125 4.6048125,38.9878125 C3.3260625,41.8340625 3.4873125,44.8040625 5.0379375,46.9321875 C6.4141875,48.8240625 8.7316875,49.7371875 11.3829375,49.4409375 C17.0698125,48.8071875 18.2135625,47.9109375 21.5210625,43.6246875 C22.6104375,42.2109375 24.2998125,40.8009375 26.2554375,39.1678125 C32.3885625,34.0490625 40.0198125,27.6778125 36.5998125,15.9403125 C33.7760625,6.2371875 28.1960625,1.7634375 19.5316875,2.2546875 C15.0841875,2.5078125 10.9985625,4.4784375 8.0341875,7.8046875 C5.0679375,11.1290625 3.5735625,15.4096875 3.8285625,19.8571875 C3.8416875,20.0653125 3.8679375,20.2696875 3.8923125,20.4740625 L3.9316875,20.7853125 C3.9354375,20.9896875 3.9298125,21.0796875 3.9223125,21.1696875 C3.9504375,21.6853125 3.5491875,22.2084375 3.0316875,22.2365625 C2.5310625,22.2946875 2.0679375,21.9515625 2.0416875,21.4321875 C2.0341875,21.2896875 2.0416875,21.1528125 2.0529375,21.0178125 L2.0323125,20.7065625 C2.0041875,20.4628125 1.9723125,20.2190625 1.9573125,19.9678125 C1.6741875,15.0159375 3.3354375,10.2534375 6.6354375,6.5559375 C9.9335625,2.8584375 14.4766875,0.6646875 19.4248125,0.3834375 C28.9929375,-0.1978125 35.3379375,4.8984375 38.4016875,15.4153125 C42.1629375,28.3321875 33.6635625,35.4271875 27.4591875,40.6078125 C25.5860625,42.1696875 23.9679375,43.5196875 23.0041875,44.7703125 C19.4623125,49.3621875 17.8779375,50.6034375 11.5929375,51.3046875 C11.1898125,51.3478125 10.7923125,51.3703147 10.4023125,51.3703147" id="Fill-2"></path>
                <path d="M30,31.752375 C29.829375,31.752375 29.656875,31.707375 29.50125,31.609875 C29.064375,31.33425 28.93125,30.75675 29.205,30.316125 L30.14625,28.82925 C32.25375,25.512375 33.91875,22.891125 34.044375,20.243625 C34.336875,14.15925 28.16625,6.92925 21.590625,5.641125 C18.665625,5.08425 13.760625,6.86925 10.5975,10.863 C7.98375,14.1705 7.100625,16.313625 8.401875,21.019875 C8.810625,22.4955 11.69625,25.31175 15,25.31175 C15.5175,25.31175 15.9375,25.73175 15.9375,26.24925 C15.9375,26.768625 15.5175,27.18675 15,27.18675 C10.82625,27.18675 7.23375,23.8305 6.598125,21.5205 C5.094375,16.0905 6.215625,13.383 9.1275,9.698625 C12.414375,5.54925 17.930625,3.01425 21.94875,3.803625 C29.4675,5.27175 36.255,13.30425 35.915625,20.333625 C35.765625,23.478 33.984375,26.283 31.72875,29.836125 L30.795,31.313625 C30.616875,31.59675 30.31125,31.752375 30,31.752375" id="Fill-4"></path>
                <path d="M14.9139375,41.1915 C14.0158125,41.1915 13.0033125,40.855875 11.8520625,40.184625 C11.4058125,39.924 11.2539375,39.35025 11.5164375,38.902125 C11.7751875,38.454 12.3526875,38.30025 12.7970625,38.5665 C13.9576875,39.243375 14.8445625,39.4665 15.4351875,39.219 C16.4251875,38.812125 16.9220625,36.95025 17.3645625,35.30775 C17.8276875,33.584625 18.2626875,31.957125 19.3389375,31.132125 C21.1745625,29.724 22.4308125,29.63775 23.2614375,29.579625 C23.8239375,29.54025 23.8239375,29.54025 23.9758125,29.230875 C24.4839375,28.192125 25.0689375,24.378375 21.7164375,19.26525 C20.4639375,17.35275 19.0426875,16.299 17.4958125,16.13025 C15.0808125,15.879 12.9995625,17.8365 12.9808125,17.85525 C12.6095625,18.220875 12.0151875,18.209625 11.6551875,17.84025 C11.2914375,17.469 11.2989375,16.874625 11.6701875,16.514625 C11.7789375,16.405875 14.3664375,13.915875 17.6983125,14.2665 C19.8301875,14.499 21.7089375,15.834 23.2839375,18.235875 C26.9739375,23.86275 26.5145625,28.314 25.6595625,30.055875 C25.0314375,31.334625 24.1220625,31.398375 23.3908125,31.450875 C22.7120625,31.495875 21.8683125,31.554 20.4826875,32.619 C19.9089375,33.05775 19.5189375,34.510875 19.1739375,35.793375 C18.6226875,37.855875 17.9964375,40.194 16.1476875,40.953375 C15.7633125,41.110875 15.3508125,41.1915 14.9139375,41.1915" id="Fill-6"></path>
                <path d="M8.313,38.9026875 C8.119875,38.9026875 7.92675,38.8445625 7.758,38.7208125 C7.339875,38.4151875 7.25175,37.8283125 7.557375,37.4101875 C8.892375,35.5914375 8.913,34.4476875 8.937375,33.2383125 C8.958,32.2914375 8.97675,31.3126875 9.62925,30.2026875 C10.17675,29.2726875 10.838625,28.7533125 11.59425,28.6576875 C12.803625,28.5320625 13.713,29.4470625 14.389875,30.1314375 C14.592375,30.3358125 14.89425,30.6414375 15.01425,30.7014375 C15.507375,30.8626875 15.762375,31.3876875 15.601125,31.8789375 C15.438,32.3720625 14.888625,32.6270625 14.404875,32.4733125 C13.909875,32.3101875 13.516125,31.9126875 13.058625,31.4533125 C12.747375,31.1364375 12.091125,30.4576875 11.82675,30.5195625 C11.74425,30.5289375 11.528625,30.6751875 11.243625,31.1551875 C10.842375,31.8414375 10.82925,32.4433125 10.812375,33.2739375 C10.786125,34.5864375 10.75425,36.2214375 9.068625,38.5201875 C8.88675,38.7714375 8.599875,38.9026875 8.313,38.9026875" id="Fill-8"></path>
            </g>
        </g>
    </g>
</svg>