<svg width="80" height="60" viewBox="0 0 80 60" fill="none" xmlns="http://www.w3.org/2000/svg">
<rect width="80" height="60" fill="white"/>
<path fill-rule="evenodd" clip-rule="evenodd" d="M0 60H80V0H0V60Z" fill="white"/>
<path d="M19.2002 23.3994C19.2002 21.7426 20.5433 20.3994 22.2002 20.3994H61.0002C62.6571 20.3994 64.0002 21.7426 64.0002 23.3994V50.9994C64.0002 52.6563 62.6571 53.9994 61.0002 53.9994H22.2002C20.5433 53.9994 19.2002 52.6563 19.2002 50.9994V23.3994Z" fill="#EBE3F7"/>
<path fill-rule="evenodd" clip-rule="evenodd" d="M61 18.9997H19C18.3373 18.9997 17.8 19.537 17.8 20.1997V50.9997C17.8 51.6625 18.3373 52.1997 19 52.1997H61C61.6627 52.1997 62.2 51.6625 62.2 50.9997V20.1997C62.2 19.537 61.6627 18.9997 61 18.9997ZM19 17.1997C17.3431 17.1997 16 18.5429 16 20.1997V50.9997C16 52.6566 17.3431 53.9997 19 53.9997H61C62.6569 53.9997 64 52.6566 64 50.9997V20.1997C64 18.5429 62.6569 17.1997 61 17.1997H19Z" fill="#494949"/>
<path fill-rule="evenodd" clip-rule="evenodd" d="M62.4001 36.5998L17.6001 36.5998V34.7998L62.4001 34.7998V36.5998Z" fill="#494949"/>
<path fill-rule="evenodd" clip-rule="evenodd" d="M39.16 53.9997L39.16 17.1997L40.96 17.1997L40.96 53.9997L39.16 53.9997Z" fill="#494949"/>
<path fill-rule="evenodd" clip-rule="evenodd" d="M51.4681 7.89773C50.6681 8.09736 49.6613 8.64658 48.5411 9.85411C45.9697 12.6259 43.7831 15.1467 42.24 16.974C42.2326 16.9827 42.2253 16.9913 42.218 17H49.8161C51.6694 17 53.1878 16.5901 54.1963 15.8463C55.1205 15.1645 55.7999 14.0733 55.7999 12.1896C55.7999 10.374 54.8044 8.75882 53.5411 8.1167C52.9417 7.81207 52.25 7.70261 51.4681 7.89773ZM49.8161 18.8C53.9675 18.8 57.5999 16.9897 57.5999 12.1896C57.5999 7.38945 52.4107 3.03628 47.2215 8.62992C44.0117 12.0899 41.3975 15.1608 39.8702 17C38.9284 18.1342 38.3999 18.8 38.3999 18.8H49.8161Z" fill="#494949"/>
<path fill-rule="evenodd" clip-rule="evenodd" d="M28.5319 7.89773C29.3319 8.09736 30.3387 8.64658 31.4589 9.85411C34.0303 12.6259 36.2169 15.1467 37.76 16.974C37.7674 16.9827 37.7747 16.9913 37.782 17H30.1839C28.3306 17 26.8122 16.5901 25.8037 15.8463C24.8795 15.1645 24.2001 14.0733 24.2001 12.1896C24.2001 10.374 25.1957 8.75882 26.4589 8.1167C27.0583 7.81207 27.75 7.70261 28.5319 7.89773ZM30.1839 18.8C26.0325 18.8 22.4001 16.9897 22.4001 12.1896C22.4001 7.38945 27.5893 3.03628 32.7785 8.62992C35.9883 12.0899 38.6025 15.1608 40.1298 17C41.0716 18.1342 41.6001 18.8 41.6001 18.8H30.1839Z" fill="#494949"/>
<path fill-rule="evenodd" clip-rule="evenodd" d="M69.5874 9.76284H70.4127V5H69.5874V9.76284Z" fill="#9470BE"/>
<path fill-rule="evenodd" clip-rule="evenodd" d="M69.5874 16.9999H70.4127V12.2378H69.5874V16.9999Z" fill="#9470BE"/>
<path fill-rule="evenodd" clip-rule="evenodd" d="M64 11.4127H68.7621V10.5874H64V11.4127Z" fill="#9470BE"/>
<path fill-rule="evenodd" clip-rule="evenodd" d="M71.2373 11.4136H76.0001V10.5884H71.2373V11.4136Z" fill="#9470BE"/>
<path fill-rule="evenodd" clip-rule="evenodd" d="M4.65572 25.9689H5.34366V22H4.65572V25.9689Z" fill="#9470BE"/>
<path fill-rule="evenodd" clip-rule="evenodd" d="M4.65572 31.9999H5.34366V28.031H4.65572V31.9999Z" fill="#9470BE"/>
<path fill-rule="evenodd" clip-rule="evenodd" d="M0 27.3424H3.96808V26.6545H0V27.3424Z" fill="#9470BE"/>
<path fill-rule="evenodd" clip-rule="evenodd" d="M6.03125 27.3444H10.0002V26.6565H6.03125V27.3444Z" fill="#9470BE"/>
</svg>
