<?xml version="1.0" encoding="UTF-8"?>
<svg width="60px" height="60px" viewBox="0 0 60 60" version="1.1" xmlns="http://www.w3.org/2000/svg" xmlns:xlink="http://www.w3.org/1999/xlink">
    <!-- Generator: Sketch 60.1 (88133) - https://sketch.com -->
    <title>안과 60*60</title>
    <desc>Created with Sketch.</desc>
    <g id="안과-60*60" stroke="none" stroke-width="1" fill="none" fill-rule="evenodd">
        <g id="Group-25">
            <polygon id="Fill-1" points="0 60 60 60 60 0.001875 0 0.001875"></polygon>
            <g id="Group-24" transform="translate(3.750000, 7.500000)" fill="#494949">
                <path d="M26.25,7.599 C10.438125,7.599 2.626875,18.19275 0.568125,21.517125 C0.19125,22.124625 0.19125,22.874625 0.568125,23.484 C2.626875,26.804625 10.438125,37.40025 26.25,37.40025 C42.061875,37.40025 49.873125,26.804625 51.931875,23.484 C52.30875,22.874625 52.30875,22.124625 51.931875,21.517125 C49.873125,18.19275 42.061875,7.599 26.25,7.599 M26.25,9.474 C41.101875,9.474 48.4425,19.447125 50.34,22.494 C48.4425,25.552125 41.101875,35.52525 26.25,35.52525 C11.398125,35.52525 4.0575,25.552125 2.16,22.503375 C4.0575,19.447125 11.398125,9.474 26.25,9.474" id="Fill-2"></path>
                <path d="M26.25,0.798375 L26.25,0.798375 C25.7325,0.798375 25.3125,1.218375 25.3125,1.735875 L25.3125,8.01525 C25.3125,8.530875 25.7325,8.95275 26.25,8.95275 C26.7675,8.95275 27.1875,8.530875 27.1875,8.01525 L27.1875,1.735875 C27.1875,1.218375 26.7675,0.798375 26.25,0.798375" id="Fill-4"></path>
                <path d="M48.519375,10.6258125 L48.519375,10.6258125 C48.11625,10.2995625 47.525625,10.3614375 47.199375,10.7626875 L44.83125,13.6858125 C44.505,14.0889375 44.56875,14.6776875 44.97,15.0039375 C45.37125,15.3301875 45.96375,15.2683125 46.29,14.8670625 L48.65625,11.9439375 C48.9825,11.5408125 48.920625,10.9520625 48.519375,10.6258125" id="Fill-6"></path>
                <path d="M3.9478125,10.6183125 L3.9478125,10.6183125 C4.3490625,10.2920625 4.9396875,10.3539375 5.2659375,10.7570625 L7.6340625,13.6783125 C7.9603125,14.0814375 7.8965625,14.6720625 7.4971875,14.9983125 C7.0940625,15.3245625 6.5015625,15.2626875 6.1753125,14.8595625 L3.8090625,11.9383125 C3.4828125,11.5351875 3.5446875,10.9464375 3.9478125,10.6183125" id="Fill-8"></path>
                <path d="M26.25,43.1251875 L26.25,43.1251875 C25.7325,43.1251875 25.3125,42.7051875 25.3125,42.1876875 L25.3125,37.1626875 C25.3125,36.6451875 25.7325,36.2251875 26.25,36.2251875 C26.7675,36.2251875 27.1875,36.6451875 27.1875,37.1626875 L27.1875,42.1876875 C27.1875,42.7051875 26.7675,43.1251875 26.25,43.1251875" id="Fill-10"></path>
                <path d="M38.7890625,40.2594375 L38.7890625,40.2594375 C38.3203125,40.4806875 37.7615625,40.2819375 37.5384375,39.8150625 L35.7684375,36.0838125 C35.5453125,35.6150625 35.7440625,35.0581875 36.2109375,34.8350625 C36.6796875,34.6119375 37.2384375,34.8125625 37.4615625,35.2794375 L39.2315625,39.0106875 C39.4546875,39.4775625 39.2559375,40.0363125 38.7890625,40.2594375" id="Fill-12"></path>
                <path d="M13.7109375,40.2594375 L13.7109375,40.2594375 C14.1796875,40.4806875 14.7384375,40.2819375 14.9615625,39.8150625 L16.7315625,36.0838125 C16.9546875,35.6150625 16.7559375,35.0581875 16.2890625,34.8350625 C15.8203125,34.6119375 15.2615625,34.8125625 15.0384375,35.2794375 L13.2684375,39.0106875 C13.0453125,39.4775625 13.2440625,40.0363125 13.7109375,40.2594375" id="Fill-14"></path>
                <path d="M39.1333125,4.0614375 L39.1333125,4.0614375 C38.6664375,3.8401875 38.1058125,4.0370625 37.8845625,4.5058125 L35.7676875,8.9626875 C35.5445625,9.4295625 35.7433125,9.9901875 36.2101875,10.2114375 C36.6789375,10.4326875 37.2376875,10.2358125 37.4608125,9.7670625 L39.5776875,5.3101875 C39.7989375,4.8433125 39.6020625,4.2826875 39.1333125,4.0614375" id="Fill-16"></path>
                <path d="M13.36125,4.050375 L13.36125,4.050375 C13.83,3.829125 14.38875,4.027875 14.61,4.49475 L16.7325,8.962875 C16.955625,9.42975 16.756875,9.990375 16.29,10.211625 C15.82125,10.432875 15.2625,10.236 15.039375,9.76725 L12.916875,5.301 C12.695625,4.83225 12.894375,4.2735 13.36125,4.050375" id="Fill-18"></path>
                <path d="M26.25,11.175 C20.038125,11.175 15,16.213125 15,22.425 C15,28.636875 20.038125,33.675 26.25,33.675 C32.461875,33.675 37.5,28.636875 37.5,22.425 C37.5,16.213125 32.461875,11.175 26.25,11.175 M26.25,13.05 C31.419375,13.05 35.625,17.255625 35.625,22.425 C35.625,27.594375 31.419375,31.8 26.25,31.8 C21.080625,31.8 16.875,27.594375 16.875,22.425 C16.875,17.255625 21.080625,13.05 26.25,13.05" id="Fill-20"></path>
                <path d="M24.0271875,15.8570625 C22.4278125,15.8570625 21.1340625,17.1508125 21.1340625,18.7501875 C21.1340625,20.3476875 22.4278125,21.6433125 24.0271875,21.6433125 C25.6246875,21.6433125 26.9184375,20.3476875 26.9184375,18.7501875 C26.9184375,17.1508125 25.6246875,15.8570625 24.0271875,15.8570625 M24.0271875,17.7320625 C24.5878125,17.7320625 25.0434375,18.1876875 25.0434375,18.7501875 C25.0434375,19.3108125 24.5878125,19.7683125 24.0271875,19.7683125 C23.4646875,19.7683125 23.0090625,19.3108125 23.0090625,18.7501875 C23.0090625,18.1876875 23.4646875,17.7320625 24.0271875,17.7320625" id="Fill-22"></path>
            </g>
        </g>
    </g>
</svg>