<?xml version="1.0" encoding="UTF-8"?>
<svg width="60px" height="60px" viewBox="0 0 60 60" version="1.1" xmlns="http://www.w3.org/2000/svg" xmlns:xlink="http://www.w3.org/1999/xlink">
    <!-- Generator: Sketch 60.1 (88133) - https://sketch.com -->
    <title>한의원 60*60</title>
    <desc>Created with Sketch.</desc>
    <g id="한의원-60*60" stroke="none" stroke-width="1" fill="none" fill-rule="evenodd">
        <g id="Group-19">
            <polygon id="Fill-1" points="0 60 60 60 60 0.001875 0 0.001875"></polygon>
            <g id="Group-18" transform="translate(3.750000, 5.625000)">
                <path d="M42.7861875,1.0876875 C41.1061875,1.0876875 39.4280625,1.7289375 38.1455625,3.0095625 L22.7724375,18.3845625 C20.2093125,20.9476875 20.2093125,25.1026875 22.7724375,27.6658125 C24.0530625,28.9464375 25.7330625,29.5876875 27.4130625,29.5876875 C29.0911875,29.5876875 30.7711875,28.9464375 32.0518125,27.6658125 L47.4286875,12.2908125 C49.9899375,9.7276875 49.9899375,5.5745625 47.4286875,3.0095625 C46.1461875,1.7289375 44.4661875,1.0876875 42.7861875,1.0876875 M42.7861875,2.9626875 C44.0386875,2.9626875 45.2161875,3.4501875 46.1030625,4.3351875 C46.9861875,5.2220625 47.4736875,6.3976875 47.4736875,7.6501875 C47.4736875,8.9026875 46.9861875,10.0801875 46.1030625,10.9651875 L30.7261875,26.3401875 C29.8430625,27.2233125 28.6655625,27.7126875 27.4130625,27.7126875 C26.1605625,27.7126875 24.9830625,27.2233125 24.0980625,26.3401875 C22.2718125,24.5120625 22.2718125,21.5383125 24.0980625,19.7120625 L39.4711875,4.3351875 C40.3580625,3.4501875 41.5355625,2.9626875 42.7861875,2.9626875" id="Fill-2" fill="#494949"></path>
                <path d="M36.5625,43.1251875 L15.9375,43.1251875 C15.42,43.1251875 15,43.5451875 15,44.0626875 L15,49.6876875 C15,50.2051875 15.42,50.6251875 15.9375,50.6251875 L36.5625,50.6251875 C37.08,50.6251875 37.5,50.2051875 37.5,49.6876875 L37.5,44.0626875 C37.5,43.5451875 37.08,43.1251875 36.5625,43.1251875 L36.5625,43.1251875 Z M16.875,48.7501875 L35.625,48.7501875 L35.625,45.0001875 L16.875,45.0001875 L16.875,48.7501875 Z" id="Fill-4" fill="#494949"></path>
                <path d="M16.875,44.0626875 C8.086875,44.0626875 0.9375,36.9133125 0.9375,28.1251875 L0.9375,17.8126875 L51.5625,17.8126875 L51.5625,28.1251875 C51.5625,36.9133125 44.413125,44.0626875 35.625,44.0626875 L16.875,44.0626875 Z" id="Fill-6" fill="#FFFFFF"></path>
                <path d="M52.5,16.8751875 L0,16.8751875 L0,28.1251875 C0,37.4458125 7.554375,45.0001875 16.875,45.0001875 L35.625,45.0001875 C44.945625,45.0001875 52.5,37.4458125 52.5,28.1251875 L52.5,16.8751875 Z M50.625,18.7501875 L50.625,28.1251875 C50.625,36.3958125 43.895625,43.1251875 35.625,43.1251875 L16.875,43.1251875 C8.604375,43.1251875 1.875,36.3958125 1.875,28.1251875 L1.875,18.7501875 L50.625,18.7501875 L50.625,18.7501875 Z" id="Fill-8" fill="#494949"></path>
                <path d="M6.35925,22.2255 L6.35925,28.088625 C6.35925,29.41425 6.58425,30.68925 6.994875,31.87425 C7.178625,32.404875 7.399875,32.91675 7.653,33.408" id="Fill-10" fill="#FFFFFF"></path>
                <path d="M7.65375,34.345125 C7.314375,34.345125 6.99,34.1595 6.82125,33.838875 C6.54375,33.302625 6.30375,32.74575 6.10875,32.181375 C5.653125,30.86325 5.4225,29.485125 5.4225,28.08825 L5.4225,22.225125 C5.4225,21.707625 5.840625,21.287625 6.36,21.287625 C6.8775,21.287625 7.2975,21.707625 7.2975,22.225125 L7.2975,28.08825 C7.2975,29.277 7.4925,30.448875 7.880625,31.570125 C8.049375,32.053875 8.251875,32.5245 8.48625,32.976375 C8.724375,33.43575 8.54625,34.000125 8.085,34.240125 C7.94625,34.311375 7.8,34.345125 7.65375,34.345125" id="Fill-12" fill="#494949"></path>
                <path d="M10.3636875,36.8371875 C10.0130625,36.5334375 9.6811875,36.2109375 9.3699375,35.8678125" id="Fill-14" fill="#FFFFFF"></path>
                <path d="M10.3636875,37.7746875 C10.1461875,37.7746875 9.9268125,37.6996875 9.7486875,37.5440625 C9.3718125,37.2159375 9.0118125,36.8690625 8.6761875,36.4978125 C8.3274375,36.1153125 8.3555625,35.5228125 8.7399375,35.1740625 C9.1243125,34.8290625 9.7149375,34.8534375 10.0636875,35.2378125 C10.3486875,35.5528125 10.6561875,35.8509375 10.9786875,36.1303125 C11.3686875,36.4696875 11.4118125,37.0603125 11.0705625,37.4521875 C10.8849375,37.6640625 10.6261875,37.7746875 10.3636875,37.7746875" id="Fill-16" fill="#494949"></path>
            </g>
        </g>
    </g>
</svg>