<?xml version="1.0" encoding="UTF-8"?>
<svg width="60px" height="60px" viewBox="0 0 60 60" version="1.1" xmlns="http://www.w3.org/2000/svg" xmlns:xlink="http://www.w3.org/1999/xlink">
    <!-- Generator: Sketch 60.1 (88133) - https://sketch.com -->
    <title>가정의학과 60*60</title>
    <desc>Created with Sketch.</desc>
    <g id="가정의학과-60*60" stroke="none" stroke-width="1" fill="none" fill-rule="evenodd">
        <g id="Group-4">
            <polygon id="Fill-1" points="0 60 60 60 60 0.001875 0 0.001875"></polygon>
            <path d="M36.0260625,5.6251875 L23.9735625,5.6251875 C23.4560625,5.6251875 23.0360625,6.0451875 23.0360625,6.5626875 L23.0360625,23.0345625 L6.5623125,23.0345625 C6.0448125,23.0345625 5.6248125,23.4564375 5.6248125,23.9720625 L5.6248125,36.0264375 C5.6248125,36.5439375 6.0448125,36.9639375 6.5623125,36.9639375 L23.0360625,36.9639375 L23.0360625,53.4376875 C23.0360625,53.9551875 23.4560625,54.3751875 23.9735625,54.3751875 L36.0260625,54.3751875 C36.5435625,54.3751875 36.9635625,53.9551875 36.9635625,53.4376875 L36.9635625,36.9639375 L53.4373125,36.9639375 C53.9566875,36.9639375 54.3748125,36.5439375 54.3748125,36.0264375 L54.3748125,23.9720625 C54.3748125,23.4564375 53.9566875,23.0345625 53.4373125,23.0345625 L36.9635625,23.0345625 L36.9635625,6.5626875 C36.9635625,6.0451875 36.5435625,5.6251875 36.0260625,5.6251875 M35.0885625,7.5001875 L35.0885625,23.0345625 L35.0885625,24.9095625 L36.9635625,24.9095625 L52.4998125,24.9095625 L52.4998125,35.0889375 L36.9635625,35.0889375 L35.0885625,35.0889375 L35.0885625,36.9639375 L35.0885625,52.5001875 L24.9110625,52.5001875 L24.9110625,36.9639375 L24.9110625,35.0889375 L23.0360625,35.0889375 L7.4998125,35.0889375 L7.4998125,24.9095625 L23.0360625,24.9095625 L24.9110625,24.9095625 L24.9110625,23.0345625 L24.9110625,7.5001875 L35.0885625,7.5001875" id="Fill-2" fill="#494949"></path>
        </g>
    </g>
</svg>