<?xml version="1.0" encoding="UTF-8"?>
<svg width="60px" height="60px" viewBox="0 0 60 60" version="1.1" xmlns="http://www.w3.org/2000/svg" xmlns:xlink="http://www.w3.org/1999/xlink">
    <!-- Generator: Sketch 60.1 (88133) - https://sketch.com -->
    <title>내과 60*60</title>
    <desc>Created with Sketch.</desc>
    <g id="내과-60*60" stroke="none" stroke-width="1" fill="none" fill-rule="evenodd">
        <g id="Group-25">
            <polygon id="Fill-1" points="0 60 60 60 60 0.001875 0 0.001875"></polygon>
            <g id="Group-24" transform="translate(1.875000, 5.625000)">
                <path d="M35.625,16.880625 L35.625,42.189375 C35.625,43.741875 34.366875,45 32.814375,45 L18.748125,45 C17.195625,45 15.9375,43.741875 15.9375,42.189375 L15.9375,33.75 L14.0625,33.75 L14.0625,43.119375 C14.0625,45.195 15.7425,46.875 17.818125,46.875 L33.744375,46.875 C35.82,46.875 37.5,45.195 37.5,43.119375 L37.5,17.810625 C37.5,16.258125 38.758125,15 40.310625,15 L44.064375,15 C45.616875,15 46.875,16.258125 46.875,17.810625 L46.875,28.6575 L48.75,28.6575 L48.75,16.880625 C48.75,14.806875 47.07,13.125 44.994375,13.125 L39.380625,13.125 C37.305,13.125 35.625,14.806875 35.625,16.880625" id="Fill-2" fill="#494949"></path>
                <path d="M47.8344375,37.4780625 C44.7463125,37.4780625 42.2319375,34.9636875 42.2319375,31.8755625 C42.2319375,28.7855625 44.7463125,26.2711875 47.8344375,26.2711875 C50.9225625,26.2711875 53.4369375,28.7855625 53.4369375,31.8755625 C53.4369375,34.9636875 50.9225625,37.4780625 47.8344375,37.4780625" id="Fill-4" fill="#FFFFFF"></path>
                <path d="M47.8344375,25.334625 C44.2213125,25.334625 41.2944375,28.263375 41.2944375,31.874625 C41.2944375,35.48775 44.2213125,38.4165 47.8344375,38.4165 C51.4475625,38.4165 54.3744375,35.48775 54.3744375,31.874625 C54.3744375,28.263375 51.4475625,25.334625 47.8344375,25.334625 M47.8344375,27.209625 C50.4069375,27.209625 52.4994375,29.302125 52.4994375,31.874625 C52.4994375,34.447125 50.4069375,36.5415 47.8344375,36.5415 C45.2619375,36.5415 43.1694375,34.447125 43.1694375,31.874625 C43.1694375,29.302125 45.2619375,27.209625 47.8344375,27.209625" id="Fill-6" fill="#494949"></path>
                <path d="M20.625,1.8751875 L20.625,3.7501875 L25.30875,3.7501875 C25.828125,3.7501875 26.25,4.1720625 26.25,4.6914375 L26.25,20.5764375 C26.25,26.6683125 21.335625,33.7501875 15,33.7501875 C8.664375,33.7501875 3.75,26.6683125 3.75,20.5764375 L3.75,4.6914375 C3.75,4.1720625 4.171875,3.7501875 4.69125,3.7501875 L9.375,3.7501875 L9.375,1.8751875 L3.75375,1.8751875 C2.715,1.8751875 1.875,2.7151875 1.875,3.7539375 L1.875,20.5764375 C1.875,27.8495625 7.75125,35.6251875 15,35.6251875 C22.24875,35.6251875 28.125,27.8495625 28.125,20.5764375 L28.125,3.7539375 C28.125,2.7151875 27.285,1.8751875 26.24625,1.8751875 L20.625,1.8751875 Z" id="Fill-8" fill="#494949"></path>
                <path d="M8.4375,4.6876875 C7.4025,4.6876875 6.5625,3.8476875 6.5625,2.8126875 C6.5625,1.7776875 7.4025,0.9376875 8.4375,0.9376875 C9.4725,0.9376875 10.3125,1.7776875 10.3125,2.8126875 C10.3125,3.8476875 9.4725,4.6876875 8.4375,4.6876875" id="Fill-10" fill="#FFFFFF"></path>
                <path d="M8.4375,0.0001875 C6.885,0.0001875 5.625,1.2601875 5.625,2.8126875 C5.625,4.3651875 6.885,5.6251875 8.4375,5.6251875 C9.99,5.6251875 11.25,4.3651875 11.25,2.8126875 C11.25,1.2601875 9.99,0.0001875 8.4375,0.0001875 M8.4375,1.8751875 C8.953125,1.8751875 9.375,2.2970625 9.375,2.8126875 C9.375,3.3283125 8.953125,3.7501875 8.4375,3.7501875 C7.921875,3.7501875 7.5,3.3283125 7.5,2.8126875 C7.5,2.2970625 7.921875,1.8751875 8.4375,1.8751875" id="Fill-12" fill="#494949"></path>
                <path d="M21.5625,4.6876875 C20.5275,4.6876875 19.6875,3.8476875 19.6875,2.8126875 C19.6875,1.7776875 20.5275,0.9376875 21.5625,0.9376875 C22.5975,0.9376875 23.4375,1.7776875 23.4375,2.8126875 C23.4375,3.8476875 22.5975,4.6876875 21.5625,4.6876875" id="Fill-14" fill="#FFFFFF"></path>
                <path d="M21.5625,0.0001875 C20.01,0.0001875 18.75,1.2601875 18.75,2.8126875 C18.75,4.3651875 20.01,5.6251875 21.5625,5.6251875 C23.115,5.6251875 24.375,4.3651875 24.375,2.8126875 C24.375,1.2601875 23.115,0.0001875 21.5625,0.0001875 M21.5625,1.8751875 C22.078125,1.8751875 22.5,2.2970625 22.5,2.8126875 C22.5,3.3283125 22.078125,3.7501875 21.5625,3.7501875 C21.046875,3.7501875 20.625,3.3283125 20.625,2.8126875 C20.625,2.2970625 21.046875,1.8751875 21.5625,1.8751875" id="Fill-16" fill="#494949"></path>
                <path d="M15,36.5626875 C8.2125,36.5626875 3.065625,30.5533125 1.48875,24.6151875 C1.41375,24.3358125 1.47375,24.0339375 1.651875,23.8033125 C1.83,23.5726875 2.10375,23.4376875 2.394375,23.4376875 L4.348125,23.4376875 C4.7625,23.4376875 5.12625,23.7095625 5.24625,24.1014375 C6.55875,28.4308125 10.33125,32.8126875 15,32.8126875 C19.66875,32.8126875 23.44125,28.4308125 24.75375,24.1014375 C24.87375,23.7095625 25.2375,23.4376875 25.651875,23.4376875 L27.605625,23.4376875 C27.89625,23.4376875 28.17,23.5726875 28.348125,23.8033125 C28.52625,24.0339375 28.58625,24.3358125 28.51125,24.6151875 C26.934375,30.5533125 21.7875,36.5626875 15,36.5626875" id="Fill-18" fill="#FFFFFF"></path>
                <path d="M27.6144375,22.5001875 L27.6050625,22.5001875 L25.6513125,22.5001875 C24.8263125,22.5001875 24.0969375,23.0401875 23.8569375,23.8314375 C22.6438125,27.8289375 19.2125625,31.8751875 14.9994375,31.8751875 C10.7863125,31.8751875 7.3550625,27.8289375 6.1438125,23.8314375 C5.9038125,23.0401875 5.1744375,22.5001875 4.3494375,22.5001875 L2.3956875,22.5001875 C1.8125625,22.5001875 1.2650625,22.7720625 0.9106875,23.2333125 C0.5544375,23.6945625 0.4344375,24.2926875 0.5844375,24.8570625 C2.2513125,31.1383125 7.7375625,37.5001875 14.9994375,37.5001875 C22.2106875,37.5001875 27.6725625,31.2283125 29.3806875,24.9883125 C29.4463125,24.7970625 29.4838125,24.5889375 29.4838125,24.3751875 C29.4838125,23.3383125 28.6494375,22.5001875 27.6144375,22.5001875 L27.6144375,22.5001875 Z M27.6050625,24.3751875 C26.0263125,30.3189375 20.9881875,35.6251875 14.9994375,35.6251875 C9.0125625,35.6251875 3.9725625,30.3189375 2.3956875,24.3751875 L4.3494375,24.3751875 C5.8344375,29.2708125 9.9631875,33.7501875 14.9994375,33.7501875 C20.0375625,33.7501875 24.1663125,29.2708125 25.6513125,24.3751875 L27.6050625,24.3751875 L27.6050625,24.3751875 Z" id="Fill-20" fill="#494949"></path>
                <path d="M49.6875,31.8751875 C49.6875,30.8514375 48.85875,30.0226875 47.835,30.0226875 C46.81125,30.0226875 45.980625,30.8514375 45.980625,31.8751875 C45.980625,32.8989375 46.81125,33.7276875 47.835,33.7276875 C48.85875,33.7276875 49.6875,32.8989375 49.6875,31.8751875" id="Fill-22" fill="#494949"></path>
            </g>
        </g>
    </g>
</svg>