<svg width="60" height="60" viewBox="0 0 60 60" fill="none" xmlns="http://www.w3.org/2000/svg">
<path d="M30 55.2C24.2828 55.1951 18.8012 52.9217 14.7585 48.879C10.7158 44.8363 8.44247 39.3547 8.4375 33.6375V26.3438C8.44247 20.6265 10.7158 15.1449 14.7585 11.1022C18.8012 7.05955 24.2828 4.78622 30 4.78125C35.7172 4.78622 41.1988 7.05955 45.2415 11.1022C49.2842 15.1449 51.5575 20.6265 51.5625 26.3438V33.6375C51.5575 39.3547 49.2842 44.8363 45.2415 48.879C41.1988 52.9217 35.7172 55.1951 30 55.2Z" fill="white"/>
<path d="M30 5.71875C35.4701 5.71875 40.7161 7.89175 44.5841 11.7597C48.452 15.6276 50.625 20.8737 50.625 26.3438V33.6375C50.625 39.1076 48.452 44.3537 44.5841 48.2216C40.7161 52.0895 35.4701 54.2625 30 54.2625C24.5299 54.2625 19.2839 52.0895 15.4159 48.2216C11.548 44.3537 9.375 39.1076 9.375 33.6375V26.3438C9.375 20.8737 11.548 15.6276 15.4159 11.7597C19.2839 7.89175 24.5299 5.71875 30 5.71875ZM30 3.84375C24.0326 3.84375 18.3097 6.21426 14.0901 10.4338C9.87053 14.6534 7.5 20.3764 7.5 26.3438V33.6375C7.5 39.6049 9.87053 45.3278 14.0901 49.5474C18.3097 53.767 24.0326 56.1375 30 56.1375C35.9674 56.1375 41.6903 53.767 45.9099 49.5474C50.1295 45.3278 52.5 39.6049 52.5 33.6375V26.3438C52.5 20.3764 50.1295 14.6534 45.9099 10.4338C41.6903 6.21426 35.9674 3.84375 30 3.84375Z" fill="#494949"/>
<path d="M30 34.35C25.05 34.35 23.9062 31.3875 23.85 31.275C23.7655 31.0413 23.7773 30.7836 23.8828 30.5585C23.9883 30.3335 24.1788 30.1596 24.4125 30.075C24.6414 29.9885 24.8951 29.9951 25.1193 30.0932C25.3436 30.1913 25.5205 30.3731 25.6125 30.6C25.6125 30.7125 26.4562 32.475 30 32.475C33.5437 32.475 34.3687 30.6 34.3875 30.6C34.4868 30.3748 34.6677 30.1955 34.8937 30.0981C35.1198 30.0008 35.3743 29.9925 35.6062 30.075C35.8334 30.1671 36.0165 30.3431 36.1177 30.5664C36.2189 30.7898 36.2304 31.0434 36.15 31.275C36.0937 31.3875 34.95 34.35 30 34.35Z" fill="#494949"/>
<path d="M20.625 28.0312C19.91 28.0663 19.2 27.8961 18.5786 27.5406C17.9573 27.1851 17.4508 26.6592 17.1188 26.025C17.0247 25.7935 17.025 25.5343 17.1197 25.3031C17.2143 25.0718 17.3957 24.8867 17.625 24.7875C17.8515 24.6931 18.1061 24.6912 18.3339 24.7823C18.5618 24.8735 18.7449 25.0503 18.8438 25.275C19.0283 25.574 19.2931 25.8152 19.608 25.971C19.923 26.1268 20.2754 26.191 20.625 26.1562C20.9668 26.1857 21.31 26.1209 21.6175 25.9688C21.925 25.8167 22.1848 25.5832 22.3688 25.2937C22.468 25.0644 22.653 24.883 22.8843 24.7884C23.1156 24.6937 23.3747 24.6935 23.6063 24.7875C23.8322 24.8902 24.0094 25.0766 24.1004 25.3076C24.1914 25.5385 24.189 25.7958 24.0938 26.025C23.7645 26.6532 23.2638 27.1751 22.6498 27.5302C22.0358 27.8854 21.3337 28.0591 20.625 28.0312Z" fill="#494949"/>
<path d="M39.4688 28.0312C38.76 28.0591 38.0579 27.8854 37.4439 27.5302C36.83 27.1751 36.3293 26.6532 36 26.025C35.9048 25.7958 35.9024 25.5385 35.9934 25.3076C36.0843 25.0766 36.2615 24.8902 36.4875 24.7875C36.714 24.6931 36.9686 24.6912 37.1964 24.7823C37.4243 24.8735 37.6074 25.0503 37.7063 25.275C37.8893 25.5709 38.1511 25.8101 38.4624 25.9658C38.7737 26.1214 39.1221 26.1874 39.4688 26.1562C39.8184 26.191 40.1708 26.1268 40.4857 25.971C40.8007 25.8152 41.0655 25.574 41.25 25.275C41.3561 25.0523 41.544 24.8793 41.7746 24.792C42.0052 24.7046 42.2606 24.7097 42.4875 24.8062C42.7089 24.9088 42.8828 25.0922 42.9734 25.3187C43.064 25.5453 43.0646 25.798 42.975 26.025C42.643 26.6592 42.1364 27.1851 41.5151 27.5406C40.8938 27.8961 40.1837 28.0663 39.4688 28.0312Z" fill="#494949"/>
<path d="M30 11.4938C29.7887 10.7677 29.2976 10.1554 28.6347 9.79145C27.9719 9.42751 27.1917 9.34178 26.4656 9.55313C25.7396 9.76447 25.1273 10.2555 24.7633 10.9184C24.3994 11.5812 24.3137 12.3614 24.525 13.0875C25.3688 16.4437 30 18.6 30 18.6C30 18.6 34.6313 16.4437 35.475 13.0875C35.6864 12.3614 35.6006 11.5812 35.2367 10.9184C34.8728 10.2555 34.2604 9.76447 33.5344 9.55313C32.8084 9.34178 32.0281 9.42751 31.3653 9.79145C30.7025 10.1554 30.2114 10.7677 30 11.4938Z" fill="white"/>
<path d="M30 19.5375C29.8637 19.533 29.7298 19.5012 29.6062 19.4437C29.4 19.35 24.5437 17.0625 23.625 13.3125C23.3838 12.398 23.4972 11.4262 23.9422 10.5917C24.3873 9.7572 25.1312 9.12168 26.025 8.81247C26.7125 8.57468 27.4544 8.54201 28.1602 8.71845C28.866 8.8949 29.5052 9.27284 30 9.80622C30.4947 9.27284 31.134 8.8949 31.8398 8.71845C32.5455 8.54201 33.2874 8.57468 33.975 8.81247C34.8687 9.12168 35.6127 9.7572 36.0577 10.5917C36.5028 11.4262 36.6161 12.398 36.375 13.3125C35.4562 17.0625 30.6 19.35 30.3937 19.4437C30.2701 19.5012 30.1362 19.533 30 19.5375ZM27.2625 10.4812C27.0572 10.4528 26.849 10.4528 26.6437 10.4812C26.1886 10.636 25.8103 10.9597 25.587 11.3854C25.3636 11.8111 25.3124 12.3063 25.4437 12.7687C26.025 15.1125 28.9312 16.875 30 17.4562C31.0687 16.875 33.975 15.1125 34.5562 12.7687C34.6876 12.3063 34.6363 11.8111 34.413 11.3854C34.1897 10.9597 33.8114 10.636 33.3562 10.4812C33.1051 10.4001 32.8404 10.3698 32.5775 10.392C32.3146 10.4143 32.0587 10.4887 31.8249 10.6108C31.591 10.733 31.3838 10.9005 31.2153 11.1036C31.0469 11.3067 30.9206 11.5413 30.8437 11.7937C30.7581 11.9416 30.635 12.0645 30.4869 12.1499C30.3388 12.2352 30.1709 12.2801 30 12.2801C29.829 12.2801 29.6611 12.2352 29.513 12.1499C29.3649 12.0645 29.2419 11.9416 29.1562 11.7937C29.0049 11.4128 28.7444 11.085 28.4075 10.8515C28.0706 10.618 27.6723 10.4892 27.2625 10.4812Z" fill="#494949"/>
</svg>
