<?xml version="1.0" encoding="UTF-8"?>
<svg width="60px" height="60px" viewBox="0 0 60 60" version="1.1" xmlns="http://www.w3.org/2000/svg" xmlns:xlink="http://www.w3.org/1999/xlink">
    <!-- Generator: Sketch 60.1 (88133) - https://sketch.com -->
    <title>신경과 60*60</title>
    <desc>Created with Sketch.</desc>
    <g id="신경과-60*60" stroke="none" stroke-width="1" fill="none" fill-rule="evenodd">
        <g id="Group-49">
            <polygon id="Fill-1" points="0 60 60 60 60 0.001875 0 0.001875"></polygon>
            <g id="Group-48" transform="translate(3.750000, 1.875000)">
                <path d="M21.813375,34.253625 C21.813375,34.253625 23.11275,29.626125 20.1315,26.052375 C17.778375,23.2305 12.5865,22.2405 12.5865,22.2405 C12.5865,22.2405 17.470875,19.789875 18.730875,15.44925 C20.06025,10.876125 14.684625,7.358625 14.684625,7.358625 C14.684625,7.358625 20.208375,9.556125 24.127125,10.347375 C28.14525,11.161125 32.8365,6.8055 32.8365,6.8055 C32.8365,6.8055 30.97275,10.488 33.0615,13.456125 C35.152125,16.42425 43.469625,17.11425 43.469625,17.11425 C43.469625,17.11425 37.374,19.789875 36.32025,23.07675 C35.047125,27.057375 37.65525,31.748625 37.65525,31.748625 C37.65525,31.748625 33.434625,27.136125 30.22275,27.683625 C26.815875,28.264875 21.813375,34.253625 21.813375,34.253625" id="Fill-2" fill="#FFFFFF"></path>
                <path d="M14.8993125,21.8904375 C16.7311875,22.4866875 19.3074375,23.5985625 20.8505625,25.4510625 C22.5324375,27.4685625 22.9899375,29.7560625 23.0330625,31.5298125 C24.8893125,29.6435625 27.7168125,27.1610625 30.0661875,26.7598125 C31.8961875,26.4616875 33.8705625,27.4366875 35.4399375,28.5541875 C35.0124375,26.8479375 34.7968125,24.7591875 35.4268125,22.7904375 C36.1168125,20.6398125 38.4980625,18.8229375 40.4368125,17.6510625 C37.6655625,17.1560625 33.7786875,16.1041875 32.2936875,13.9966875 C31.1724375,12.3991875 31.0224375,10.6591875 31.1874375,9.2435625 C29.3086875,10.4679375 26.5468125,11.7841875 23.9405625,11.2666875 C22.1911875,10.9141875 20.1511875,10.2935625 18.4036875,9.7085625 C19.5099375,11.2816875 20.3180625,13.3516875 19.6318125,15.7104375 C18.7918125,18.5998125 16.5455625,20.6885625 14.8993125,21.8904375 M21.8143125,35.1898125 C21.6661875,35.1898125 21.5161875,35.1541875 21.3793125,35.0829375 C20.9874375,34.8785625 20.7943125,34.4285625 20.9105625,34.0029375 C20.9218125,33.9598125 22.0299375,29.7898125 19.4105625,26.6529375 C17.3030625,24.1254375 12.4580625,23.1710625 12.4111875,23.1616875 C12.0174375,23.0848125 11.7155625,22.7679375 11.6574375,22.3704375 C11.6030625,21.9729375 11.8074375,21.5829375 12.1655625,21.4029375 C12.2105625,21.3804375 16.7030625,19.0723125 17.8299375,15.1873125 C18.9530625,11.3248125 14.2205625,8.1766875 14.1718125,8.1429375 C13.7686875,7.8804375 13.6299375,7.3535625 13.8530625,6.9279375 C14.0743125,6.5004375 14.5805625,6.3110625 15.0305625,6.4873125 C15.0868125,6.5098125 20.5224375,8.6623125 24.3136875,9.4291875 C27.2405625,10.0160625 30.9924375,7.2410625 32.1999375,6.1198125 C32.5299375,5.8104375 33.0380625,5.7841875 33.3961875,6.0579375 C33.7618125,6.3279375 33.8761875,6.8210625 33.6736875,7.2279375 C33.6586875,7.2579375 32.0968125,10.4566875 33.8293125,12.9166875 C35.3330625,15.0541875 41.3536875,15.9973125 43.5455625,16.1810625 C43.9749375,16.2166875 44.3218125,16.5391875 44.3930625,16.9610625 C44.4643125,17.3848125 44.2374375,17.7991875 43.8455625,17.9735625 C42.2574375,18.6710625 37.9693125,21.0016875 37.2136875,23.3623125 C36.0811875,26.9004375 38.4530625,31.2504375 38.4755625,31.2954375 C38.7043125,31.7098125 38.5880625,32.2329375 38.2036875,32.5085625 C37.8174375,32.7860625 37.2849375,32.7298125 36.9643125,32.3829375 C35.8824375,31.2054375 32.5880625,28.2204375 30.3811875,28.6085625 C27.8686875,29.0360625 23.8636875,33.2623125 22.5324375,34.8541875 C22.3505625,35.0735625 22.0843125,35.1898125 21.8143125,35.1898125" id="Fill-4" fill="#494949"></path>
                <path d="M26.2280625,22.52025 C24.5443125,22.52025 23.1793125,21.153375 23.1793125,19.4715 C23.1793125,17.78775 24.5443125,16.42275 26.2280625,16.42275 C27.9099375,16.42275 29.2768125,17.78775 29.2768125,19.4715 C29.2768125,21.153375 27.9099375,22.52025 26.2280625,22.52025" id="Fill-6" fill="#494949"></path>
                <path d="M39.215625,37.425 C39.016875,37.425 38.814375,37.36125 38.64375,37.23 C38.235,36.915 38.158125,36.32625 38.473125,35.915625 C39.234375,34.9275 37.659375,33.046875 37.0275,32.445 C37.02,32.439375 37.0125,32.431875 37.005,32.424375 C36.63375,32.068125 36.620625,31.4775 36.976875,31.1025 C37.329375,30.7275 37.921875,30.714375 38.296875,31.065 C38.300625,31.066875 38.304375,31.070625 38.31,31.074375 C38.480625,31.231875 39.40875,31.9575 40.62375,31.010625 C41.02875,30.69 41.619375,30.759375 41.938125,31.171875 C42.25875,31.57875 42.185625,32.1675 41.776875,32.48625 C41.17125,32.960625 40.573125,33.21375 40.010625,33.315 C40.625625,34.516875 40.854375,35.896875 39.958125,37.059375 C39.774375,37.299375 39.495,37.425 39.215625,37.425" id="Fill-8" fill="#494949"></path>
                <path d="M43.471125,18.0525 C43.13175,18.0525 42.807375,17.86875 42.638625,17.548125 C42.398625,17.08875 42.574875,16.524375 43.036125,16.284375 C43.152375,16.2225 45.927375,14.784375 48.083625,14.61 C48.45675,14.578125 48.77175,14.405625 49.047375,14.07375 C49.49925,13.53 49.666125,12.778125 49.668,12.515625 C49.519875,12.110625 49.668,11.645625 50.044875,11.40375 C50.478,11.131875 51.05925,11.255625 51.338625,11.690625 C51.80925,12.429375 51.349875,13.79625 51.042375,14.416875 C50.42925,15.650625 49.43175,16.381875 48.233625,16.4775 C46.459875,16.621875 43.928625,17.934375 43.902375,17.945625 C43.763625,18.016875 43.6155,18.0525 43.471125,18.0525" id="Fill-10" fill="#494949"></path>
                <path d="M32.8363125,7.7435625 C32.6413125,7.7435625 32.4444375,7.6835625 32.2756875,7.5560625 C31.8594375,7.2466875 31.7769375,6.6616875 32.0863125,6.2454375 C32.9900625,5.0304375 36.1063125,1.0629375 38.4706875,1.3854375 C38.9825625,1.4510625 39.3481875,1.9198125 39.2825625,2.4335625 C39.2169375,2.9473125 38.7425625,3.3073125 38.2363125,3.2473125 C37.4056875,3.1685625 35.1069375,5.3304375 33.5863125,7.3666875 C33.4044375,7.6141875 33.1213125,7.7435625 32.8363125,7.7435625" id="Fill-12" fill="#494949"></path>
                <path d="M52.5,17.8126875 C52.33125,17.8126875 52.1625,17.7695625 52.00875,17.6739375 C49.5525,16.1645625 48.4725,16.4308125 48.466875,16.4289375 C47.990625,16.6295625 47.4675,16.3970625 47.266875,15.9189375 C47.06625,15.4408125 47.315625,14.8820625 47.79375,14.6795625 C48.0825,14.5576875 49.695,14.0533125 52.99125,16.0764375 C53.431875,16.3483125 53.56875,16.9239375 53.29875,17.3664375 C53.1225,17.6533125 52.815,17.8126875 52.5,17.8126875" id="Fill-14" fill="#494949"></path>
                <path d="M38.7433125,7.269375 C38.4620625,7.269375 38.1808125,7.14375 37.9970625,6.901875 C37.9858125,6.883125 36.6451875,5.173125 35.3233125,5.443125 C34.8245625,5.535 34.3220625,5.20875 34.2245625,4.700625 C34.1270625,4.190625 34.4589375,3.70125 34.9670625,3.601875 C37.4908125,3.13125 39.4089375,5.6625 39.4914375,5.769375 C39.8026875,6.181875 39.7201875,6.765 39.3095625,7.078125 C39.1408125,7.2075 38.9401875,7.269375 38.7433125,7.269375" id="Fill-16" fill="#494949"></path>
                <path d="M14.685,8.2966875 C14.589375,8.2966875 14.49375,8.2816875 14.4,8.2535625 C13.014375,7.8073125 8.428125,6.2173125 7.47,4.3535625 C7.18125,3.7929375 7.2375,3.3110625 7.336875,3.0073125 C7.494375,2.5141875 8.026875,2.2423125 8.51625,2.4016875 C9.009375,2.5591875 9.279375,3.0898125 9.12,3.5810625 C9.32625,4.1210625 12.110625,5.5479375 14.97,6.4648125 C15.465,6.6241875 15.736875,7.1529375 15.579375,7.6441875 C15.45,8.0435625 15.0825,8.2966875 14.685,8.2966875" id="Fill-18" fill="#494949"></path>
                <path d="M6.1303125,8.97225 C5.9634375,8.97225 5.7946875,8.929125 5.6409375,8.835375 C5.2003125,8.565375 5.0615625,7.98975 5.3296875,7.545375 C6.7303125,5.254125 10.9565625,5.164125 11.4346875,5.160375 L11.4403125,5.160375 C11.9540625,5.160375 12.3740625,5.57475 12.3778375,6.09225 C12.3815625,6.607875 11.9634375,7.031625 11.4459375,7.035375 C10.0453125,7.046625 7.5796875,7.459125 6.9309375,8.524125 C6.7546875,8.812875 6.4453125,8.97225 6.1303125,8.97225" id="Fill-20" fill="#494949"></path>
                <path d="M5.3026875,24.2761875 C3.5120625,24.2761875 2.0458125,23.9386875 1.5058125,22.9805625 C1.2508125,22.5286875 1.4101875,21.9586875 1.8620625,21.7036875 C2.3045625,21.4486875 2.8820625,21.6061875 3.1389375,22.0599375 C3.6883125,22.7218125 8.0870625,22.3768125 12.3639375,21.3305625 C12.8720625,21.2068125 13.3745625,21.5124375 13.4964375,22.0168125 C13.6220625,22.5193125 13.3126875,23.0274375 12.8101875,23.1493125 C10.7008125,23.6686875 7.7083125,24.2761875 5.3026875,24.2761875" id="Fill-22" fill="#494949"></path>
                <path d="M1.21575,28.6213125 C0.827625,28.6213125 0.463875,28.3775625 0.328875,27.9894375 C0.162,27.4981875 0.42075,26.9656875 0.910125,26.7969375 C2.637,26.2025625 4.4745,23.7200625 5.038875,22.8106875 C5.31075,22.3719375 5.886375,22.2331875 6.33075,22.5088125 C6.7695,22.7825625 6.9045,23.3581875 6.632625,23.7988125 C6.537,23.9563125 4.232625,27.6350625 1.521375,28.5706875 C1.420125,28.6044375 1.317,28.6213125 1.21575,28.6213125" id="Fill-24" fill="#494949"></path>
                <path d="M25.1476875,50.4181875 L23.4995625,53.0356875 C23.4995625,53.0356875 13.9239375,51.0781875 12.5870625,49.9138125 C11.2501875,48.7494375 10.8133125,44.8400625 11.2501875,42.3013125 C11.5501875,40.5575625 12.6901875,39.2656875 14.4620625,37.4450625 C16.2320625,35.6244375 20.6251875,33.1100625 20.6251875,33.1100625 L24.9526875,34.1863125 C24.9526875,34.1863125 20.1320625,37.2575625 18.5026875,38.3169375 C16.8751875,39.3744375 15.6639375,41.2494375 15.4914375,42.3013125 C15.3245625,43.3025625 15.1651875,46.1375625 16.0201875,47.3581875 C16.8751875,48.5825625 25.1476875,50.4181875 25.1476875,50.4181875" id="Fill-26" fill="#FFFFFF"></path>
                <path d="M20.7695625,34.11075 C19.7401875,34.71825 16.5226875,36.670125 15.1333125,38.098875 C13.5133125,39.76575 12.4314375,40.967625 12.1745625,42.460125 C11.7489375,44.93325 12.2776875,48.402 13.2020625,49.20825 C13.8789375,49.795125 18.7126875,51.072 23.0533125,51.985125 L23.6495625,51.036375 C20.4170625,50.271375 16.0614375,49.056375 15.2514375,47.89575 C13.9614375,46.052625 14.5576875,42.186375 14.5651875,42.147 C14.7845625,40.83075 16.1233125,38.74575 17.9926875,37.53075 C18.9620625,36.898875 21.0658125,35.5545 22.6089375,34.56825 L20.7695625,34.11075 Z M23.4995625,53.9745 C23.4376875,53.9745 23.3758125,53.968875 23.3101875,53.95575 C21.0095625,53.48325 13.3858125,51.850125 11.9720625,50.622 C10.2114375,49.08825 9.8851875,44.712 10.3258125,42.141375 C10.6726875,40.122 11.9814375,38.650125 13.7889375,36.792 C15.6320625,34.89825 19.9745625,32.40075 20.1601875,32.29575 C20.3683125,32.17575 20.6158125,32.143875 20.8520625,32.19825 L25.1795625,33.276375 C25.5414375,33.36825 25.8151875,33.666375 25.8770625,34.033875 C25.9370625,34.40325 25.7720625,34.7745 25.4551875,34.977 C25.4551875,34.977 20.6420625,38.046375 19.0126875,39.102 C17.5951875,40.0245 16.5433125,41.676375 16.4158125,42.4545 C16.2301875,43.566375 16.1983125,45.97575 16.7870625,46.8195 C17.3439375,47.4045 21.6695625,48.685125 25.3501875,49.502625 C25.6501875,49.56825 25.8939375,49.7745 26.0139375,50.057625 C26.1301875,50.338875 26.1039375,50.6595 25.9408125,50.91825 L24.2926875,53.53575 C24.1183125,53.81325 23.8183125,53.9745 23.4995625,53.9745 L23.4995625,53.9745 Z" id="Fill-28" fill="#494949"></path>
                <path d="M26.2700625,53.1684375 C25.4938125,53.1684375 24.6331875,52.8665625 23.9169375,52.4653125 C23.4650625,52.2121875 23.3056875,51.6440625 23.5569375,51.1903125 C23.8081875,50.7403125 24.3819375,50.5734375 24.8300625,50.8284375 C25.4713125,51.1809375 26.2531875,51.3703125 26.4369375,51.2690625 C26.7481875,50.7421875 27.1794375,49.7409375 27.6369375,48.6778125 C28.9906875,45.5446875 30.0556875,43.2628125 31.4338125,42.4565625 C33.0575625,41.5059375 34.3306875,41.3971875 35.3525625,41.3071875 C36.2581875,41.2265625 36.9744375,41.1646875 37.8575625,40.5628125 C38.2813125,40.2740625 38.8681875,40.3790625 39.1588125,40.8103125 C39.4494375,41.2378125 39.3406875,41.8209375 38.9113125,42.1134375 C37.6269375,42.9890625 36.5525625,43.0828125 35.5156875,43.1746875 C34.5519375,43.2590625 33.6406875,43.3378125 32.3788125,44.0746875 C31.4263125,44.6315625 30.1831875,47.5134375 29.3600625,49.4221875 C28.8556875,50.5940625 28.4188125,51.6065625 28.0213125,52.2590625 C27.6219375,52.9171875 26.9806875,53.1684375 26.2700625,53.1684375" id="Fill-30" fill="#494949"></path>
                <path d="M33.891,54.6241875 C30.757875,54.6241875 27.574125,54.1179375 26.42475,52.2654375 C26.151,51.8266875 26.286,51.2473125 26.726625,50.9754375 C27.165375,50.7054375 27.74475,50.8348125 28.016625,51.2773125 C29.205375,53.1916875 36.126,52.9198125 40.661625,52.1135625 C41.156625,52.0310625 41.65725,52.3610625 41.74725,52.8729375 C41.839125,53.3829375 41.49975,53.8704375 40.987875,53.9604375 C39.982875,54.1385625 36.96225,54.6241875 33.891,54.6241875" id="Fill-32" fill="#494949"></path>
                <path d="M28.3228125,50.394375 C27.9946875,50.394375 27.6759375,50.221875 27.5034375,49.914375 C27.2521875,49.4625 27.4134375,48.890625 27.8653125,48.6375 C28.2178125,48.440625 36.5803125,43.786875 41.0896875,45.118125 C41.5846875,45.2625 41.8715625,45.781875 41.7234375,46.280625 C41.5790625,46.77375 41.0653125,47.064375 40.5609375,46.91625 C37.4484375,46.005 31.0003125,49.029375 28.7803125,50.27625 C28.6359375,50.355 28.4784375,50.394375 28.3228125,50.394375" id="Fill-34" fill="#494949"></path>
                <path d="M42.2698125,49.94025 C38.3116875,49.94025 35.1448125,47.219625 35.0098125,47.1015 C34.6198125,46.762125 34.5785625,46.1715 34.9179375,45.7815 C35.2573125,45.389625 35.8479375,45.352125 36.2398125,45.685875 C36.2679375,45.712125 39.0260625,48.06525 42.2716875,48.06525 C42.3410625,48.06525 42.4085625,48.06525 42.4816875,48.0615 C42.9879375,48.0615 43.4041875,48.464625 43.4191875,48.97275 C43.4341875,49.49025 43.0254375,49.9215 42.5079375,49.9365 C42.4291875,49.938375 42.3485625,49.94025 42.2698125,49.94025" id="Fill-36" fill="#494949"></path>
                <path d="M32.8363125,54.600375 C32.7219375,54.600375 32.6075625,54.57975 32.4931875,54.536625 C32.0131875,54.34725 31.7750625,53.8035 31.9625625,53.31975 C32.6056875,51.679125 35.2006875,49.851 35.4950625,49.646625 C35.9244375,49.350375 36.5038125,49.461 36.7981875,49.88475 C37.0944375,50.310375 36.9875625,50.8935 36.5600625,51.18975 C35.6319375,51.831 34.0381875,53.164125 33.7100625,54.006 C33.5656875,54.375375 33.2094375,54.600375 32.8363125,54.600375" id="Fill-38" fill="#494949"></path>
                <path d="M19.4731875,38.0566875 C19.3644375,38.0566875 19.2556875,38.0379375 19.1469375,37.9985625 L16.1375625,36.8810625 C15.6519375,36.7010625 15.4044375,36.1610625 15.5844375,35.6754375 C15.7644375,35.1935625 16.3006875,34.9423125 16.7881875,35.1241875 L19.7994375,36.2398125 C20.2850625,36.4198125 20.5306875,36.9598125 20.3525625,37.4454375 C20.2119375,37.8223125 19.8538125,38.0566875 19.4731875,38.0566875" id="Fill-40" fill="#494949"></path>
                <path d="M14.8790625,42.6545625 C14.7346875,42.6545625 14.5903125,42.6208125 14.4515625,42.5514375 L12.6215625,41.6176875 C12.1603125,41.3833125 11.9765625,40.8189375 12.2128125,40.3558125 C12.4471875,39.8945625 13.0134375,39.7145625 13.4746875,39.9489375 L15.3065625,40.8826875 C15.7678125,41.1170625 15.9496875,41.6814375 15.7134375,42.1445625 C15.5484375,42.4670625 15.2203125,42.6545625 14.8790625,42.6545625" id="Fill-42" fill="#494949"></path>
                <path d="M11.293875,47.8126875 C10.83075,47.8126875 10.427625,47.4695625 10.36575,46.9970625 C10.29825,46.4833125 10.660125,46.0126875 11.173875,45.9451875 L15.3045,45.4014375 C15.808875,45.3320625 16.288875,45.6920625 16.356375,46.2095625 C16.423875,46.7233125 16.062,47.1939375 15.550125,47.2614375 L11.417625,47.8051875 C11.376375,47.8108125 11.335125,47.8126875 11.293875,47.8126875" id="Fill-44" fill="#494949"></path>
                <path d="M15.6939375,52.0423125 C15.4089375,52.0423125 15.1258125,51.9129375 14.9420625,51.6654375 C14.6326875,51.2491875 14.7170625,50.6623125 15.1333125,50.3529375 L18.1895625,48.0785625 C18.6039375,47.7710625 19.1908125,47.8535625 19.5020625,48.2698125 C19.8114375,48.6860625 19.7251875,49.2729375 19.3108125,49.5823125 L16.2545625,51.8566875 C16.0858125,51.9823125 15.8889375,52.0423125 15.6939375,52.0423125" id="Fill-46" fill="#494949"></path>
            </g>
        </g>
    </g>
</svg>