<?xml version="1.0" encoding="UTF-8"?>
<svg width="60px" height="60px" viewBox="0 0 60 60" version="1.1" xmlns="http://www.w3.org/2000/svg" xmlns:xlink="http://www.w3.org/1999/xlink">
    <!-- Generator: Sketch 60.1 (88133) - https://sketch.com -->
    <title>신경외과 60*60</title>
    <desc>Created with Sketch.</desc>
    <g id="신경외과-60*60" stroke="none" stroke-width="1" fill="none" fill-rule="evenodd">
        <g id="Group-39">
            <polygon id="Fill-1" points="0 60 60 60 60 0.001875 0 0.001875"></polygon>
            <g id="Group-38" transform="translate(1.875000, 5.625000)" fill="#494949">
                <path d="M12.3485625,35.335875 C10.2091875,35.335875 8.2573125,34.7565 6.5791875,33.61275 C3.4648125,31.484625 1.4229375,27.41025 0.9785625,22.439625 C0.6129375,18.369 2.1523125,14.103375 4.9873125,11.302125 C6.8360625,9.479625 10.1098125,7.409625 15.0954375,7.927125 C15.6091875,7.97775 15.9841875,8.439 15.9316875,8.954625 C15.8791875,9.47025 15.4123125,9.8415 14.9041875,9.790875 C10.6385625,9.367125 7.8635625,11.09775 6.3035625,12.637125 C3.8566875,15.054 2.5310625,18.745875 2.8460625,22.270875 C3.2398125,26.684625 4.9854375,30.25275 7.6366875,32.064 C9.8435625,33.5715 12.5623125,33.8715 15.7216875,32.947125 C16.2204375,32.8065 16.7379375,33.08775 16.8841875,33.584625 C17.0285625,34.0815 16.7435625,34.600875 16.2448125,34.749 C14.8948125,35.140875 13.5898125,35.335875 12.3485625,35.335875" id="Fill-2"></path>
                <path d="M10.621875,14.2036875 C10.35,14.2036875 10.09125,14.1643125 9.841875,14.0855625 C9.34875,13.9280625 9.076875,13.3974375 9.234375,12.9061875 C9.39375,12.4130625 9.920625,12.1430625 10.41375,12.2968125 C10.70625,12.3924375 11.1975,12.2536875 11.716875,11.9236875 C12.871875,11.1961875 13.929375,9.7636875 14.071875,8.7305625 C14.236875,7.5286875 15.17625,3.4618125 20.304375,1.5905625 C23.803125,0.3136875 28.34625,1.3299375 30.388125,3.0755625 C31.340625,3.8930625 31.760625,4.8680625 31.57125,5.8280625 C31.310625,7.1405625 29.97375,8.2018125 27.601875,8.9799375 C25.32,9.7261875 23.236875,9.3211875 23.150625,9.3024375 C22.6425,9.1993125 22.31625,8.7061875 22.4175,8.2018125 C22.516875,7.6918125 23.01375,7.3580625 23.518125,7.4630625 C23.533125,7.4668125 25.224375,7.7874375 27.016875,7.1986875 C28.88625,6.5855625 29.645625,5.8993125 29.73,5.4643125 C29.80125,5.1061875 29.409375,4.7068125 29.169375,4.4986875 C27.560625,3.1243125 23.791875,2.3124375 20.945625,3.3530625 C16.80375,4.8643125 16.0575,8.0480625 15.928125,8.9874375 C15.70875,10.5736875 14.35875,12.4768125 12.71625,13.5118125 C11.98875,13.9693125 11.278125,14.2036875 10.621875,14.2036875" id="Fill-4"></path>
                <path d="M42.7423125,6.148875 C42.2773125,6.148875 41.8723125,5.800125 41.8141875,5.327625 C41.6548125,4.048875 37.2954375,1.930125 32.9341875,1.930125 C30.8510625,1.930125 29.7410625,2.436375 28.3066875,3.433875 C27.8829375,3.7245 27.2979375,3.621375 26.9998125,3.197625 C26.7054375,2.772 26.8123125,2.188875 27.2360625,1.89075 C28.9123125,0.72825 30.3804375,0.055125 32.9341875,0.055125 C37.6123125,0.055125 43.3235625,2.25825 43.6741875,5.095125 C43.7379375,5.61075 43.3741875,6.077625 42.8585625,6.141375 C42.8210625,6.147 42.7816875,6.148875 42.7423125,6.148875" id="Fill-6"></path>
                <path d="M52.4158125,15.74175 C52.3689375,15.74175 52.3220625,15.738 52.2751875,15.7305 C51.7614375,15.653625 51.4108125,15.177375 51.4876875,14.6655 C51.7014375,13.227375 50.9364375,10.82925 48.7464375,8.96175 C47.2070625,7.6455 43.8189375,5.697375 38.4489375,7.40175 C37.9501875,7.553625 37.4270625,7.283625 37.2714375,6.792375 C37.1158125,6.297375 37.3876875,5.7705 37.8808125,5.614875 C44.1170625,3.642375 48.1295625,5.967375 49.9633125,7.534875 C52.3445625,9.5655 53.7020625,12.543 53.3401875,14.943 C53.2708125,15.408 52.8714375,15.74175 52.4158125,15.74175" id="Fill-8"></path>
                <path d="M22.9395,37.50375 C21.47325,37.50375 20.0895,37.22625 18.951375,36.661875 C17.382,35.885625 16.348875,34.610625 15.962625,32.97375 C14.922,28.5675 15.756375,23.1 21.22575,20.96625 C24.471375,19.7025 26.488875,20.39625 27.20325,20.754375 C27.666375,20.986875 27.853875,21.549375 27.62325,22.0125 C27.39075,22.475625 26.832,22.666875 26.365125,22.4325 C25.57575,22.035 23.991375,21.901875 21.906375,22.711875 C16.43325,24.849375 17.368875,30.77625 17.787,32.5425 C18.04575,33.63375 18.717,34.453125 19.782,34.98 C21.737625,35.95125 24.793875,35.818125 27.388875,34.66125 C29.532,33.705 31.645125,31.52625 33.685125,29.41875 C35.522625,27.526875 37.422,25.569375 39.402,24.4425 C41.920125,23.01 45.81825,22.4925 47.61075,24.005625 C48.162,24.4725 48.987,25.5375 48.291375,27.45375 C48.115125,27.939375 47.578875,28.190625 47.0895,28.0125 C46.603875,27.838125 46.35075,27.3 46.528875,26.8125 C46.881375,25.84125 46.532625,25.54875 46.401375,25.438125 C45.4995,24.676875 42.5895,24.789375 40.32825,26.071875 C38.58075,27.0675 36.857625,28.845 35.031375,30.725625 C32.86575,32.95875 30.627,35.26875 28.153875,36.37125 C26.473875,37.125 24.6495,37.50375 22.9395,37.50375" id="Fill-10"></path>
                <path d="M43.125,33.675 C42.6075,33.675 42.1875,33.255 42.1875,32.7375 C42.1875,32.22 42.6075,31.8 43.125,31.8 C49.678125,31.8 53.4375,28.06875 53.4375,21.5625 C53.4375,15.744375 48.110625,13.66875 43.125,13.66875 C42.6075,13.66875 42.1875,13.24875 42.1875,12.73125 C42.1875,12.21375 42.6075,11.79375 43.125,11.79375 C50.5275,11.79375 55.3125,15.628125 55.3125,21.5625 C55.3125,29.146875 50.75625,33.675 43.125,33.675" id="Fill-12"></path>
                <path d="M43.125,48.69525 C43.01625,48.69525 42.9075,48.674625 42.79875,48.637125 C42.313125,48.45525 42.0675,47.917125 42.245625,47.4315 C42.268125,47.3715 44.39625,41.44275 40.58625,37.630875 C40.2975,37.34025 40.23,36.899625 40.4175,36.53775 C40.603125,36.174 41.004375,35.9715 41.405625,36.04275 C44.821875,36.62025 48.26625,34.6065 49.441875,32.934 C49.635,32.66025 50.053125,31.979625 49.8075,31.5465 C49.554375,31.0965 49.71375,30.5265 50.16375,30.269625 C50.611875,30.014625 51.18375,30.17025 51.4425,30.624 C51.991875,31.597125 51.826875,32.799 50.975625,34.012125 C49.573125,36.009 46.5225,37.795875 43.261875,38.00025 C46.0425,42.47025 44.1,47.830875 44.004375,48.085875 C43.86375,48.46275 43.505625,48.69525 43.125,48.69525" id="Fill-14"></path>
                <path d="M38.2965,48.69525 C37.779,48.69525 37.359,48.27525 37.359,47.75775 C37.359,43.95525 37.30275,41.572125 36.175875,40.563375 C35.335875,39.809625 33.669,39.614625 30.779625,39.937125 C27.339,40.314 25.07025,39.952125 24.03525,38.853375 C23.51775,38.304 23.317125,37.597125 23.45025,36.809625 C23.538375,36.29775 24.02775,35.958375 24.532125,36.04275 C25.044,36.130875 25.38525,36.6165 25.299,37.124625 C25.254,37.387125 25.327125,37.49025 25.40025,37.567125 C25.825875,38.019 27.434625,38.42025 30.57525,38.073375 C34.094625,37.690875 36.138375,38.0115 37.4265,39.168375 C39.145875,40.70775 39.234,43.434 39.234,47.75775 C39.234,48.27525 38.814,48.69525 38.2965,48.69525" id="Fill-16"></path>
                <path d="M44.454375,24.9684375 C44.415,24.9684375 44.379375,24.9665625 44.34,24.9628125 C43.828125,24.9009375 43.460625,24.4359375 43.5225,23.9221875 C43.54125,23.7646875 44.008125,20.0559375 46.65,19.2290625 C47.1525,19.0753125 47.671875,19.3528125 47.825625,19.8459375 C47.979375,20.3390625 47.70375,20.8659375 47.210625,21.0215625 C45.97875,21.4059375 45.474375,23.4065625 45.3825,24.1453125 C45.324375,24.6196875 44.92125,24.9684375 44.454375,24.9684375" id="Fill-18"></path>
                <path d="M22.5,10.9790625 C22.26,10.9790625 22.02,10.8871875 21.83625,10.7053125 C21.470625,10.3378125 21.470625,9.7453125 21.83625,9.3778125 C21.97875,9.2315625 22.395,8.6990625 22.396875,8.2228125 C22.396875,7.8384375 21.909375,7.5384375 21.90375,7.5346875 C21.46125,7.2721875 21.305625,6.7021875 21.5625,6.2559375 C21.8175,5.8134375 22.37625,5.6521875 22.828125,5.9034375 C23.364375,6.2034375 24.27375,7.0321875 24.2718779,8.2284375 C24.26625,9.5615625 23.27625,10.5909375 23.16375,10.7053125 C22.98,10.8871875 22.74,10.9790625 22.5,10.9790625" id="Fill-20"></path>
                <path d="M23.9263125,21.8574375 C23.6844375,21.8574375 23.4444375,21.7655625 23.2625625,21.5818125 C22.8950625,21.2143125 22.8969375,20.6218125 23.2625625,20.2561875 C23.7763125,19.7424375 24.7794375,18.4205625 24.6031875,17.6086875 C24.5300625,17.2711875 24.1925625,16.9843125 23.5944375,16.7593125 C23.1088125,16.5793125 22.8650625,16.0374375 23.0469375,15.5536875 C23.2288125,15.0680625 23.7725625,14.8149375 24.2544375,15.0061875 C25.7900625,15.5818125 26.2906875,16.5268125 26.4388125,17.2168125 C26.8719375,19.2436875 24.8206875,21.3511875 24.5863125,21.5836875 C24.4025625,21.7655625 24.1644375,21.8574375 23.9263125,21.8574375" id="Fill-22"></path>
                <path d="M10.4315625,22.7803125 C7.4315625,22.7803125 5.6484375,20.9034375 5.5565625,20.8040625 C5.2059375,20.4253125 5.2303125,19.8328125 5.6090625,19.4784375 C5.9878125,19.1315625 6.5765625,19.1465625 6.9290625,19.5271875 C7.0134375,19.6134375 8.9953125,21.6328125 12.2446875,20.6146875 C14.8265625,19.7990625 15.1921875,18.2821875 15.2071875,18.2165625 C15.3159375,17.7196875 15.7846875,17.3803125 16.3096875,17.4928125 C16.8084375,17.5903125 17.1384375,18.0628125 17.0484375,18.5653125 C17.0296875,18.6740625 16.5328125,21.2296875 12.8090625,22.4015625 C11.9503125,22.6715625 11.1553125,22.7803125 10.4315625,22.7803125" id="Fill-24"></path>
                <path d="M17.7868125,19.751625 C14.9068125,19.751625 14.1868125,17.58225 14.1530625,16.736625 C14.1324375,16.219125 14.5355625,15.784125 15.0530625,15.761625 C15.5574375,15.746625 15.9999375,16.136625 16.0261875,16.650375 C16.0505625,16.946625 16.2361875,17.8185 17.8524375,17.876625 L17.8693125,17.876625 C18.3793125,17.876625 18.7974375,18.28725 18.8068125,18.79725 C18.8161875,19.316625 18.4018125,19.74225 17.8861875,19.751625 L17.7868125,19.751625 Z" id="Fill-26"></path>
                <path d="M8.1939375,26.19525 C7.8133125,26.19525 7.4533125,25.960875 7.3145625,25.584 C6.3939375,23.09775 8.6964375,21.243375 8.7939375,21.1665 C9.1989375,20.844 9.7895625,20.917125 10.1101875,21.322125 C10.4308125,21.727125 10.3614375,22.315875 9.9583125,22.6365 C9.9058125,22.679625 8.6270625,23.7315 9.0733125,24.9315 C9.2514375,25.417125 9.0058125,25.957125 8.5201875,26.137125 C8.4114375,26.1765 8.3026875,26.19525 8.1939375,26.19525" id="Fill-28"></path>
                <path d="M24.5874375,30.3534375 C23.3124375,30.3534375 22.4105625,29.8003125 22.3543125,29.7665625 C21.9136875,29.4909375 21.7824375,28.9115625 22.0561875,28.4728125 C22.3299375,28.0359375 22.9093125,27.9009375 23.3424375,28.1728125 C23.4061875,28.2084375 24.5405625,28.8534375 25.8361875,28.1465625 C26.4474375,27.8146875 26.8130625,27.1921875 27.1993125,26.5340625 C27.7430625,25.6078125 28.4180625,24.4528125 29.9199375,24.3234375 C30.4149375,24.2859375 30.8874375,24.6609375 30.9343125,25.1765625 C30.9774375,25.6940625 30.5968125,26.1478125 30.0811875,26.1909375 C29.5936875,26.2340625 29.3330625,26.5978125 28.8174375,27.4809375 C28.3655625,28.2534375 27.8011875,29.2153125 26.7324375,29.7946875 C25.9636875,30.2128125 25.2286875,30.3534375 24.5874375,30.3534375" id="Fill-30"></path>
                <path d="M24.1333125,33.69525 C23.8201875,33.69525 23.5126875,33.53775 23.3364375,33.250875 C22.3764375,31.698375 23.6701875,29.380875 23.9383125,28.93275 C24.2045625,28.494 24.7745625,28.34775 25.2245625,28.612125 C25.6670625,28.878375 25.8133125,29.452125 25.5470625,29.898375 C25.0651875,30.7065 24.6995625,31.889625 24.9301875,32.264625 C25.2020625,32.70525 25.0670625,33.28275 24.6264375,33.554625 C24.4726875,33.65025 24.3020625,33.69525 24.1333125,33.69525" id="Fill-32"></path>
                <path d="M39.5745,15.564 C37.105125,15.564 35.413875,14.96025 34.5495,13.764 C33.75825,12.67275 33.90825,11.37525 34.120125,10.779 C34.2945,10.289625 34.828875,10.03275 35.316375,10.21275 C35.802,10.383375 36.055125,10.915875 35.88825,11.399625 C35.87325,11.448375 35.667,12.12525 36.0795,12.678375 C36.597,13.375875 37.945125,13.72275 39.9345,13.683375 C40.45575,13.732125 40.885125,14.080875 40.896375,14.5965 C40.9095,15.115875 40.50075,15.54525 39.98325,15.558375 C39.846375,15.562125 39.707625,15.564 39.5745,15.564" id="Fill-34"></path>
                <path d="M35.623125,14.502 C35.41875,14.502 35.210625,14.436375 35.038125,14.297625 C35.01375,14.278875 32.473125,12.272625 30.305625,13.018875 C29.81625,13.187625 29.281875,12.927 29.113125,12.437625 C28.944375,11.950125 29.205,11.41575 29.694375,11.247 C32.844375,10.165125 36.076875,12.72825 36.211875,12.835125 C36.615,13.1595 36.67875,13.750125 36.35625,14.151375 C36.170625,14.383875 35.896875,14.502 35.623125,14.502" id="Fill-36"></path>
            </g>
        </g>
    </g>
</svg>