<?xml version="1.0" encoding="UTF-8"?>
<svg width="60px" height="60px" viewBox="0 0 60 60" version="1.1" xmlns="http://www.w3.org/2000/svg" xmlns:xlink="http://www.w3.org/1999/xlink">
    <!-- Generator: Sketch 60.1 (88133) - https://sketch.com -->
    <title>비뇨기과 60*60</title>
    <desc>Created with Sketch.</desc>
    <defs>
        <polygon id="path-1" points="0 60 60 60 60 0 0 0"></polygon>
    </defs>
    <g id="비뇨기과-60*60" stroke="none" stroke-width="1" fill="none" fill-rule="evenodd">
        <g id="Group-22">
            <polygon id="Fill-1" points="0 60 60 60 60 0.001875 0 0.001875"></polygon>
            <g id="Group-21">
                <path d="M16.9280625,19.6876875 C16.4124375,19.6876875 15.9905625,20.1095625 15.9905625,20.6251875 C15.9905625,21.1408125 16.4124375,21.5626875 16.9280625,21.5626875 L23.5111875,21.5626875 C24.0268125,21.5626875 24.4486875,21.1408125 24.4486875,20.6251875 C24.4486875,20.1095625 24.0268125,19.6876875 23.5111875,19.6876875 L16.9280625,19.6876875 Z M23.5111875,23.4376875 L16.9280625,23.4376875 C15.3774375,23.4376875 14.1155625,22.1758125 14.1155625,20.6251875 C14.1155625,19.0745625 15.3774375,17.8126875 16.9280625,17.8126875 L23.5111875,17.8126875 C25.0618125,17.8126875 26.3236875,19.0745625 26.3236875,20.6251875 C26.3236875,22.1758125 25.0618125,23.4376875 23.5111875,23.4376875 L23.5111875,23.4376875 Z" id="Fill-2" fill="#494949"></path>
                <mask id="mask-2" fill="white">
                    <use xlink:href="#path-1"></use>
                </mask>
                <g id="Clip-5"></g>
                <polygon id="Fill-4" fill="#494949" mask="url(#mask-2)" points="24.448125 43.125 26.323125 43.125 26.323125 20.625 24.448125 20.625"></polygon>
                <path d="M36.4929375,19.6876875 C35.9773125,19.6876875 35.5554375,20.1095625 35.5554375,20.6251875 C35.5554375,21.1408125 35.9773125,21.5626875 36.4929375,21.5626875 L43.0760625,21.5626875 C43.5916875,21.5626875 44.0135625,21.1408125 44.0135625,20.6251875 C44.0135625,20.1095625 43.5916875,19.6876875 43.0760625,19.6876875 L36.4929375,19.6876875 Z M43.0760625,23.4376875 L36.4929375,23.4376875 C34.9423125,23.4376875 33.6804375,22.1758125 33.6804375,20.6251875 C33.6804375,19.0745625 34.9423125,17.8126875 36.4929375,17.8126875 L43.0760625,17.8126875 C44.6266875,17.8126875 45.8885625,19.0745625 45.8885625,20.6251875 C45.8885625,22.1758125 44.6266875,23.4376875 43.0760625,23.4376875 L43.0760625,23.4376875 Z" id="Fill-6" fill="#494949" mask="url(#mask-2)"></path>
                <polygon id="Fill-7" fill="#494949" mask="url(#mask-2)" points="33.680625 43.125 35.555625 43.125 35.555625 20.625 33.680625 20.625"></polygon>
                <polygon id="Fill-8" fill="#494949" mask="url(#mask-2)" points="29.0625 56.25 30.9375 56.25 30.9375 41.25 29.0625 41.25"></polygon>
                <path d="M37.5,41.2501875 C37.5,45.3920625 34.141875,46.8751875 30,46.8751875 C25.858125,46.8751875 22.5,45.3920625 22.5,41.2501875 C22.5,37.1083125 25.858125,35.6251875 30,35.6251875 C34.141875,35.6251875 37.5,37.1083125 37.5,41.2501875" id="Fill-9" fill="#FFFFFF" mask="url(#mask-2)"></path>
                <path d="M30,36.5626875 C25.64625,36.5626875 23.4375,38.1395625 23.4375,41.2501875 C23.4375,44.3608125 25.64625,45.9376875 30,45.9376875 C34.35375,45.9376875 36.5625,44.3608125 36.5625,41.2501875 C36.5625,38.1395625 34.35375,36.5626875 30,36.5626875 M30,47.8126875 C24.639375,47.8126875 21.5625,45.4220625 21.5625,41.2501875 C21.5625,37.0783125 24.639375,34.6876875 30,34.6876875 C35.360625,34.6876875 38.4375,37.0783125 38.4375,41.2501875 C38.4375,45.4220625 35.360625,47.8126875 30,47.8126875" id="Fill-10" fill="#494949" mask="url(#mask-2)"></path>
                <path d="M16.875,20.680125 C16.875,22.438875 19.28625,24.3945 19.790625,26.25075 C20.885625,30.267 19.96125,33.805125 15,33.805125 C7.75125,33.805125 3.75,27.928875 3.75,20.680125 C3.75,13.431375 7.75125,7.555125 15,7.555125 C19.914375,7.555125 20.900625,11.0295 19.820625,15.00075 C19.306875,16.887 16.875,18.88575 16.875,20.680125" id="Fill-11" fill="#FFFFFF" mask="url(#mask-2)"></path>
                <path d="M15,8.492625 C7.875,8.492625 4.6875,14.6145 4.6875,20.680125 C4.6875,26.74575 7.875,32.867625 15,32.867625 C16.6875,32.867625 17.885625,32.421375 18.556875,31.540125 C19.366875,30.48075 19.483125,28.68825 18.885,26.49825 C18.705,25.828875 18.140625,25.037625 17.595,24.2745 C16.779375,23.1345 15.9375,21.95325 15.9375,20.680125 C15.9375,19.38825 16.78875,18.182625 17.611875,17.020125 C18.163125,16.240125 18.73125,15.433875 18.916875,14.75325 C19.494375,12.62325 19.374375,10.87575 18.57375,9.8295 C17.896875,8.94075 16.693125,8.492625 15,8.492625 M15,34.742625 C7.71,34.742625 2.8125,29.091375 2.8125,20.680125 C2.8125,12.268875 7.71,6.617625 15,6.617625 C17.308125,6.617625 19.014375,7.315125 20.064375,8.6895 C21.24375,10.2345 21.4725,12.501375 20.72625,15.246375 C20.4525,16.247625 19.786875,17.19075 19.141875,18.100125 C18.4875,19.026375 17.8125,19.982625 17.8125,20.680125 C17.8125,21.351375 18.47625,22.28325 19.119375,23.185125 C19.7625,24.08325 20.42625,25.01325 20.694375,26.005125 C21.459375,28.813875 21.23625,31.120125 20.0475,32.676375 C19.00125,34.048875 17.304375,34.742625 15,34.742625" id="Fill-12" fill="#494949" mask="url(#mask-2)"></path>
                <path d="M56.25,20.57025 C56.25,27.819 52.24875,33.69525 45,33.69525 C40.085625,33.69525 39.099375,30.220875 40.179375,26.249625 C40.693125,24.3615 43.125,22.36275 43.125,20.57025 C43.125,18.8115 40.71375,16.855875 40.209375,14.999625 C39.114375,10.983375 40.03875,7.44525 45,7.44525 C52.24875,7.44525 56.25,13.3215 56.25,20.57025" id="Fill-13" fill="#FFFFFF" mask="url(#mask-2)"></path>
                <path d="M45,8.38275 C43.3125,8.38275 42.114375,8.829 41.443125,9.71025 C40.633125,10.769625 40.516875,12.562125 41.115,14.752125 C41.295,15.4215 41.859375,16.21275 42.405,16.975875 C43.220625,18.115875 44.0625,19.297125 44.0625,20.57025 C44.0625,21.86025 43.213125,23.064 42.39,24.228375 C41.83875,25.008375 41.270625,25.814625 41.083125,26.497125 C40.505625,28.627125 40.625625,30.374625 41.42625,31.420875 C42.103125,32.309625 43.306875,32.75775 45,32.75775 C52.125,32.75775 55.3125,26.635875 55.3125,20.57025 C55.3125,14.504625 52.125,8.38275 45,8.38275 M45,34.63275 C42.691875,34.63275 40.985625,33.93525 39.935625,32.560875 C38.75625,31.015875 38.5275,28.749 39.27375,26.004 C39.5475,25.00275 40.213125,24.05775 40.858125,23.1465 C41.5125,22.222125 42.1875,21.265875 42.1875,20.57025 C42.1875,19.899 41.52375,18.967125 40.880625,18.06525 C40.2375,17.167125 39.57375,16.237125 39.305625,15.24525 C38.540625,12.4365 38.76375,10.13025 39.9525,8.574 C40.99875,7.2015 42.695625,6.50775 45,6.50775 C52.29,6.50775 57.1875,12.159 57.1875,20.57025 C57.1875,28.9815 52.29,34.63275 45,34.63275" id="Fill-14" fill="#494949" mask="url(#mask-2)"></path>
                <path d="M15,17.365875 C14.76,17.365875 14.52,17.274 14.33625,17.092125 L12.909375,15.663375 C12.541875,15.295875 12.541875,14.703375 12.909375,14.33775 C13.275,13.97025 13.8675,13.97025 14.235,14.33775 L15.66375,15.764625 C16.029375,16.132125 16.029375,16.724625 15.66375,17.092125 C15.48,17.274 15.24,17.365875 15,17.365875" id="Fill-15" fill="#494949" mask="url(#mask-2)"></path>
                <path d="M13.5718125,27.1876875 C13.3318125,27.1876875 13.0918125,27.0958125 12.9080625,26.9139375 C12.5424375,26.5464375 12.5424375,25.9539375 12.9080625,25.5864375 L14.3368125,24.1595625 C14.7043125,23.7920625 15.2968125,23.7920625 15.6624375,24.1595625 C16.0299375,24.5251875 16.0299375,25.1176875 15.6624375,25.4851875 L14.2355625,26.9139375 C14.0518125,27.0958125 13.8118125,27.1876875 13.5718125,27.1876875" id="Fill-16" fill="#494949" mask="url(#mask-2)"></path>
                <path d="M13.6725,21.5626875 L11.754375,21.5626875 C11.235,21.5626875 10.816875,21.1426875 10.816875,20.6251875 C10.816875,20.1076875 11.235,19.6876875 11.754375,19.6876875 L13.6725,19.6876875 C14.19,19.6876875 14.61,20.1076875 14.61,20.6251875 C14.61,21.1426875 14.19,21.5626875 13.6725,21.5626875" id="Fill-17" fill="#494949" mask="url(#mask-2)"></path>
                <path d="M45,17.365875 C44.76,17.365875 44.52,17.274 44.33625,17.092125 C43.970625,16.724625 43.970625,16.132125 44.33625,15.764625 L45.765,14.33775 C46.1325,13.97025 46.725,13.97025 47.090625,14.33775 C47.458125,14.703375 47.458125,15.295875 47.090625,15.663375 L45.66375,17.092125 C45.48,17.274 45.24,17.365875 45,17.365875" id="Fill-18" fill="#494949" mask="url(#mask-2)"></path>
                <path d="M46.4281875,27.1876875 C46.1881875,27.1876875 45.9481875,27.0958125 45.7644375,26.9139375 L44.3375625,25.4851875 C43.9700625,25.1176875 43.9700625,24.5251875 44.3375625,24.1595625 C44.7031875,23.7920625 45.2956875,23.7920625 45.6631875,24.1595625 L47.0919375,25.5864375 C47.4575625,25.9539375 47.4575625,26.5464375 47.0919375,26.9139375 C46.9081875,27.0958125 46.6681875,27.1876875 46.4281875,27.1876875" id="Fill-19" fill="#494949" mask="url(#mask-2)"></path>
                <path d="M48.246375,21.5626875 L46.32825,21.5626875 C45.808875,21.5626875 45.39075,21.1426875 45.39075,20.6251875 C45.39075,20.1076875 45.808875,19.6876875 46.32825,19.6876875 L48.246375,19.6876875 C48.763875,19.6876875 49.183875,20.1076875 49.183875,20.6251875 C49.183875,21.1426875 48.763875,21.5626875 48.246375,21.5626875" id="Fill-20" fill="#494949" mask="url(#mask-2)"></path>
            </g>
        </g>
    </g>
</svg>