<?xml version="1.0" encoding="UTF-8"?>
<svg width="60px" height="60px" viewBox="0 0 60 60" version="1.1" xmlns="http://www.w3.org/2000/svg" xmlns:xlink="http://www.w3.org/1999/xlink">
    <!-- Generator: Sketch 60.1 (88133) - https://sketch.com -->
    <title>성형외과 60*60</title>
    <desc>Created with Sketch.</desc>
    <g id="성형외과-60*60" stroke="none" stroke-width="1" fill="none" fill-rule="evenodd">
        <g id="Group-37">
            <polygon id="Fill-1" points="0 60 60 60 60 0.001875 0 0.001875"></polygon>
            <g id="Group-36" transform="translate(7.500000, 3.750000)">
                <path d="M22.5,0.1100625 C10.074375,0.1100625 0,10.1844375 0,22.6100625 L0,29.8906875 C0,42.3163125 10.074375,52.3906875 22.5,52.3906875 C34.925625,52.3906875 45,42.3163125 45,29.8906875 L45,22.6100625 C45,10.1844375 34.925625,0.1100625 22.5,0.1100625 M22.5,1.9850625 C33.871875,1.9850625 43.125,11.2381875 43.125,22.6100625 L43.125,29.8906875 C43.125,41.2625625 33.871875,50.5156875 22.5,50.5156875 C11.128125,50.5156875 1.875,41.2625625 1.875,29.8906875 L1.875,22.6100625 C1.875,11.2381875 11.128125,1.9850625 22.5,1.9850625" id="Fill-2" fill="#494949"></path>
                <path d="M15,22.5001875 C15,23.5351875 14.161875,24.3751875 13.125,24.3751875 C12.088125,24.3751875 11.25,23.5351875 11.25,22.5001875 C11.25,21.4633125 12.088125,20.6251875 13.125,20.6251875 C14.161875,20.6251875 15,21.4633125 15,22.5001875" id="Fill-4" fill="#494949"></path>
                <path d="M33.75,22.5001875 C33.75,23.5351875 32.911875,24.3751875 31.875,24.3751875 C30.838125,24.3751875 30,23.5351875 30,22.5001875 C30,21.4633125 30.838125,20.6251875 31.875,20.6251875 C32.911875,20.6251875 33.75,21.4633125 33.75,22.5001875" id="Fill-6" fill="#494949"></path>
                <path d="M39.439125,20.2276875 C39.08475,20.2276875 38.741625,20.0233125 38.586,19.6764375 C38.46975,19.4251875 38.344125,19.1908125 38.2035,18.9733125 C37.92225,18.5383125 38.04975,17.9570625 38.48475,17.6776875 C38.91975,17.3964375 39.501,17.5239375 39.78225,17.9589375 C39.96975,18.2533125 40.140375,18.5645625 40.29225,18.9039375 C40.506,19.3745625 40.297875,19.9314375 39.825375,20.1433125 C39.701625,20.1995625 39.5685,20.2276875 39.439125,20.2276875" id="Fill-8" fill="#494949"></path>
                <path d="M31.391625,16.3111875 C31.01475,16.3111875 30.6585,16.0824375 30.516,15.7093125 C30.33225,15.2255625 30.57225,14.6836875 31.056,14.4980625 C31.6785,14.2599375 32.265375,14.1211875 32.850375,14.0780625 C33.367875,14.0368125 33.814125,14.4268125 33.855375,14.9443125 C33.89475,15.4599375 33.506625,15.9080625 32.991,15.9493125 C32.591625,15.9774375 32.17725,16.0768125 31.72725,16.2493125 C31.616625,16.2905625 31.504125,16.3111875 31.391625,16.3111875 M36.990375,17.4155625 C36.8085,17.4155625 36.622875,17.3630625 36.45975,17.2505625 C36.06975,16.9824375 35.64975,16.7368125 35.19975,16.5005625 C34.74225,16.2586875 34.566,15.6905625 34.807875,15.2330625 C35.051625,14.7736875 35.6235,14.6011875 36.075375,14.8411875 C36.589125,15.1130625 37.072875,15.3980625 37.522875,15.7055625 C37.9485,15.9980625 38.05725,16.5811875 37.762875,17.0086875 C37.582875,17.2730625 37.290375,17.4155625 36.990375,17.4155625" id="Fill-10" fill="#494949"></path>
                <path d="M28.1506875,18.252 C27.8656875,18.252 27.5825625,18.122625 27.3988125,17.875125 C27.0894375,17.458875 27.1738125,16.872 27.5900625,16.562625 C27.8581875,16.363875 28.1206875,16.172625 28.3794375,15.992625 C28.8050625,15.702 29.3881875,15.801375 29.6844375,16.228875 C29.9806875,16.6545 29.8738125,17.2395 29.4481875,17.533875 C29.2044375,17.702625 28.9606875,17.88075 28.7113125,18.066375 C28.5425625,18.192 28.3456875,18.252 28.1506875,18.252" id="Fill-12" fill="#494949"></path>
                <path d="M5.6049375,20.268 C5.4755625,20.268 5.3424375,20.239875 5.2186875,20.183625 C4.7461875,19.97175 4.5380625,19.414875 4.7518125,18.94425 C4.9055625,18.603 5.0761875,18.288 5.2674375,17.993625 C5.5505625,17.5605 6.1336875,17.438625 6.5649375,17.719875 C6.9980625,18.001125 7.1218125,18.582375 6.8386875,19.0155 C6.6980625,19.233 6.5724375,19.467375 6.4580625,19.71675 C6.3024375,20.063625 5.9593125,20.268 5.6049375,20.268" id="Fill-14" fill="#494949"></path>
                <path d="M13.65225,16.349625 C13.53975,16.349625 13.42725,16.329 13.316625,16.28775 C12.870375,16.117125 12.456,16.01775 12.052875,15.989625 C11.53725,15.948375 11.149125,15.50025 11.1885,14.98275 C11.227875,14.467125 11.670375,14.073375 12.1935,14.118375 C12.78225,14.163375 13.371,14.298375 13.987875,14.5365 C14.471625,14.722125 14.711625,15.264 14.527875,15.74775 C14.385375,16.120875 14.029125,16.349625 13.65225,16.349625 M8.0535,17.454 C7.7535,17.454 7.461,17.3115 7.281,17.047125 C6.986625,16.619625 7.095375,16.0365 7.521,15.744 C7.969125,15.438375 8.451,15.15525 8.962875,14.8815 C9.416625,14.634 9.9885,14.8065 10.23225,15.264 C10.477875,15.719625 10.305375,16.289625 9.84975,16.533375 C9.397875,16.77525 8.976,17.019 8.584125,17.289 C8.421,17.4015 8.235375,17.454 8.0535,17.454" id="Fill-16" fill="#494949"></path>
                <path d="M16.893375,18.2904375 C16.698375,18.2904375 16.5015,18.2304375 16.33275,18.1048125 C16.0815,17.9191875 15.835875,17.7410625 15.592125,17.5685625 C15.168375,17.2723125 15.063375,16.6891875 15.363375,16.2635625 C15.65775,15.8379375 16.24275,15.7366875 16.668375,16.0348125 C16.927125,16.2148125 17.18775,16.4023125 17.454,16.6010625 C17.87025,16.9104375 17.954625,17.4973125 17.64525,17.9135625 C17.4615,18.1610625 17.178375,18.2904375 16.893375,18.2904375" id="Fill-18" fill="#494949"></path>
                <path d="M33.03225,42.786375 C32.752875,42.786375 32.475375,42.662625 32.28975,42.4245 C31.97475,42.013875 32.04975,41.42325 32.456625,41.106375 C32.696625,40.922625 32.917875,40.738875 33.116625,40.558875 C33.499125,40.206375 34.091625,40.2345 34.44225,40.617 C34.791,40.9995 34.76475,41.592 34.384125,41.942625 C34.14975,42.156375 33.88725,42.372 33.607875,42.591375 C33.435375,42.722625 33.232875,42.786375 33.03225,42.786375" id="Fill-20" fill="#494949"></path>
                <path d="M28.657875,45.4359375 C28.3185,45.4359375 27.990375,45.2503125 27.825375,44.9278125 C27.58725,44.4646875 27.769125,43.9021875 28.2285,43.6659375 C28.761,43.3921875 29.291625,43.1071875 29.80725,42.8146875 C30.251625,42.5615625 30.82725,42.7153125 31.086,43.1690625 C31.341,43.6190625 31.181625,44.1909375 30.72975,44.4478125 C30.191625,44.7515625 29.6385,45.0478125 29.08725,45.3309375 C28.9485,45.4021875 28.80225,45.4359375 28.657875,45.4359375 M16.32225,45.4415625 C16.177875,45.4415625 16.031625,45.4078125 15.892875,45.3365625 C15.33975,45.0534375 14.786625,44.7571875 14.2485,44.4515625 C13.7985,44.1965625 13.641,43.6228125 13.897875,43.1728125 C14.152875,42.7209375 14.72475,42.5615625 15.176625,42.8203125 C15.690375,43.1128125 16.219125,43.3978125 16.74975,43.6715625 C17.211,43.9078125 17.392875,44.4703125 17.15475,44.9315625 C16.98975,45.2559375 16.661625,45.4415625 16.32225,45.4415625 M20.96475,47.5959375 C20.842875,47.5959375 20.721,47.5734375 20.601,47.5228125 C20.111625,47.3165625 19.534125,47.0653125 18.904125,46.7803125 C18.431625,46.5684375 18.2235,46.0115625 18.43725,45.5409375 C18.649125,45.0684375 19.211625,44.8584375 19.676625,45.0740625 C20.291625,45.3515625 20.856,45.5953125 21.330375,45.7940625 C21.8085,45.9965625 22.031625,46.5478125 21.829125,47.0240625 C21.67725,47.3821875 21.330375,47.5959375 20.96475,47.5959375 M24.01725,47.5978125 C23.6535,47.5978125 23.306625,47.3859375 23.15475,47.0296875 C22.95225,46.5534375 23.1735,46.0021875 23.64975,45.7978125 C24.124125,45.5953125 24.6885,45.3496875 25.305375,45.0703125 C25.77975,44.8546875 26.332875,45.0665625 26.546625,45.5390625 C26.7585,46.0115625 26.5485,46.5665625 26.077875,46.7803125 C25.446,47.0634375 24.870375,47.3165625 24.386625,47.5228125 C24.266625,47.5753125 24.141,47.5978125 24.01725,47.5978125" id="Fill-22" fill="#494949"></path>
                <path d="M11.9641875,42.790125 C11.7635625,42.790125 11.5591875,42.726375 11.3866875,42.59325 C11.1073125,42.373875 10.8466875,42.1545 10.6141875,41.938875 C10.2335625,41.586375 10.2091875,40.993875 10.5616875,40.615125 C10.9123125,40.232625 11.5085625,40.210125 11.8854375,40.562625 C12.0841875,40.7445 12.3054375,40.92825 12.5416875,41.112 C12.9485625,41.43075 13.0216875,42.021375 12.7048125,42.430125 C12.5191875,42.666375 12.2416875,42.790125 11.9641875,42.790125" id="Fill-24" fill="#494949"></path>
                <path d="M15,8.6025 C14.59125,8.6025 14.21625,8.334375 14.1,7.92375 C13.955625,7.426875 14.244375,6.9075 14.74125,6.765 C15.058125,6.673125 15.37125,6.590625 15.680625,6.515625 C16.190625,6.39375 16.693125,6.699375 16.815,7.201875 C16.93875,7.704375 16.63125,8.2125 16.12875,8.334375 C15.84,8.4075 15.553125,8.4825 15.25875,8.565 C15.1725,8.59125 15.08625,8.6025 15,8.6025" id="Fill-26" fill="#494949"></path>
                <path d="M19.0869375,7.862625 C18.6031875,7.862625 18.1925625,7.491375 18.1550625,7.000125 C18.1119375,6.4845 18.4981875,6.03075 19.0138125,5.991375 C19.5781875,5.946375 20.1838125,5.9145 20.8531875,5.897625 C21.4325625,5.9595 21.8019375,6.295125 21.8150625,6.81075 C21.8281875,7.330125 21.4194375,7.7595 20.9019375,7.772625 C20.2681875,7.7895 19.6944375,7.817625 19.1638125,7.858875 C19.1375625,7.86075 19.1131875,7.862625 19.0869375,7.862625 M25.8931875,7.881375 C25.8631875,7.881375 25.8369375,7.8795 25.8069375,7.877625 C25.2763125,7.828875 24.7063125,7.795125 24.0725625,7.776375 C23.5569375,7.7595 23.1500625,7.32825 23.1650625,6.808875 C23.1838125,6.29325 23.5438125,5.8845 24.1306875,5.901375 C24.8056875,5.923875 25.4113125,5.957625 25.9756875,6.010125 C26.4913125,6.057 26.8700625,6.51075 26.8250625,7.02825 C26.7819375,7.513875 26.3731875,7.881375 25.8931875,7.881375" id="Fill-28" fill="#494949"></path>
                <path d="M30,8.6025 C29.926875,8.6025 29.85,8.593125 29.775,8.574375 C29.473125,8.499375 29.17875,8.428125 28.888125,8.364375 C28.381875,8.251875 28.063125,7.753125 28.17375,7.246875 C28.288125,6.744375 28.785,6.4275 29.29125,6.5325 C29.59875,6.601875 29.908125,6.676875 30.225,6.755625 C30.729375,6.879375 31.035,7.389375 30.909375,7.89 C30.804375,8.3175 30.421875,8.6025 30,8.6025" id="Fill-30" fill="#494949"></path>
                <path d="M26.25,26.2501875 C25.981875,28.0820625 24.406875,29.4883125 22.5,29.4883125 C20.596875,29.4883125 19.021875,28.0858125 18.751875,26.2558125" id="Fill-32" fill="#FFFFFF"></path>
                <path d="M22.5,30.424875 C20.173125,30.424875 18.163125,28.6905 17.82375,26.393625 C17.74875,25.879875 18.103125,25.403625 18.615,25.32675 C19.134375,25.263 19.603125,25.608 19.68,26.118 C19.8825,27.503625 21.095625,28.549875 22.5,28.549875 C23.90625,28.549875 25.119375,27.50175 25.321875,26.11425 C25.396875,25.602375 25.87875,25.253625 26.385,25.321125 C26.89875,25.396125 27.25125,25.872375 27.178125,26.386125 C26.840625,28.688625 24.830625,30.424875 22.5,30.424875" id="Fill-34" fill="#494949"></path>
            </g>
        </g>
    </g>
</svg>