<?xml version="1.0" encoding="UTF-8"?>
<svg width="60px" height="60px" viewBox="0 0 60 60" version="1.1" xmlns="http://www.w3.org/2000/svg" xmlns:xlink="http://www.w3.org/1999/xlink">
    <!-- Generator: Sketch 60.1 (88133) - https://sketch.com -->
    <title>재활의학과 60*60</title>
    <desc>Created with Sketch.</desc>
    <g id="재활의학과-60*60" stroke="none" stroke-width="1" fill="none" fill-rule="evenodd">
        <g id="Group-19">
            <polygon id="Fill-1" points="0 60 60 60 60 0.001875 0 0.001875"></polygon>
            <g id="Group-18" transform="translate(3.750000, 1.875000)">
                <path d="M36.7419375,3.7813125 C36.2600625,3.7813125 35.7781875,3.9650625 35.4125625,4.3325625 L22.1075625,17.6356875 C21.7381875,18.0050625 21.5394375,18.5113125 21.5581875,19.0363125 L21.7438125,27.3856875 C21.7625625,27.8619375 21.9575625,28.3119375 22.2931875,28.6475625 L25.7038125,32.0581875 C26.0394375,32.3938125 26.4875625,32.5888125 26.9600625,32.6075625 L35.3375625,32.8138125 C35.3619375,32.8156875 35.3863125,32.8156875 35.4106875,32.8156875 C35.9094375,32.8156875 36.3894375,32.6188125 36.7419375,32.2644375 L50.0431875,18.9631875 C50.7763125,18.2281875 50.7763125,17.0375625 50.0431875,16.3025625 L38.0731875,4.3325625 C37.7056875,3.9650625 37.2238125,3.7813125 36.7419375,3.7813125 M36.7419375,5.6563125 L36.7456875,5.6581875 L48.7175625,17.6375625 L35.3825625,30.9388125 L27.0294375,30.7325625 L23.6188125,27.3444375 L23.4331875,18.9613125 L36.7381875,5.6563125 L36.7419375,5.6563125" id="Fill-2" fill="#494949"></path>
                <path d="M23.1500625,26.9019375 L21.8244375,28.2275625 L3.5713125,46.4825625 L2.2456875,47.8081875 L3.5713125,49.1338125 L5.2213125,50.7838125 L6.5488125,52.1094375 L7.8744375,50.7838125 L26.1275625,32.5306875 L27.4531875,31.2050625 L26.1275625,29.8794375 L24.4756875,28.2275625 L23.1500625,26.9019375 Z M23.1500625,29.5531875 L24.8019375,31.2050625 L6.5488125,49.4581875 L4.8969375,47.8081875 L23.1500625,29.5531875 Z" id="Fill-4" fill="#494949"></path>
                <path d="M7.1135625,51.5405625 L5.1691875,53.4849375 C4.5185625,54.1355625 3.4666875,54.1355625 2.8160625,53.4849375 L0.8698125,51.5405625 C0.2191875,50.8899375 0.2191875,49.8380625 0.8698125,49.1874375 L2.8160625,47.2411875 C3.4666875,46.5905625 4.5185625,46.5905625 5.1691875,47.2411875 L7.1135625,49.1874375 C7.7641875,49.8380625 7.7641875,50.8899375 7.1135625,51.5405625" id="Fill-6" fill="#494949"></path>
                <polygon id="Fill-8" fill="#494949" points="20.7879375 35.2186875 19.1360625 33.5686875 20.4616875 32.2430625 22.1135625 33.8930625"></polygon>
                <path d="M39.2413125,5.9895 C38.7594375,5.9895 38.2775625,6.175125 37.9119375,6.54075 L25.9175625,18.535125 C25.5631875,18.8895 25.3663125,19.367625 25.3663125,19.866375 L25.3681875,25.191375 C25.3681875,25.690125 25.5650625,26.16825 25.9194375,26.52075 L27.8375625,28.442625 C28.1900625,28.79325 28.6663125,28.992 29.1631875,28.993875 L34.5050625,29.007 L34.5106875,29.007 C35.0094375,29.007 35.4875625,28.810125 35.8419375,28.45575 L47.8344375,16.46325 C48.5694375,15.72825 48.5694375,14.537625 47.8344375,13.802625 L40.5725625,6.54075 C40.2050625,6.175125 39.7231875,5.9895 39.2413125,5.9895 M39.2413125,7.8645 L39.2469375,7.866375 L46.5088125,15.137625 L34.5106875,27.132 L29.1650625,27.117 L27.2431875,25.191375 L27.2431875,19.86075 L39.2375625,7.866375 C39.2394375,7.866375 39.2394375,7.8645 39.2413125,7.8645" id="Fill-10" fill="#494949"></path>
                <path d="M50.407125,19.6089375 C50.118375,19.6089375 49.8465,19.4964375 49.642125,19.2920625 L35.129625,4.7795625 C34.923375,4.5733125 34.81275,4.3033125 34.81275,4.0145625 C34.81275,3.7239375 34.923375,3.4539375 35.129625,3.2476875 L36.69525,1.6820625 C36.89775,1.4795625 37.169625,1.3670625 37.46025,1.3670625 C37.749,1.3670625 38.020875,1.4795625 38.223375,1.6820625 L52.73775,16.1983125 C52.944,16.4026875 53.054625,16.6745625 53.054625,16.9633125 C53.054625,17.2520625 52.944,17.5220625 52.73775,17.7264375 L51.172125,19.2920625 C50.96775,19.4964375 50.695875,19.6089375 50.407125,19.6089375" id="Fill-12" fill="#FFFFFF"></path>
                <path d="M37.4596875,0.428625 C36.9421875,0.428625 36.4246875,0.6255 36.0309375,1.01925 L34.4653125,2.584875 C33.6759375,3.37425 33.6759375,4.653 34.4653125,5.442375 L48.9796875,19.954875 C49.3734375,20.3505 49.8909375,20.5455 50.4065625,20.5455 C50.9240625,20.5455 51.4415625,20.3505 51.8353125,19.954875 L53.4009375,18.38925 C54.1903125,17.60175 54.1903125,16.324875 53.4009375,15.5355 L38.8865625,1.01925 C38.4928125,0.6255 37.9753125,0.428625 37.4596875,0.428625 M37.4596875,2.303625 C37.5178125,2.303625 37.5515625,2.337375 37.5609375,2.344875 L52.0753125,16.861125 C52.1315625,16.917375 52.1315625,17.00925 52.0753125,17.063625 L50.5096875,18.62925 C50.4984375,18.6405 50.4665625,18.6705 50.4065625,18.6705 C50.3484375,18.6705 50.3146875,18.6405 50.3071875,18.62925 L35.7909375,4.11675 C35.7346875,4.0605 35.7346875,3.968625 35.7909375,3.9105 L37.3565625,2.344875 C37.3678125,2.337375 37.3996875,2.303625 37.4596875,2.303625" id="Fill-14" fill="#494949"></path>
                <path d="M38.7744375,24.7119375 C38.5344375,24.7119375 38.2944375,24.6200625 38.1106875,24.4381875 L29.7913125,16.1169375 C29.4256875,15.7513125 29.4256875,15.1569375 29.7913125,14.7913125 C30.1569375,14.4256875 30.7513125,14.4256875 31.1169375,14.7913125 L39.4381875,23.1106875 C39.8038125,23.4781875 39.8038125,24.0706875 39.4381875,24.4381875 C39.2544375,24.6200625 39.0144375,24.7119375 38.7744375,24.7119375" id="Fill-16" fill="#494949"></path>
            </g>
        </g>
    </g>
</svg>