<?xml version="1.0" encoding="UTF-8"?>
<svg width="31px" height="32px" viewBox="0 0 31 32" version="1.1" xmlns="http://www.w3.org/2000/svg" xmlns:xlink="http://www.w3.org/1999/xlink">
    <!-- Generator: Sketch 60.1 (88133) - https://sketch.com -->
    <title>검색icon</title>
    <desc>Created with Sketch.</desc>
    <defs>
        <polygon id="path-1" points="4.191048e-16 0.0531141699 25.480983 0.0531141699 25.480983 25.2123996 4.191048e-16 25.2123996"></polygon>
        <polygon id="path-3" points="0.0949852173 0.113562395 9.83125014 0.113562395 9.83125014 9.72697172 0.0949852173 9.72697172"></polygon>
    </defs>
    <g id="웹_리뷰검색(PC)_191125(1차수정)" stroke="none" stroke-width="1" fill="none" fill-rule="evenodd">
        <g id="D1_병원찾기_메인화면ver.2_1024" transform="translate(-781.000000, -365.000000)">
            <g id="검색창" transform="translate(195.000000, 349.000000)">
                <g id="검색icon" transform="translate(586.000000, 16.000000)">
                    <path d="M13.3863636,25.0434783 C10.1856138,25.0434783 7.17646836,23.8133263 4.91316397,21.5796293 C0.241066556,16.96865 0.241066556,9.46613263 4.91316397,4.85503382 C7.17646836,2.6214563 10.1856138,1.39130435 13.3863636,1.39130435 C16.5871135,1.39130435 19.5962589,2.6214563 21.8595633,4.85503382 C26.5316607,9.46613263 26.5316607,16.96865 21.8595633,21.5796293 C19.5962589,23.8133263 16.5871135,25.0434783 13.3863636,25.0434783" id="Fill-1"></path>
                    <g id="Group-5">
                        <mask id="mask-2" fill="white">
                            <use xlink:href="#path-1"></use>
                        </mask>
                        <g id="Clip-4"></g>
                        <path d="M12.7404915,0.0530559307 C9.47986941,0.0530559307 6.2193653,1.28120463 3.7315484,3.73750204 C-1.24384947,8.65021332 -1.24384947,16.6152422 3.7315484,21.527837 C6.2193653,23.9842509 9.47986941,25.2123996 12.7404915,25.2123996 C16.0011136,25.2123996 19.2616177,23.9842509 21.7494346,21.527837 C26.7248325,16.6152422 26.7248325,8.65021332 21.7494346,3.73750204 C19.2616177,1.28120463 16.0011136,0.0530559307 12.7404915,0.0530559307 M12.7404915,2.1496679 C15.5764305,2.1496679 18.2426143,3.24013908 20.2479441,5.22003966 C24.3874241,9.30738469 24.3874241,15.9580708 20.2479441,20.0454159 C18.2426143,22.0254329 15.5764305,23.1157876 12.7404915,23.1157876 C9.90455246,23.1157876 7.23836868,22.0254329 5.23303892,20.0454159 C1.09355885,15.9580708 1.09355885,9.30738469 5.23303892,5.22003966 C7.23836868,3.24013908 9.90455246,2.1496679 12.7404915,2.1496679" id="Fill-3" fill="#FFFFFF" mask="url(#mask-2)"></path>
                    </g>
                    <polygon id="Fill-6" fill="#FFFFFF" points="23.9545455 23.8509518 22.7468142 25.0434783 19.7272727 22.0619512 20.9351463 20.8695652"></polygon>
                    <g id="Group-10" transform="translate(21.136364, 22.260870)">
                        <mask id="mask-4" fill="white">
                            <use xlink:href="#path-3"></use>
                        </mask>
                        <g id="Clip-9"></g>
                        <path d="M9.77646448,7.781395 L7.86075173,9.67280465 C7.7877288,9.74502741 7.66914351,9.74502741 7.59599745,9.67280465 L0.546514414,2.71242686 C-0.0555245148,2.11786571 -0.0555245148,1.15392281 0.546514414,0.559483255 C1.14867648,-0.0350778918 2.12494252,-0.0350778918 2.72698144,0.559483255 L9.77646448,7.51986104 C9.84961054,7.59196222 9.84961054,7.70917223 9.77646448,7.781395" id="Fill-8" fill="#FFFFFF" mask="url(#mask-4)"></path>
                    </g>
                </g>
            </g>
        </g>
    </g>
</svg>