<?xml version="1.0" encoding="UTF-8"?>
<svg width="60px" height="60px" viewBox="0 0 60 60" version="1.1" xmlns="http://www.w3.org/2000/svg" xmlns:xlink="http://www.w3.org/1999/xlink">
    <!-- Generator: Sketch 60.1 (88133) - https://sketch.com -->
    <title>정형외과 60*60</title>
    <desc>Created with Sketch.</desc>
    <g id="정형외과-60*60" stroke="none" stroke-width="1" fill="none" fill-rule="evenodd">
        <g id="Group-29">
            <polygon id="Fill-1" points="0 60 60 60 60 0.001875 0 0.001875"></polygon>
            <g id="Group-28" transform="translate(3.750000, 1.875000)">
                <path d="M15.92475,36.8758125 L7.174125,36.8758125 C3.54975,36.8758125 0.611625,39.8120625 0.611625,43.4383125 C0.611625,47.0626875 3.54975,50.0008125 7.174125,50.0008125 L15.92475,50.0008125 C19.549125,50.0008125 22.48725,47.0626875 22.48725,43.4383125 C22.48725,39.8120625 19.549125,36.8758125 15.92475,36.8758125 M15.92475,38.7508125 C18.5085,38.7508125 20.61225,40.8526875 20.61225,43.4383125 C20.61225,46.0220625 18.5085,48.1258125 15.92475,48.1258125 L7.174125,48.1258125 C4.590375,48.1258125 2.486625,46.0220625 2.486625,43.4383125 C2.486625,40.8526875 4.590375,38.7508125 7.174125,38.7508125 L15.92475,38.7508125" id="Fill-2" fill="#494949"></path>
                <polyline id="Fill-4" fill="#FFFFFF" points="48.75 2.7594375 48.75 12.7625625 30 12.7625625 30 2.7594375"></polyline>
                <path d="M48.75,13.7000625 L30,13.7000625 C29.4825,13.7000625 29.0625,13.2800625 29.0625,12.7625625 L29.0625,2.7594375 C29.0625,2.2419375 29.4825,1.8219375 30,1.8219375 C30.5175,1.8219375 30.9375,2.2419375 30.9375,2.7594375 L30.9375,11.8250625 L47.8125,11.8250625 L47.8125,2.7594375 C47.8125,2.2419375 48.2325,1.8219375 48.75,1.8219375 C49.2675,1.8219375 49.6875,2.2419375 49.6875,2.7594375 L49.6875,12.7625625 C49.6875,13.2800625 49.2675,13.7000625 48.75,13.7000625" id="Fill-6" fill="#494949"></path>
                <path d="M11.2005,53.4376875 C8.614875,53.4376875 6.513,51.3358125 6.513,48.7501875 L6.513,38.1245625 C6.513,35.5389375 8.614875,33.4370625 11.2005,33.4370625 L22.486125,33.4370625 C22.4955,33.4389375 22.636125,33.4464375 22.83675,33.4464375 C23.922375,33.4464375 25.388625,33.2495625 26.217375,32.3120625 C27.308625,31.0689375 27.199875,29.2670625 27.183,29.0683125 L27.18675,16.2508125 C27.18675,13.6651875 29.288625,11.5633125 31.87425,11.5633125 L46.87425,11.5633125 C49.459875,11.5633125 51.56175,13.6651875 51.56175,16.2508125 L51.56175,45.0001875 C51.56175,49.6520625 47.778,53.4376875 43.12425,53.4376875 L11.2005,53.4376875 Z" id="Fill-8" fill="#FFFFFF"></path>
                <path d="M46.875,10.6258125 L31.875,10.6258125 C28.768125,10.6258125 26.25,13.1439375 26.25,16.2508125 L26.25,29.1414375 C26.25,29.1414375 26.37375,30.7126875 25.513125,31.6914375 C24.871875,32.4208125 23.476875,32.5089375 22.8375,32.5089375 C22.6275,32.5089375 22.5,32.4995625 22.5,32.4995625 L11.20125,32.4995625 C8.0925,32.4995625 5.57625,35.0195625 5.57625,38.1245625 L5.57625,48.7501875 C5.57625,51.8570625 8.0925,54.3751875 11.20125,54.3751875 L30.245625,54.3751875 L30.575625,54.3751875 L43.125,54.3751875 C48.30375,54.3751875 52.5,50.1789375 52.5,45.0001875 L52.5,16.2508125 C52.5,13.1439375 49.981875,10.6258125 46.875,10.6258125 M46.875,12.5008125 C48.943125,12.5008125 50.625,14.1808125 50.625,16.2508125 L50.625,45.0001875 C50.625,49.1345625 47.26125,52.5001875 43.125,52.5001875 L30.575625,52.5001875 L30.245625,52.5001875 L11.20125,52.5001875 C9.133125,52.5001875 7.45125,50.8183125 7.45125,48.7501875 L7.45125,38.1245625 C7.45125,36.0564375 9.133125,34.3745625 11.20125,34.3745625 L22.445625,34.3745625 C22.524375,34.3783125 22.66125,34.3839375 22.8375,34.3839375 C24.114375,34.3839375 25.861875,34.1326875 26.919375,32.9308125 C28.1625,31.5226875 28.15125,29.5745625 28.125,29.0851875 L28.125,16.2508125 C28.125,14.1808125 29.806875,12.5008125 31.875,12.5008125 L46.875,12.5008125" id="Fill-10" fill="#494949"></path>
                <path d="M51.15975,24.7138125 C51.071625,24.7138125 50.97975,24.7006875 50.88975,24.6744375 L27.855375,17.7725625 C27.360375,17.6244375 27.07725,17.1013125 27.22725,16.6063125 C27.375375,16.1113125 27.892875,15.8281875 28.3935,15.9781875 L51.42975,22.8781875 C51.92475,23.0281875 52.207875,23.5494375 52.057875,24.0463125 C51.936,24.4513125 51.562875,24.7138125 51.15975,24.7138125" id="Fill-12" fill="#494949"></path>
                <path d="M51.15975,33.037875 C51.071625,33.037875 50.97975,33.02475 50.88975,32.9985 L27.855375,26.09475 C27.360375,25.946625 27.07725,25.4235 27.22725,24.9285 C27.375375,24.431625 27.892875,24.1485 28.3935,24.300375 L51.42975,31.20225 C51.92475,31.35225 52.207875,31.8735 52.057875,32.370375 C51.936,32.775375 51.562875,33.037875 51.15975,33.037875" id="Fill-14" fill="#494949"></path>
                <path d="M31.2195,27.0301875 C30.78825,27.0301875 30.39825,26.7283125 30.3045,26.2876875 C30.197625,25.7795625 30.522,25.2808125 31.026375,25.1758125 L46.922625,21.8270625 C47.4345,21.7108125 47.927625,22.0426875 48.0345,22.5489375 C48.1395,23.0570625 47.817,23.5539375 47.31075,23.6608125 L31.4145,27.0095625 C31.348875,27.0226875 31.28325,27.0301875 31.2195,27.0301875" id="Fill-16" fill="#494949"></path>
                <path d="M16.873125,53.9941875 C16.411875,53.9941875 16.00875,53.6510625 15.945,53.1785625 L13.38,33.8735625 C13.3125,33.3598125 13.6725,32.8891875 14.18625,32.8198125 C14.66625,32.7485625 15.170625,33.1104375 15.24,33.6279375 L17.805,52.9348125 C17.8725,53.4466875 17.5125,53.9173125 16.996875,53.9866875 C16.9575,53.9923125 16.914375,53.9941875 16.873125,53.9941875" id="Fill-18" fill="#494949"></path>
                <path d="M25.4315625,54.192 C24.9890625,54.192 24.5953125,53.877 24.5128125,53.425125 L20.9409375,34.165125 C20.8471875,33.657 21.1828125,33.167625 21.6928125,33.073875 C22.1896875,32.97825 22.6903125,33.313875 22.7840625,33.82575 L26.3540625,53.083875 C26.4496875,53.593875 26.1121875,54.081375 25.6040625,54.175125 C25.5478125,54.186375 25.4878125,54.192 25.4315625,54.192" id="Fill-20" fill="#494949"></path>
                <path d="M34.387125,53.7508125 C33.970875,53.7508125 33.592125,53.4751875 33.4815,53.0551875 L28.754625,35.3514375 C28.6215,34.8508125 28.919625,34.3370625 29.42025,34.2020625 C29.924625,34.0745625 30.434625,34.3689375 30.56775,34.8676875 L35.29275,52.5714375 C35.42775,53.0720625 35.129625,53.5858125 34.629,53.7189375 C34.548375,53.7395625 34.465875,53.7508125 34.387125,53.7508125" id="Fill-22" fill="#494949"></path>
                <path d="M40.435125,53.7508125 C39.972,53.7508125 39.567,53.4058125 39.507,52.9314375 L37.540125,37.6183125 C37.4745,37.1064375 37.836375,36.6358125 38.352,36.5701875 C38.848875,36.4970625 39.3345,36.8645625 39.400125,37.3820625 L41.367,52.6951875 C41.432625,53.2070625 41.07075,53.6776875 40.555125,53.7433125 C40.51575,53.7489375 40.4745,53.7508125 40.435125,53.7508125" id="Fill-24" fill="#494949"></path>
                <path d="M51.456375,42.1876875 C51.370125,42.1876875 51.282,42.1764375 51.19575,42.1501875 L24.115125,34.3314375 C23.616375,34.1851875 23.331375,33.6676875 23.473875,33.1689375 C23.61825,32.6739375 24.14325,32.3814375 24.6345,32.5295625 L51.717,40.3501875 C52.213875,40.4945625 52.50075,41.0120625 52.356375,41.5108125 C52.23825,41.9195625 51.86325,42.1876875 51.456375,42.1876875" id="Fill-26" fill="#494949"></path>
            </g>
        </g>
    </g>
</svg>