<?xml version="1.0" encoding="UTF-8"?>
<svg width="60px" height="60px" viewBox="0 0 60 60" version="1.1" xmlns="http://www.w3.org/2000/svg" xmlns:xlink="http://www.w3.org/1999/xlink">
    <!-- Generator: Sketch 60.1 (88133) - https://sketch.com -->
    <title>마취통증의학과 60*60</title>
    <desc>Created with Sketch.</desc>
    <g id="마취통증의학과-60*60" stroke="none" stroke-width="1" fill="none" fill-rule="evenodd">
        <g id="Group-30">
            <polygon id="Fill-1" points="0 60 60 60 60 0.001875 0 0.001875"></polygon>
            <polygon id="Fill-2" fill="#FFFFFF" points="51.9470625 15.7160625 43.8845625 23.7785625 36.2214375 16.1154375 44.2839375 8.0529375"></polygon>
            <g id="Group-29" transform="translate(3.750000, 3.750000)">
                <path d="M33.797625,12.36525 L40.135125,18.70275 L46.872,11.965875 L40.5345,5.628375 L33.797625,12.36525 Z M40.135125,20.965875 C39.895125,20.965875 39.655125,20.874 39.471375,20.69025 L31.80825,13.029 C31.442625,12.6615 31.442625,12.069 31.80825,11.7015 L39.87075,3.640875 C40.23825,3.273375 40.83075,3.273375 41.196375,3.640875 L48.8595,11.304 C49.227,11.669625 49.227,12.262125 48.8595,12.629625 L40.797,20.69025 C40.615125,20.874 40.375125,20.965875 40.135125,20.965875 L40.135125,20.965875 Z" id="Fill-3" fill="#494949"></path>
                <path d="M50.8190625,12.8248125 L50.8190625,12.8248125 C50.3015625,13.3404375 49.4615625,13.3404375 48.9440625,12.8248125 L39.6759375,3.5566875 C39.1584375,3.0373125 39.1584375,2.1991875 39.6759375,1.6816875 C40.1934375,1.1623125 41.0334375,1.1623125 41.5509375,1.6816875 L50.8190625,10.9498125 C51.3365625,11.4654375 51.3365625,12.3073125 50.8190625,12.8248125" id="Fill-5" fill="#FFFFFF"></path>
                <path d="M40.612875,2.2303125 C40.552875,2.2303125 40.436625,2.2453125 40.339125,2.3446875 C40.18725,2.4946875 40.18725,2.7421875 40.339125,2.8940625 L49.60725,12.1621875 C49.75725,12.3103125 50.006625,12.3140625 50.156625,12.1621875 C50.256,12.0609375 50.269125,11.9465625 50.269125,11.8846875 C50.269125,11.8265625 50.256,11.7121875 50.1585,11.6146875 L40.886625,2.3446875 C40.789125,2.2453125 40.672875,2.2303125 40.61475,2.2303125 L40.612875,2.2303125 Z M49.881,14.1478125 C49.3035,14.1478125 48.72225,13.9284375 48.2835,13.4896875 L39.011625,4.2196875 C38.13225,3.3365625 38.13225,1.9003125 39.011625,1.0190625 C39.441,0.5896875 40.009125,0.3553125 40.612875,0.3553125 L40.61475,0.3553125 C41.220375,0.3553125 41.7885,0.5915625 42.214125,1.0190625 L51.48225,10.2871875 C51.907875,10.7109375 52.1441361,11.2790625 52.1441361,11.8846875 C52.146,12.4903125 51.90975,13.0584375 51.48225,13.4878125 L51.480375,13.4896875 C51.041625,13.9284375 50.460375,14.1478125 49.881,14.1478125 L49.881,14.1478125 Z" id="Fill-7" fill="#494949"></path>
                <path d="M9.84375,41.2756875 L1.239375,49.8781875 C0.85875,50.2588125 0.85875,50.8775625 1.239375,51.2600625 C1.621875,51.6406875 2.240625,51.6406875 2.62125,51.2600625 L11.22375,42.6556875 C11.60625,42.2750625 11.60625,41.6563125 11.22375,41.2756875 C10.843125,40.8931875 10.224375,40.8931875 9.84375,41.2756875" id="Fill-9" fill="#494949"></path>
                <path d="M16.408125,41.629125 L15.103125,42.934125 C14.37,43.66725 13.18125,43.66725 12.451875,42.934125 L9.56625,40.0485 C8.833125,39.31725 8.833125,38.130375 9.56625,37.39725 L10.87125,36.09225 C11.6025,35.359125 12.789375,35.359125 13.5225,36.09225 L16.408125,38.977875 C17.14125,39.711 17.14125,40.896 16.408125,41.629125" id="Fill-11" fill="#FFFFFF"></path>
                <path d="M12.1966875,36.4801875 C11.9566875,36.4801875 11.7166875,36.5720625 11.5329375,36.7539375 L10.2279375,38.0608125 C9.8623125,38.4264375 9.8623125,39.0189375 10.2279375,39.3864375 L13.1135625,42.2720625 C13.2916875,42.4501875 13.5260625,42.5458125 13.7754375,42.5458125 L13.7773125,42.5458125 C14.0285625,42.5458125 14.2629375,42.4501875 14.4391875,42.2720625 L15.7460625,40.9670625 C16.1116875,40.5995625 16.1116875,40.0070625 15.7460625,39.6414375 L12.8604375,36.7539375 C12.6766875,36.5720625 12.4366875,36.4801875 12.1966875,36.4801875 M13.7773125,44.4208125 L13.7754375,44.4208125 C13.0216875,44.4208125 12.3166875,44.1283125 11.7879375,43.5976875 L8.9023125,40.7120625 C7.8054375,39.6151875 7.8054375,37.8320625 8.9023125,36.7351875 L10.2073125,35.4283125 C11.3023125,34.3333125 13.0910625,34.3333125 14.1860625,35.4283125 L17.0716875,38.3158125 C18.1685625,39.4108125 18.1685625,41.1958125 17.0716875,42.2926875 L15.7648125,43.5976875 C15.2341875,44.1283125 14.5273125,44.4208125 13.7773125,44.4208125" id="Fill-13" fill="#494949"></path>
                <path d="M42.2589375,21.099375 L20.4001875,42.958125 C19.6670625,43.69125 18.4801875,43.69125 17.7489375,42.958125 L9.5420625,34.75125 C8.8089375,34.02 8.8089375,32.833125 9.5420625,32.1 L31.4008125,10.24125 C32.1339375,9.508125 33.3189375,9.508125 34.0520625,10.24125 L42.2589375,18.448125 C42.9920625,19.18125 42.9920625,20.36625 42.2589375,21.099375" id="Fill-15" fill="#FFFFFF"></path>
                <path d="M32.7264375,10.629375 C32.4864375,10.629375 32.2464375,10.72125 32.0626875,10.903125 L10.2039375,32.76375 C9.8383125,33.129375 9.8383125,33.721875 10.2039375,34.089375 L18.4108125,42.29625 C18.7783125,42.661875 19.3708125,42.661875 19.7364375,42.29625 L41.5951875,20.435625 C41.9626875,20.07 41.9626875,19.4775 41.5951875,19.11 L33.3901875,10.903125 C33.2064375,10.72125 32.9664375,10.629375 32.7264375,10.629375 M19.0745625,44.443125 C18.3545625,44.443125 17.6326875,44.169375 17.0851875,43.621875 L8.8783125,35.415 C7.7814375,34.318125 7.7814375,32.535 8.8783125,31.438125 L30.7370625,9.5775 C31.8320625,8.4825 33.6208125,8.4825 34.7158125,9.5775 L42.9208125,17.784375 C44.0176875,18.88125 44.0176875,20.66625 42.9208125,21.76125 L21.0620625,43.621875 C20.5145625,44.169375 19.7945625,44.443125 19.0745625,44.443125" id="Fill-17" fill="#494949"></path>
                <path d="M46.594875,22.6063125 L46.594875,22.6063125 C46.0455,23.1556875 45.15675,23.1556875 44.60925,22.6063125 L29.89425,7.8894375 C29.344875,7.3419375 29.344875,6.4550625 29.89425,5.9056875 C30.44175,5.3581875 31.328625,5.3581875 31.876125,5.9056875 L46.594875,20.6225625 C47.142375,21.1700625 47.142375,22.0588125 46.594875,22.6063125" id="Fill-19" fill="#FFFFFF"></path>
                <path d="M30.8844375,6.4325625 C30.7681875,6.4325625 30.6481875,6.4775625 30.5563125,6.5675625 C30.4681875,6.6556875 30.4194375,6.7756875 30.4194375,6.8994375 C30.4194375,6.9706875 30.4381875,7.1075625 30.5544375,7.2256875 L45.2731875,21.9425625 C45.3913125,22.0625625 45.5300625,22.0813125 45.6013125,22.0813125 L45.6031875,22.0813125 C45.7269375,22.0813125 45.8450625,22.0306875 45.9313125,21.9425625 C46.1131875,21.7625625 46.1131875,21.4681875 45.9313125,21.2863125 L31.2144375,6.5675625 C31.1225625,6.4775625 31.0025625,6.4325625 30.8844375,6.4325625 M45.6031875,23.9563125 L45.6013125,23.9563125 C44.9750625,23.9563125 44.3863125,23.7106875 43.9456875,23.2681875 L29.2306875,8.5531875 C28.7900625,8.1125625 28.5444375,7.5256875 28.5444375,6.8994375 C28.5444375,6.2750625 28.7881875,5.6863125 29.2306875,5.2419375 C30.1419375,4.3325625 31.6269375,4.3288125 32.5400625,5.2419375 L47.2569375,19.9606875 C48.1700625,20.8719375 48.1700625,22.3569375 47.2569375,23.2681875 C46.8144375,23.7125625 46.2275625,23.9563125 45.6031875,23.9563125" id="Fill-21" fill="#494949"></path>
                <path d="M26.5228125,37.773 C26.2828125,37.773 26.0428125,37.681125 25.8590625,37.49925 L22.7353125,34.3755 C22.3696875,34.008 22.3696875,33.4155 22.7353125,33.048 C23.1028125,32.682375 23.6953125,32.682375 24.0628125,33.048 L27.1865625,36.17175 C27.5521875,36.53925 27.5521875,37.13175 27.1865625,37.49925 C27.0028125,37.681125 26.7628125,37.773 26.5228125,37.773" id="Fill-23" fill="#494949"></path>
                <path d="M31.701,32.5948125 C31.461,32.5948125 31.221,32.5029375 31.03725,32.3210625 L26.5785,27.8604375 C26.211,27.4929375 26.211,26.9004375 26.5785,26.5348125 C26.944125,26.1673125 27.536625,26.1673125 27.904125,26.5348125 L32.36475,30.9935625 C32.730375,31.3610625 32.730375,31.9535625 32.36475,32.3210625 C32.181,32.5029375 31.941,32.5948125 31.701,32.5948125" id="Fill-25" fill="#494949"></path>
                <path d="M36.780375,27.5154375 C36.540375,27.5154375 36.300375,27.4235625 36.116625,27.2416875 L32.992875,24.1179375 C32.62725,23.7504375 32.62725,23.1579375 32.992875,22.7904375 C33.360375,22.4248125 33.952875,22.4248125 34.320375,22.7904375 L37.444125,25.9141875 C37.80975,26.2816875 37.80975,26.8741875 37.444125,27.2416875 C37.260375,27.4235625 37.020375,27.5154375 36.780375,27.5154375" id="Fill-27" fill="#494949"></path>
            </g>
        </g>
    </g>
</svg>