<?xml version="1.0" encoding="UTF-8"?>
<svg width="60px" height="60px" viewBox="0 0 60 60" version="1.1" xmlns="http://www.w3.org/2000/svg" xmlns:xlink="http://www.w3.org/1999/xlink">
    <!-- Generator: Sketch 60.1 (88133) - https://sketch.com -->
    <title>외과 60*60</title>
    <desc>Created with Sketch.</desc>
    <g id="외과-60*60" stroke="none" stroke-width="1" fill="none" fill-rule="evenodd">
        <g id="Group-21">
            <polygon id="Fill-1" points="0 60 60 60 60 0.001875 0 0.001875"></polygon>
            <g id="Group-20" transform="translate(3.750000, 3.750000)" fill="#494949">
                <path d="M36.53325,14.959875 L31.660125,14.959875 C31.142625,14.959875 30.722625,14.539875 30.722625,14.022375 C30.722625,13.504875 31.142625,13.084875 31.660125,13.084875 L36.53325,13.084875 C37.05075,13.084875 37.47075,13.504875 37.47075,14.022375 C37.47075,14.539875 37.05075,14.959875 36.53325,14.959875" id="Fill-2"></path>
                <path d="M32.78325,18.5413125 L27.910125,18.5413125 C27.392625,18.5413125 26.972625,18.1213125 26.972625,17.6038125 C26.972625,17.0863125 27.392625,16.6663125 27.910125,16.6663125 L32.78325,16.6663125 C33.30075,16.6663125 33.72075,17.0863125 33.72075,17.6038125 C33.72075,18.1213125 33.30075,18.5413125 32.78325,18.5413125" id="Fill-4"></path>
                <path d="M29.03325,22.1229375 L24.160125,22.1229375 C23.642625,22.1229375 23.222625,21.7029375 23.222625,21.1854375 C23.222625,20.6679375 23.642625,20.2479375 24.160125,20.2479375 L29.03325,20.2479375 C29.55075,20.2479375 29.97075,20.6679375 29.97075,21.1854375 C29.97075,21.7029375 29.55075,22.1229375 29.03325,22.1229375" id="Fill-6"></path>
                <path d="M4.6929375,45.2968125 C3.2641875,45.2968125 1.9929375,45.0811875 0.9916875,44.5749375 C0.7254375,44.4380625 0.5379375,44.1830625 0.4910625,43.8868125 C0.4441875,43.5905625 0.5416875,43.2886875 0.7535625,43.0749375 L21.6035625,22.2249375 C21.6616875,22.1668125 21.7254375,22.1180625 21.7929375,22.0768125 L42.3466875,1.5249375 C42.7123125,1.1593125 43.3066875,1.1593125 43.6723125,1.5249375 C44.0379375,1.8924375 44.0379375,2.4849375 43.6723125,2.8505625 L22.9629375,23.5599375 C22.9048125,23.6180625 22.8410625,23.6686875 22.7735625,23.7061875 L3.1648125,43.3168125 C8.3004375,44.1999375 18.9766875,39.8536875 21.1235625,37.7068125 L22.1435625,36.6868125 C21.5004375,35.7793125 21.1535625,34.6955625 21.1535625,33.5574375 C21.1535625,30.5574375 23.5948125,28.1161875 26.5966875,28.1161875 C27.7704375,28.1161875 28.7266875,28.3824375 29.5498125,28.9430625 L32.3716875,26.1905625 L49.6910625,8.8693125 C50.0566875,8.5036875 50.6510625,8.5036875 51.0166875,8.8693125 C51.3823125,9.2368125 51.3823125,9.8293125 51.0166875,10.1949375 L30.2585625,30.8743125 C29.8891875,31.2305625 29.3023125,31.2286875 28.9404375,30.8668125 C28.3254375,30.2536875 27.6223125,29.9911875 26.5966875,29.9911875 C24.6298125,29.9911875 23.0285625,31.5905625 23.0285625,33.5574375 C23.0285625,34.5118125 23.4016875,35.4080625 24.0748125,36.0811875 C24.2510625,36.2574375 24.3485625,36.4955625 24.3485625,36.7430625 C24.3485625,36.9924375 24.2510625,37.2305625 24.0748125,37.4068125 L22.4491875,39.0324375 C20.4541875,41.0255625 11.0435625,45.2968125 4.6929375,45.2968125" id="Fill-8"></path>
                <path d="M24.375,49.6876875 L0.9375,49.6876875 C0.42,49.6876875 0,49.2676875 0,48.7501875 C0,48.2326875 0.42,47.8126875 0.9375,47.8126875 L24.375,47.8126875 C24.8925,47.8126875 25.3125,48.2326875 25.3125,48.7501875 C25.3125,49.2676875 24.8925,49.6876875 24.375,49.6876875" id="Fill-10"></path>
                <path d="M31.159125,49.6876875 L28.101,49.6876875 C27.5835,49.6876875 27.1635,49.2676875 27.1635,48.7501875 C27.1635,48.2326875 27.5835,47.8126875 28.101,47.8126875 L31.159125,47.8126875 C31.676625,47.8126875 32.096625,48.2326875 32.096625,48.7501875 C32.096625,49.2676875 31.676625,49.6876875 31.159125,49.6876875" id="Fill-12"></path>
                <path d="M51.514875,49.6876875 L48.454875,49.6876875 C47.937375,49.6876875 47.517375,49.2676875 47.517375,48.7501875 C47.517375,48.2326875 47.937375,47.8126875 48.454875,47.8126875 L51.514875,47.8126875 C52.032375,47.8126875 52.452375,48.2326875 52.452375,48.7501875 C52.452375,49.2676875 52.032375,49.6876875 51.514875,49.6876875" id="Fill-14"></path>
                <path d="M44.7290625,49.6876875 L41.6709375,49.6876875 C41.1534375,49.6876875 40.7334375,49.2676875 40.7334375,48.7501875 C40.7334375,48.2326875 41.1534375,47.8126875 41.6709375,47.8126875 L44.7290625,47.8126875 C45.2465625,47.8126875 45.6665625,48.2326875 45.6665625,48.7501875 C45.6665625,49.2676875 45.2465625,49.6876875 44.7290625,49.6876875" id="Fill-16"></path>
                <path d="M37.9449375,49.6876875 L34.8849375,49.6876875 C34.3674375,49.6876875 33.9474375,49.2676875 33.9474375,48.7501875 C33.9474375,48.2326875 34.3674375,47.8126875 34.8849375,47.8126875 L37.9449375,47.8126875 C38.4624375,47.8126875 38.8824375,48.2326875 38.8824375,48.7501875 C38.8824375,49.2676875 38.4624375,49.6876875 37.9449375,49.6876875" id="Fill-18"></path>
            </g>
        </g>
    </g>
</svg>