<?xml version="1.0" encoding="UTF-8"?>
<svg width="60px" height="60px" viewBox="0 0 60 60" version="1.1" xmlns="http://www.w3.org/2000/svg" xmlns:xlink="http://www.w3.org/1999/xlink">
    <!-- Generator: Sketch 60.1 (88133) - https://sketch.com -->
    <title>영상의학과 60*60</title>
    <desc>Created with Sketch.</desc>
    <g id="영상의학과-60*60" stroke="none" stroke-width="1" fill="none" fill-rule="evenodd">
        <g id="Group-53">
            <polygon id="Fill-1" points="0 60 60 60 60 0.001875 0 0.001875"></polygon>
            <g id="Group-52" transform="translate(3.750000, 3.750000)">
                <path d="M30.141,16.3861875 L22.35975,16.3861875 C21.840375,16.3861875 21.42225,15.9661875 21.42225,15.4486875 L21.42225,1.1518125 C21.42225,0.6343125 21.840375,0.2143125 22.35975,0.2143125 C22.87725,0.2143125 23.29725,0.6343125 23.29725,1.1518125 L23.29725,14.5111875 L29.2035,14.5111875 L29.2035,1.1518125 C29.2035,0.6343125 29.6235,0.2143125 30.141,0.2143125 C30.6585,0.2143125 31.0785,0.6343125 31.0785,1.1518125 L31.0785,15.4486875 C31.0785,15.9661875 30.6585,16.3861875 30.141,16.3861875" id="Fill-2" fill="#494949"></path>
                <path d="M50.625,48.7501875 L50.625,22.3314375 C50.625,14.1395625 39.7125,7.5001875 26.25,7.5001875 C12.7875,7.5001875 1.875,14.1395625 1.875,22.3314375 L1.875,48.7501875" id="Fill-4" fill="#FFFFFF"></path>
                <path d="M50.625,49.6876875 C50.1075,49.6876875 49.6875,49.2676875 49.6875,48.7501875 L49.6875,22.3314375 C49.6875,14.6701875 39.174375,8.4376875 26.25,8.4376875 C13.325625,8.4376875 2.8125,14.6701875 2.8125,22.3314375 L2.8125,48.7501875 C2.8125,49.2676875 2.3925,49.6876875 1.875,49.6876875 C1.3575,49.6876875 0.9375,49.2676875 0.9375,48.7501875 L0.9375,22.3314375 C0.9375,13.6351875 12.2925,6.5626875 26.25,6.5626875 C40.2075,6.5626875 51.5625,13.6351875 51.5625,22.3314375 L51.5625,48.7501875 C51.5625,49.2676875 51.1425,49.6876875 50.625,49.6876875" id="Fill-6" fill="#494949"></path>
                <path d="M26.25,37.66125 C25.7325,37.66125 25.3125,37.24125 25.3125,36.72375 L25.3125,14.22375 C25.3125,13.70625 25.7325,13.28625 26.25,13.28625 C26.7675,13.28625 27.1875,13.70625 27.1875,14.22375 L27.1875,36.72375 C27.1875,37.24125 26.7675,37.66125 26.25,37.66125" id="Fill-8" fill="#494949"></path>
                <path d="M26.25,42.0264375 C25.7325,42.0264375 25.3125,41.6064375 25.3125,41.0889375 L25.3125,40.1514375 C25.3125,39.6339375 25.7325,39.2139375 26.25,39.2139375 C26.7675,39.2139375 27.1875,39.6339375 27.1875,40.1514375 L27.1875,41.0889375 C27.1875,41.6064375 26.7675,42.0264375 26.25,42.0264375" id="Fill-10" fill="#494949"></path>
                <path d="M35.625,18.91125 L30,18.91125 C29.4825,18.91125 29.0625,18.49125 29.0625,17.97375 C29.0625,17.45625 29.4825,17.03625 30,17.03625 L35.625,17.03625 C36.1425,17.03625 36.5625,17.45625 36.5625,17.97375 C36.5625,18.49125 36.1425,18.91125 35.625,18.91125" id="Fill-12" fill="#494949"></path>
                <path d="M38.7744375,23.5895625 L29.9994375,23.5895625 C29.4819375,23.5895625 29.0619375,23.1695625 29.0619375,22.6520625 C29.0619375,22.1345625 29.4819375,21.7145625 29.9994375,21.7145625 L38.7744375,21.7145625 C39.2919375,21.7145625 39.7119375,22.1345625 39.7119375,22.6520625 C39.7119375,23.1695625 39.2919375,23.5895625 38.7744375,23.5895625" id="Fill-14" fill="#494949"></path>
                <path d="M38.7763125,23.5895625 C38.2588125,23.5895625 37.8388125,23.1695625 37.8388125,22.6520625 C37.8388125,22.1345625 38.2588125,21.7145625 38.7763125,21.7145625 C39.3425625,21.7145625 39.8019375,21.2551875 39.8019375,20.6889375 C39.8019375,20.1226875 39.3425625,19.6633125 38.7763125,19.6633125 C38.2588125,19.6633125 37.8388125,19.2451875 37.8388125,18.7258125 C37.8388125,18.2083125 38.2588125,17.7883125 38.7763125,17.7883125 C40.3756875,17.7883125 41.6769375,19.0914375 41.6769375,20.6889375 C41.6769375,22.2883125 40.3756875,23.5895625 38.7763125,23.5895625" id="Fill-16" fill="#494949"></path>
                <path d="M40.7390625,28.2313125 L29.9990625,28.2313125 C29.4815625,28.2313125 29.0615625,27.8113125 29.0615625,27.2938125 C29.0615625,26.7763125 29.4815625,26.3563125 29.9990625,26.3563125 L40.7390625,26.3563125 C41.2565625,26.3563125 41.6765625,26.7763125 41.6765625,27.2938125 C41.6765625,27.8113125 41.2565625,28.2313125 40.7390625,28.2313125" id="Fill-18" fill="#494949"></path>
                <path d="M40.7390625,28.2313125 C40.2215625,28.2313125 39.8015625,27.8113125 39.8015625,27.2938125 C39.8015625,26.7763125 40.2215625,26.3563125 40.7390625,26.3563125 C41.3053125,26.3563125 41.7646875,25.8969375 41.7646875,25.3306875 C41.7646875,24.9088125 41.7103125,24.5881875 41.5940625,24.3519375 C41.3690625,23.8869375 41.5621875,23.3263125 42.0290625,23.0994375 C42.4978125,22.8744375 43.0546875,23.0675625 43.2815625,23.5344375 C43.5253125,24.0388125 43.6396875,24.6069375 43.6396875,25.3306875 C43.6396875,26.9300625 42.3384375,28.2313125 40.7390625,28.2313125" id="Fill-20" fill="#494949"></path>
                <path d="M39.999375,32.8711875 L30,32.8711875 C29.4825,32.8711875 29.0625,32.4511875 29.0625,31.9336875 C29.0625,31.4161875 29.4825,30.9961875 30,30.9961875 L39.999375,30.9961875 C40.516875,30.9961875 40.936875,31.4161875 40.936875,31.9336875 C40.936875,32.4511875 40.516875,32.8711875 39.999375,32.8711875" id="Fill-22" fill="#494949"></path>
                <path d="M39.999375,32.8711875 C39.481875,32.8711875 39.061875,32.4511875 39.061875,31.9336875 C39.061875,31.4161875 39.481875,30.9961875 39.999375,30.9961875 C40.565625,30.9961875 41.025,30.5368125 41.025,29.9724375 L41.019375,29.7343125 C40.989375,29.2186875 41.383125,28.7743125 41.9025,28.7461875 C42.465,28.7236875 42.860625,29.1118125 42.890625,29.6293125 C42.898125,29.7399375 42.9,29.8561875 42.9,29.9724375 C42.9,31.5718125 41.59875,32.8711875 39.999375,32.8711875" id="Fill-24" fill="#494949"></path>
                <path d="M39.483,37.5129375 L29.99925,37.5129375 C29.48175,37.5129375 29.06175,37.0929375 29.06175,36.5754375 C29.06175,36.0579375 29.48175,35.6379375 29.99925,35.6379375 L39.483,35.6379375 C40.0005,35.6379375 40.4205,36.0579375 40.4205,36.5754375 C40.4205,37.0929375 40.0005,37.5129375 39.483,37.5129375" id="Fill-26" fill="#494949"></path>
                <path d="M39.483,37.5129375 C38.9655,37.5129375 38.5455,37.0929375 38.5455,36.5754375 C38.5455,36.0579375 38.9655,35.6379375 39.483,35.6379375 C39.968625,35.6379375 40.388625,35.2948125 40.486125,34.8204375 C40.591125,34.3123125 41.089875,33.9898125 41.59425,34.0910625 C42.1005,34.1941875 42.42675,34.6910625 42.3255,35.1991875 C42.048,36.5379375 40.853625,37.5129375 39.483,37.5129375" id="Fill-28" fill="#494949"></path>
                <path d="M22.5,18.91125 L16.875,18.91125 C16.3575,18.91125 15.9375,18.49125 15.9375,17.97375 C15.9375,17.45625 16.3575,17.03625 16.875,17.03625 L22.5,17.03625 C23.0175,17.03625 23.4375,17.45625 23.4375,17.97375 C23.4375,18.49125 23.0175,18.91125 22.5,18.91125" id="Fill-30" fill="#494949"></path>
                <path d="M22.5,23.5895625 L13.725,23.5895625 C13.2075,23.5895625 12.7875,23.1695625 12.7875,22.6520625 C12.7875,22.1345625 13.2075,21.7145625 13.725,21.7145625 L22.5,21.7145625 C23.0175,21.7145625 23.4375,22.1345625 23.4375,22.6520625 C23.4375,23.1695625 23.0175,23.5895625 22.5,23.5895625" id="Fill-32" fill="#494949"></path>
                <path d="M13.7236875,23.5895625 C12.1243125,23.5895625 10.8230625,22.2883125 10.8230625,20.6889375 C10.8230625,19.0914375 12.1243125,17.7883125 13.7236875,17.7883125 C14.2411875,17.7883125 14.6611875,18.2083125 14.6611875,18.7258125 C14.6611875,19.2451875 14.2411875,19.6633125 13.7236875,19.6633125 C13.1574375,19.6633125 12.6980625,20.1226875 12.6980625,20.6889375 C12.6980625,21.2551875 13.1574375,21.7145625 13.7236875,21.7145625 C14.2411875,21.7145625 14.6611875,22.1345625 14.6611875,22.6520625 C14.6611875,23.1695625 14.2411875,23.5895625 13.7236875,23.5895625" id="Fill-34" fill="#494949"></path>
                <path d="M22.5,28.2313125 L11.76,28.2313125 C11.2425,28.2313125 10.8225,27.8113125 10.8225,27.2938125 C10.8225,26.7763125 11.2425,26.3563125 11.76,26.3563125 L22.5,26.3563125 C23.0175,26.3563125 23.4375,26.7763125 23.4375,27.2938125 C23.4375,27.8113125 23.0175,28.2313125 22.5,28.2313125" id="Fill-36" fill="#494949"></path>
                <path d="M11.7609375,28.2313125 C10.1615625,28.2313125 8.8603125,26.9300625 8.8603125,25.3306875 C8.8603125,24.6069375 8.9746875,24.0388125 9.2184375,23.5344375 C9.4453125,23.0675625 10.0040625,22.8725625 10.4709375,23.0994375 C10.9378125,23.3263125 11.1309375,23.8869375 10.9059375,24.3519375 C10.7896875,24.5881875 10.7353125,24.9088125 10.7353125,25.3306875 C10.7353125,25.8969375 11.1946875,26.3563125 11.7609375,26.3563125 C12.2784375,26.3563125 12.6984375,26.7763125 12.6984375,27.2938125 C12.6984375,27.8113125 12.2784375,28.2313125 11.7609375,28.2313125" id="Fill-38" fill="#494949"></path>
                <path d="M22.5,32.8711875 L12.500625,32.8711875 C11.983125,32.8711875 11.563125,32.4511875 11.563125,31.9336875 C11.563125,31.4161875 11.983125,30.9961875 12.500625,30.9961875 L22.5,30.9961875 C23.0175,30.9961875 23.4375,31.4161875 23.4375,31.9336875 C23.4375,32.4511875 23.0175,32.8711875 22.5,32.8711875" id="Fill-40" fill="#494949"></path>
                <path d="M12.500625,32.8711875 C10.90125,32.8711875 9.6,31.5718125 9.6,29.9724375 C9.6,29.8561875 9.601875,29.7399375 9.609375,29.6293125 C9.64125,29.1118125 10.051875,28.7218125 10.5975,28.7461875 C11.116875,28.7743125 11.510625,29.2186875 11.480625,29.7343125 L11.475,29.9724375 C11.475,30.5368125 11.934375,30.9961875 12.500625,30.9961875 C13.018125,30.9961875 13.438125,31.4161875 13.438125,31.9336875 C13.438125,32.4511875 13.018125,32.8711875 12.500625,32.8711875" id="Fill-42" fill="#494949"></path>
                <path d="M22.5,37.5129375 L13.01625,37.5129375 C12.49875,37.5129375 12.07875,37.0929375 12.07875,36.5754375 C12.07875,36.0579375 12.49875,35.6379375 13.01625,35.6379375 L22.5,35.6379375 C23.0175,35.6379375 23.4375,36.0579375 23.4375,36.5754375 C23.4375,37.0929375 23.0175,37.5129375 22.5,37.5129375" id="Fill-44" fill="#494949"></path>
                <path d="M13.017,37.5129375 C11.646375,37.5129375 10.452,36.5379375 10.1745,35.1991875 C10.07325,34.6910625 10.3995,34.1941875 10.90575,34.0910625 C11.40825,33.9916875 11.908875,34.3123125 12.013875,34.8204375 C12.111375,35.2948125 12.531375,35.6379375 13.017,35.6379375 C13.5345,35.6379375 13.9545,36.0579375 13.9545,36.5754375 C13.9545,37.0929375 13.5345,37.5129375 13.017,37.5129375" id="Fill-46" fill="#494949"></path>
                <path d="M41.25,48.7501875 L41.25,46.2695625 C41.25,44.8726875 40.1175,43.7401875 38.7225,43.7401875 L28.250625,43.7401875 C28.250625,44.8464375 27.35625,45.7426875 26.25,45.7426875 C25.14375,45.7426875 24.249375,44.8464375 24.249375,43.7401875 L13.7775,43.7401875 C12.3825,43.7401875 11.25,44.8726875 11.25,46.2695625 L11.25,48.7501875" id="Fill-48" fill="#FFFFFF"></path>
                <path d="M41.25,49.6876875 C40.7325,49.6876875 40.3125,49.2676875 40.3125,48.7501875 L40.3125,46.2695625 C40.3125,45.3920625 39.6,44.6776875 38.7225,44.6776875 L29.034375,44.6776875 C28.6425,45.8401875 27.541875,46.6801875 26.25,46.6801875 C24.958125,46.6801875 23.8575,45.8401875 23.465625,44.6776875 L13.7775,44.6776875 C12.9,44.6776875 12.1875,45.3920625 12.1875,46.2695625 L12.1875,48.7501875 C12.1875,49.2676875 11.7675,49.6876875 11.25,49.6876875 C10.7325,49.6876875 10.3125,49.2676875 10.3125,48.7501875 L10.3125,46.2695625 C10.3125,44.3570625 11.866875,42.8026875 13.7775,42.8026875 L24.249375,42.8026875 C24.766875,42.8026875 25.186875,43.2226875 25.186875,43.7401875 C25.186875,44.3289375 25.663125,44.8051875 26.25,44.8051875 C26.836875,44.8051875 27.313125,44.3289375 27.313125,43.7401875 C27.313125,43.2226875 27.733125,42.8026875 28.250625,42.8026875 L38.7225,42.8026875 C40.633125,42.8026875 42.1875,44.3570625 42.1875,46.2695625 L42.1875,48.7501875 C42.1875,49.2676875 41.7675,49.6876875 41.25,49.6876875" id="Fill-50" fill="#494949"></path>
            </g>
        </g>
    </g>
</svg>