<?xml version="1.0" encoding="UTF-8"?>
<svg width="60px" height="60px" viewBox="0 0 60 60" version="1.1" xmlns="http://www.w3.org/2000/svg" xmlns:xlink="http://www.w3.org/1999/xlink">
    <!-- Generator: Sketch 60.1 (88133) - https://sketch.com -->
    <title>산부인과 60*60</title>
    <desc>Created with Sketch.</desc>
    <g id="산부인과-60*60" stroke="none" stroke-width="1" fill="none" fill-rule="evenodd">
        <g id="Group-33">
            <polygon id="Fill-1" points="0 60 60 60 60 0.001875 0 0.001875"></polygon>
            <g id="Group-32" transform="translate(1.875000, 7.500000)">
                <path d="M7.3644375,16.175625 C6.2825625,16.175625 5.1875625,15.875625 4.2013125,15.305625 C1.5144375,13.753125 0.3875625,10.6575 1.6906875,8.401875 C2.4688125,7.05375 3.9894375,6.249375 5.7613125,6.249375 C6.8431875,6.249375 7.9381875,6.55125 8.9244375,7.12125 C10.2481875,7.884375 11.2325625,9.039375 11.6994375,10.374375 C12.1456875,11.65875 12.0519375,12.95625 11.4350625,14.026875 C10.6569375,15.37125 9.1344375,16.175625 7.3644375,16.175625" id="Fill-2" fill="#FFFFFF"></path>
                <path d="M5.7605625,5.3120625 C3.7299375,5.3120625 1.8605625,6.2308125 0.8780625,7.9314375 C-0.6856875,10.6408125 0.5930625,14.3045625 3.7318125,16.1176875 C4.8999375,16.7908125 6.1599375,17.1133125 7.3636875,17.1133125 C9.3943125,17.1133125 11.2655625,16.1945625 12.2461875,14.4939375 C13.8099375,11.7864375 12.5311875,8.1208125 9.3924375,6.3095625 C8.2243125,5.6345625 6.9661875,5.3120625 5.7605625,5.3120625 M5.7605625,7.1870625 L5.7605625,7.1870625 C6.6793125,7.1870625 7.6111875,7.4458125 8.4549375,7.9314375 C10.6955625,9.2251875 11.6649375,11.7489375 10.6224375,13.5564375 C10.0149375,14.6101875 8.7961875,15.2383125 7.3636875,15.2383125 C6.4468125,15.2383125 5.5130625,14.9795625 4.6693125,14.4920625 C3.5386875,13.8414375 2.7024375,12.8645625 2.3124375,11.7433125 C1.9561875,10.7195625 2.0236875,9.6995625 2.5036875,8.8689375 C3.1111875,7.8151875 4.3280625,7.1870625 5.7605625,7.1870625" id="Fill-4" fill="#494949"></path>
                <path d="M48.8855625,16.175625 C47.1155625,16.175625 45.5930625,15.37125 44.8149375,14.026875 C44.1980625,12.95625 44.1043125,11.65875 44.5505625,10.374375 C45.0174375,9.039375 46.0018125,7.884375 47.3255625,7.12125 C48.3118125,6.55125 49.4068125,6.249375 50.4886875,6.249375 C52.2605625,6.249375 53.7811875,7.05375 54.5593125,8.401875 C55.8624375,10.6575 54.7355625,13.753125 52.0486875,15.305625 C51.0624375,15.875625 49.9674375,16.175625 48.8855625,16.175625" id="Fill-6" fill="#FFFFFF"></path>
                <path d="M50.4894375,5.3120625 C49.2856875,5.3120625 48.0256875,5.6345625 46.8575625,6.3095625 C43.7188125,8.1208125 42.4400625,11.7864375 44.0038125,14.4939375 C44.9844375,16.1945625 46.8538125,17.1133125 48.8863125,17.1133125 C50.0881875,17.1133125 51.3500625,16.7908125 52.5181875,16.1176875 C55.6569375,14.3045625 56.9356875,10.6408125 55.3719375,7.9314375 C54.3894375,6.2308125 52.5200625,5.3120625 50.4894375,5.3120625 M50.4894375,7.1870625 L50.4894375,7.1870625 C51.9219375,7.1870625 53.1388125,7.8151875 53.7463125,8.8689375 C54.2263125,9.6995625 54.2938125,10.7195625 53.9375625,11.7433125 C53.5475625,12.8645625 52.7113125,13.8414375 51.5806875,14.4920625 C50.7369375,14.9795625 49.8031875,15.2383125 48.8863125,15.2383125 C47.4538125,15.2383125 46.2350625,14.6101875 45.6275625,13.5564375 C44.5850625,11.7489375 45.5544375,9.2251875 47.7950625,7.9314375 C48.6388125,7.4458125 49.5725625,7.1870625 50.4894375,7.1870625" id="Fill-8" fill="#494949"></path>
                <polygon id="Fill-10" fill="#FFFFFF" points="25.3125 45.9376875 23.431875 28.9576875 32.8125 29.0626875 30.943125 45.8326875 30.9375 45.9376875"></polygon>
                <path d="M32.8125,28.1251875 L23.4375,28.1251875 C22.92,28.1251875 22.5,28.5451875 22.5,29.0626875 L24.375,45.9376875 C24.375,46.4551875 24.795,46.8751875 25.3125,46.8751875 L30.9375,46.8751875 C31.455,46.8751875 31.875,46.4551875 31.875,45.9376875 L33.75,29.0626875 C33.75,28.5451875 33.33,28.1251875 32.8125,28.1251875 M31.75875,30.0001875 L30.09375,45.0001875 L26.15625,45.0001875 L24.49125,30.0001875 L31.75875,30.0001875" id="Fill-12" fill="#494949"></path>
                <path d="M28.125,21.5626875 C27.8025,21.5626875 27.4875,21.3958125 27.313125,21.0958125 C24.4875,16.2339375 15.91875,3.5233125 10.30125,3.1070625 C4.449375,2.6889375 3.04125,7.6970625 2.985,7.9126875 C2.85375,8.4133125 2.349375,8.7226875 1.84125,8.5820625 C1.340625,8.4526875 1.040625,7.9389375 1.171875,7.4401875 C1.190625,7.3726875 3.01125,0.6733125 10.44,1.2358125 C18.1875,1.8114375 28.5,19.4064375 28.936875,20.1545625 C29.195625,20.6008125 29.04375,21.1764375 28.595625,21.4370625 C28.4475,21.5233125 28.28625,21.5626875 28.125,21.5626875" id="Fill-14" fill="#494949"></path>
                <path d="M28.125,21.5626875 C27.96375,21.5626875 27.8025,21.5233125 27.654375,21.4370625 C27.20625,21.1764375 27.054375,20.6008125 27.313125,20.1545625 C27.75,19.4064375 38.0625,1.8114375 45.81,1.2358125 C53.206875,0.6676875 55.059375,7.3726875 55.078125,7.4401875 C55.209375,7.9389375 54.91125,8.4489375 54.4125,8.5801875 C53.908125,8.7170625 53.4,8.4151875 53.265,7.9164375 C53.20875,7.7008125 51.765,2.6476875 45.94875,3.1070625 C40.33125,3.5233125 31.7625,16.2339375 28.936875,21.0958125 C28.7625,21.3958125 28.4475,21.5626875 28.125,21.5626875" id="Fill-16" fill="#494949"></path>
                <path d="M24.6935625,30.9376875 C22.8373125,30.9376875 21.2398125,29.5520625 20.9810625,27.7145625 L18.1085625,7.5601875 C18.0710625,7.2864375 18.1479375,7.0201875 18.3279375,6.8120625 C18.5098125,6.6020625 18.7629375,6.4876875 19.0385625,6.4876875 L37.2110625,6.4876875 C37.4866875,6.4876875 37.7398125,6.6020625 37.9216875,6.8120625 C38.1016875,7.0201875 38.1785625,7.2864375 38.1410625,7.5601875 L35.2704375,27.7145625 C35.0098125,29.5520625 33.4123125,30.9376875 31.5560625,30.9376875 L24.6935625,30.9376875 Z" id="Fill-18" fill="#FFFFFF"></path>
                <path d="M37.2106875,5.55 L19.0400625,5.55 C17.8963125,5.55 17.0188125,6.5625 17.1800625,7.693125 L20.0525625,27.8475 C20.3788125,30.1575 22.3588125,31.875 24.6931875,31.875 L31.5556875,31.875 C33.8900625,31.875 35.8700625,30.1575 36.1981875,27.8475 L39.0688125,7.693125 C39.2300625,6.5625 38.3525625,5.55 37.2106875,5.55 M37.2106875,7.425 L37.2144375,7.42875 L34.3438125,27.58125 C34.1450625,28.959375 32.9488125,30 31.5556875,30 L24.6931875,30 C23.3019375,30 22.1038125,28.959375 21.9069375,27.58125 L19.0400625,7.425 L37.2106875,7.425" id="Fill-20" fill="#494949"></path>
                <path d="M28.125,27.1876875 C27.7275,27.1876875 27.36,26.9345625 27.230625,26.5351875 C27.219375,26.4920625 25.779375,22.0183125 24.733125,19.7045625 C23.90625,17.8820625 21.70875,14.0326875 21.68625,13.9951875 C21.429375,13.5470625 21.585,12.9733125 22.035,12.7164375 C22.4775,12.4595625 23.055,12.6151875 23.31375,13.0651875 C23.405625,13.2264375 25.57875,17.0289375 26.44125,18.9301875 C27.534375,21.3451875 28.9575,25.7758125 29.019375,25.9651875 C29.176875,26.4564375 28.905,26.9851875 28.41,27.1445625 C28.31625,27.1726875 28.220625,27.1876875 28.125,27.1876875" id="Fill-22" fill="#494949"></path>
                <path d="M29.6484375,36.5626875 L26.8865625,36.5626875 C26.3690625,36.5626875 25.9490625,36.1426875 25.9490625,35.6251875 C25.9490625,35.1076875 26.3690625,34.6876875 26.8865625,34.6876875 L29.6484375,34.6876875 C30.1659375,34.6876875 30.5859375,35.1076875 30.5859375,35.6251875 C30.5859375,36.1426875 30.1659375,36.5626875 29.6484375,36.5626875" id="Fill-24" fill="#494949"></path>
                <path d="M28.971,40.3126875 L27.56475,40.3126875 C27.04725,40.3126875 26.62725,39.8926875 26.62725,39.3751875 C26.62725,38.8576875 27.04725,38.4376875 27.56475,38.4376875 L28.971,38.4376875 C29.4885,38.4376875 29.9085,38.8576875 29.9085,39.3751875 C29.9085,39.8926875 29.4885,40.3126875 28.971,40.3126875" id="Fill-26" fill="#494949"></path>
                <path d="M28.125,27.1876875 C28.029375,27.1876875 27.93375,27.1726875 27.84,27.1445625 C27.345,26.9851875 27.073125,26.4564375 27.230625,25.9651875 C27.2925,25.7758125 28.715625,21.3451875 29.80875,18.9320625 C30.67125,17.0289375 32.844375,13.2264375 32.93625,13.0651875 C33.193125,12.6151875 33.76875,12.4595625 34.215,12.7164375 C34.665,12.9733125 34.820625,13.5470625 34.56375,13.9951875 C34.54125,14.0326875 32.34375,17.8820625 31.516875,19.7064375 C30.470625,22.0183125 29.030625,26.4920625 29.019375,26.5351875 C28.89,26.9345625 28.5225,27.1876875 28.125,27.1876875" id="Fill-28" fill="#494949"></path>
                <path d="M28.125,14.860875 C25.959375,14.860875 22.539375,14.478375 22.395,14.4615 C21.88125,14.403375 21.511875,13.94025 21.568125,13.424625 C21.62625,12.907125 22.125,12.5415 22.605,12.59775 C22.63875,12.6015 26.064375,12.985875 28.125,12.985875 C30.185625,12.985875 33.61125,12.6015 33.645,12.59775 C34.115625,12.53775 34.621875,12.907125 34.681875,13.424625 C34.738125,13.94025 34.36875,14.403375 33.855,14.4615 C33.710625,14.478375 30.290625,14.860875 28.125,14.860875" id="Fill-30" fill="#494949"></path>
            </g>
        </g>
    </g>
</svg>